GeoramaExtended-Thin.ufo
<glyph name="exclam" format="2">
  <advance width="269.4"/>
  <unicode hex="0021"/>
  <outline>
    <contour>
      <point x="124.69999999999999" y="264.0" type="line"/>
      <point x="144.7" y="264.0" type="line"/>
      <point x="144.7" y="740.0" type="line"/>
      <point x="124.69999999999999" y="740.0" type="line"/>
    </contour>
    <contour>
      <point x="118.6" y="17.0" type="curve" smooth="yes"/>
      <point x="118.6" y="1.0"/>
      <point x="120.3" y="0.0"/>
      <point x="134.7" y="0.0" type="curve" smooth="yes"/>
      <point x="150.1" y="0.0"/>
      <point x="150.8" y="1.0"/>
      <point x="150.8" y="17.0" type="curve" smooth="yes"/>
      <point x="150.8" y="33.0"/>
      <point x="150.1" y="34.0"/>
      <point x="134.7" y="34.0" type="curve" smooth="yes"/>
      <point x="119.3" y="34.0"/>
      <point x="118.6" y="33.0"/>
    </contour>
  </outline>
</glyph>
<glyph name="numbersign" format="2">
  <advance width="798.8"/>
  <unicode hex="0023"/>
  <outline>
    <contour>
      <point x="134.89999999999998" y="477.4" type="line"/>
      <point x="286.0" y="477.4" type="line"/>
      <point x="224.6" y="211.0" type="line"/>
      <point x="83.3" y="211.0" type="line"/>
      <point x="83.3" y="192.4" type="line"/>
      <point x="219.79999999999998" y="192.4" type="line"/>
      <point x="176.2" y="0.0" type="line"/>
      <point x="196.2" y="0.0" type="line"/>
      <point x="239.79999999999998" y="192.4" type="line"/>
      <point x="490.79999999999995" y="192.4" type="line"/>
      <point x="447.2" y="0.0" type="line"/>
      <point x="467.2" y="0.0" type="line"/>
      <point x="510.79999999999995" y="192.4" type="line"/>
      <point x="663.9" y="192.4" type="line"/>
      <point x="663.9" y="211.0" type="line"/>
      <point x="515.5999999999999" y="211.0" type="line"/>
      <point x="577.0" y="477.4" type="line"/>
      <point x="715.5" y="477.4" type="line"/>
      <point x="715.5" y="496.0" type="line"/>
      <point x="581.4" y="496.0" type="line"/>
      <point x="629.2" y="700.0" type="line"/>
      <point x="609.2" y="700.0" type="line"/>
      <point x="561.4" y="496.0" type="line"/>
      <point x="310.4" y="496.0" type="line"/>
      <point x="358.2" y="700.0" type="line"/>
      <point x="338.2" y="700.0" type="line"/>
      <point x="290.4" y="496.0" type="line"/>
      <point x="134.89999999999998" y="496.0" type="line"/>
    </contour>
    <contour>
      <point x="306.0" y="477.4" type="line"/>
      <point x="557.0" y="477.4" type="line"/>
      <point x="495.59999999999997" y="211.0" type="line"/>
      <point x="244.6" y="211.0" type="line"/>
    </contour>
  </outline>
</glyph>
<glyph name="dollar" format="2">
  <advance width="798.8"/>
  <unicode hex="0024"/>
  <outline>
    <contour>
      <point x="407.5" y="-10.0" type="curve" smooth="yes"/>
      <point x="615.8" y="-10.0"/>
      <point x="710.7" y="46.1"/>
      <point x="710.7" y="162.5" type="curve" smooth="yes"/>
      <point x="710.7" y="266.7"/>
      <point x="635.8" y="317.9"/>
      <point x="427.9" y="357.5" type="curve" smooth="yes"/>
      <point x="231.5" y="395.8"/>
      <point x="152.0" y="447.7"/>
      <point x="152.0" y="541.3" type="curve" smooth="yes"/>
      <point x="152.0" y="635.8"/>
      <point x="250.1" y="690.6"/>
      <point x="424.09999999999997" y="690.6" type="curve" smooth="yes"/>
      <point x="493.09999999999997" y="690.6"/>
      <point x="594.3" y="674.4"/>
      <point x="668.5999999999999" y="652.7" type="curve"/>
      <point x="675.2" y="671.5" type="line"/>
      <point x="602.0999999999999" y="694.5"/>
      <point x="497.0" y="710.0"/>
      <point x="417.09999999999997" y="710.0" type="curve" smooth="yes"/>
      <point x="231.79999999999998" y="708.6"/>
      <point x="131.3" y="648.2"/>
      <point x="131.3" y="541.3" type="curve" smooth="yes"/>
      <point x="131.3" y="435.7"/>
      <point x="212.79999999999998" y="380.1"/>
      <point x="421.4" y="340.2" type="curve" smooth="yes"/>
      <point x="617.0999999999999" y="301.6"/>
      <point x="690.7" y="252.8"/>
      <point x="690.7" y="161.6" type="curve" smooth="yes"/>
      <point x="690.7" y="59.2"/>
      <point x="602.7" y="9.7"/>
      <point x="407.59999999999997" y="9.7" type="curve" smooth="yes"/>
      <point x="320.2" y="9.7"/>
      <point x="184.6" y="31.9"/>
      <point x="94.4" y="61.199999999999996" type="curve"/>
      <point x="88.1" y="41.8" type="line"/>
      <point x="179.7" y="11.799999999999997"/>
      <point x="316.9" y="-10.0"/>
    </contour>
    <contour>
      <point x="407.0" y="-105.0" type="line"/>
      <point x="427.0" y="-105.0" type="line"/>
      <point x="427.0" y="-3.1999999999999993" type="line"/>
      <point x="407.0" y="-4.7" type="line"/>
    </contour>
    <contour>
      <point x="407.0" y="704.4" type="line"/>
      <point x="427.0" y="705.0" type="line"/>
      <point x="427.0" y="805.0" type="line"/>
      <point x="407.0" y="805.0" type="line"/>
    </contour>
  </outline>
</glyph>
<glyph name="ampersand" format="2">
  <advance width="804.0999999999999"/>
  <unicode hex="0026"/>
  <outline>
    <contour>
      <point x="791.4" y="-11.100000000000001" type="line"/>
      <point x="803.8" y="4.799999999999999" type="line"/>
      <point x="241.79999999999998" y="404.1" type="line" smooth="yes"/>
      <point x="183.89999999999998" y="448.7"/>
      <point x="154.6" y="497.7"/>
      <point x="154.6" y="550.6" type="curve" smooth="yes"/>
      <point x="154.6" y="637.9"/>
      <point x="225.3" y="690.0"/>
      <point x="372.4" y="690.0" type="curve" smooth="yes"/>
      <point x="506.2" y="690.0"/>
      <point x="576.5" y="641.2"/>
      <point x="576.5" y="553.3" type="curve" smooth="yes"/>
      <point x="576.5" y="485.7"/>
      <point x="544.7" y="442.5"/>
      <point x="463.79999999999995" y="421.1" type="curve"/>
      <point x="471.4" y="404.8" type="line"/>
      <point x="558.8" y="430.8"/>
      <point x="596.5" y="479.4"/>
      <point x="596.5" y="555.3" type="curve" smooth="yes"/>
      <point x="596.5" y="655.9"/>
      <point x="518.9" y="710.0"/>
      <point x="372.4" y="710.0" type="curve" smooth="yes"/>
      <point x="212.0" y="710.0"/>
      <point x="134.6" y="651.2"/>
      <point x="134.6" y="550.6" type="curve" smooth="yes"/>
      <point x="134.6" y="492.9"/>
      <point x="165.8" y="437.0"/>
      <point x="223.2" y="390.6" type="curve" smooth="yes"/>
    </contour>
    <contour>
      <point x="354.1" y="-10.0" type="curve" smooth="yes"/>
      <point x="477.7" y="-10.0"/>
      <point x="579.0999999999999" y="30.3"/>
      <point x="643.4" y="98.4" type="curve"/>
      <point x="628.5" y="110.7" type="line"/>
      <point x="565.3" y="47.5"/>
      <point x="471.7" y="10.0"/>
      <point x="354.1" y="10.0" type="curve" smooth="yes"/>
      <point x="177.5" y="10.0"/>
      <point x="75.5" y="78.2"/>
      <point x="75.5" y="190.8" type="curve" smooth="yes"/>
      <point x="75.5" y="283.1"/>
      <point x="131.89999999999998" y="343.8"/>
      <point x="243.79999999999998" y="385.8" type="curve"/>
      <point x="227.7" y="398.0" type="line"/>
      <point x="112.69999999999999" y="356.5"/>
      <point x="55.5" y="290.1"/>
      <point x="55.5" y="190.8" type="curve" smooth="yes"/>
      <point x="55.5" y="65.2"/>
      <point x="164.2" y="-10.0"/>
    </contour>
    <contour>
      <point x="652.2" y="106.3" type="line"/>
      <point x="700.5999999999999" y="163.6"/>
      <point x="725.5999999999999" y="235.7"/>
      <point x="725.5999999999999" y="318.4" type="curve" smooth="yes"/>
      <point x="725.5999999999999" y="341.0"/>
      <point x="722.5" y="359.4"/>
      <point x="716.0" y="380.2" type="curve"/>
      <point x="697.0" y="374.4" type="line"/>
      <point x="703.5" y="353.6"/>
      <point x="705.9" y="336.9"/>
      <point x="705.9" y="318.4" type="curve" smooth="yes"/>
      <point x="705.9" y="239.7"/>
      <point x="681.8" y="171.4"/>
      <point x="637.0" y="120.2" type="curve"/>
    </contour>
  </outline>
</glyph>
<glyph name="quotesingle" format="2">
  <advance width="165.2"/>
  <unicode hex="0027"/>
  <outline>
    <contour>
      <point x="76.6" y="427.0" type="line"/>
      <point x="88.6" y="427.0" type="line"/>
      <point x="93.6" y="700.0" type="line"/>
      <point x="71.6" y="700.0" type="line"/>
    </contour>
  </outline>
</glyph>
<glyph name="parenleft" format="2">
  <advance width="377.5"/>
  <unicode hex="0028"/>
  <outline>
    <contour>
      <point x="126.3" y="265.0" type="curve" smooth="yes"/>
      <point x="126.3" y="18.799999999999997"/>
      <point x="197.8" y="-184.5"/>
      <point x="352.2" y="-220.3" type="curve"/>
      <point x="352.2" y="-198.8" type="line"/>
      <point x="215.39999999999998" y="-164.1"/>
      <point x="146.89999999999998" y="29.0"/>
      <point x="146.89999999999998" y="265.0" type="curve" smooth="yes"/>
      <point x="146.89999999999998" y="501.0"/>
      <point x="215.39999999999998" y="694.1"/>
      <point x="352.2" y="728.8" type="curve"/>
      <point x="352.2" y="750.3" type="line"/>
      <point x="197.8" y="714.5"/>
      <point x="126.3" y="511.2"/>
    </contour>
  </outline>
</glyph>
<glyph name="parenright" format="2">
  <advance width="377.5"/>
  <unicode hex="0029"/>
  <outline>
    <contour>
      <point x="25.299999999999997" y="-198.8" type="curve"/>
      <point x="25.299999999999997" y="-220.3" type="line"/>
      <point x="179.7" y="-184.5"/>
      <point x="251.2" y="18.799999999999997"/>
      <point x="251.2" y="265.0" type="curve" smooth="yes"/>
      <point x="251.2" y="511.2"/>
      <point x="179.7" y="714.5"/>
      <point x="25.299999999999997" y="750.3" type="curve"/>
      <point x="25.299999999999997" y="728.8" type="line"/>
      <point x="162.1" y="694.1"/>
      <point x="230.6" y="501.0"/>
      <point x="230.6" y="265.0" type="curve" smooth="yes"/>
      <point x="230.6" y="29.0"/>
      <point x="162.1" y="-164.1"/>
    </contour>
  </outline>
</glyph>
<glyph name="asterisk" format="2">
  <advance width="380.79999999999995"/>
  <unicode hex="002A"/>
  <outline>
    <contour>
      <point x="85.0" y="337.1" type="line"/>
      <point x="191.1" y="486.4" type="line"/>
      <point x="294.4" y="336.4" type="line"/>
      <point x="308.0" y="345.7" type="line"/>
      <point x="204.8" y="499.0" type="line"/>
      <point x="371.7" y="556.7" type="line"/>
      <point x="366.1" y="572.0" type="line"/>
      <point x="200.8" y="516.3" type="line"/>
      <point x="200.8" y="699.7" type="line"/>
      <point x="181.39999999999998" y="699.7" type="line"/>
      <point x="181.39999999999998" y="516.3" type="line"/>
      <point x="14.7" y="572.0" type="line"/>
      <point x="9.1" y="556.7" type="line"/>
      <point x="177.39999999999998" y="499.0" type="line"/>
      <point x="70.69999999999999" y="347.1" type="line"/>
    </contour>
  </outline>
</glyph>
<glyph name="plus" format="2">
  <advance width="503.0"/>
  <unicode hex="002B"/>
  <outline>
    <contour>
      <point x="241.5" y="72.0" type="line"/>
      <point x="261.5" y="72.0" type="line"/>
      <point x="261.5" y="279.0" type="line"/>
      <point x="447.2" y="279.0" type="line"/>
      <point x="447.2" y="299.0" type="line"/>
      <point x="261.5" y="299.0" type="line"/>
      <point x="261.5" y="506.0" type="line"/>
      <point x="241.5" y="506.0" type="line"/>
      <point x="241.5" y="299.0" type="line"/>
      <point x="55.8" y="299.0" type="line"/>
      <point x="55.8" y="279.0" type="line"/>
      <point x="241.5" y="279.0" type="line"/>
    </contour>
  </outline>
</glyph>
<glyph name="comma" format="2">
  <advance width="181.7"/>
  <unicode hex="002C"/>
  <outline>
    <contour>
      <point x="83.8" y="29.8" type="line"/>
      <point x="92.9" y="9.8"/>
      <point x="98.3" y="-12.5"/>
      <point x="98.3" y="-33.7" type="curve" smooth="yes"/>
      <point x="98.3" y="-92.9"/>
      <point x="69.4" y="-158.8"/>
      <point x="14.199999999999996" y="-184.5" type="curve"/>
      <point x="23.099999999999998" y="-201.2" type="line"/>
      <point x="88.3" y="-172.7"/>
      <point x="118.3" y="-94.6"/>
      <point x="118.3" y="-32.3" type="curve" smooth="yes"/>
      <point x="118.3" y="-7.1"/>
      <point x="113.19999999999999" y="17.3"/>
      <point x="103.4" y="38.2" type="curve"/>
    </contour>
  </outline>
</glyph>
<glyph name="hyphen" format="2">
  <advance width="366.2"/>
  <unicode hex="002D"/>
  <outline>
    <contour>
      <point x="48.3" y="255.0" type="line"/>
      <point x="317.9" y="255.0" type="line"/>
      <point x="317.9" y="275.0" type="line"/>
      <point x="48.3" y="275.0" type="line"/>
    </contour>
  </outline>
</glyph>
<glyph name="period" format="2">
  <advance width="181.7"/>
  <unicode hex="002E"/>
  <outline>
    <contour>
      <point x="75.1" y="17.0" type="curve" smooth="yes"/>
      <point x="75.1" y="1.0"/>
      <point x="76.8" y="0.0"/>
      <point x="91.19999999999999" y="0.0" type="curve" smooth="yes"/>
      <point x="106.6" y="0.0"/>
      <point x="107.3" y="1.0"/>
      <point x="107.3" y="17.0" type="curve" smooth="yes"/>
      <point x="107.3" y="33.0"/>
      <point x="106.6" y="34.0"/>
      <point x="91.19999999999999" y="34.0" type="curve" smooth="yes"/>
      <point x="75.8" y="34.0"/>
      <point x="75.1" y="33.0"/>
    </contour>
  </outline>
</glyph>
<glyph name="slash" format="2">
  <advance width="366.4"/>
  <unicode hex="002F"/>
  <outline>
    <contour>
      <point x="7.6" y="-210.0" type="line"/>
      <point x="28.7" y="-210.0" type="line"/>
      <point x="358.79999999999995" y="740.0" type="line"/>
      <point x="337.7" y="740.0" type="line"/>
    </contour>
  </outline>
</glyph>
<glyph name="zero" format="2">
  <advance width="798.8"/>
  <unicode hex="0030"/>
  <outline>
    <contour>
      <point x="41.599999999999994" y="350.0" type="curve" smooth="yes"/>
      <point x="41.599999999999994" y="69.3"/>
      <point x="205.5" y="-10.0"/>
      <point x="399.4" y="-10.0" type="curve" smooth="yes"/>
      <point x="593.3" y="-10.0"/>
      <point x="757.1999999999999" y="69.3"/>
      <point x="757.1999999999999" y="350.0" type="curve" smooth="yes"/>
      <point x="757.1999999999999" y="631.0"/>
      <point x="593.3" y="710.0"/>
      <point x="399.4" y="710.0" type="curve" smooth="yes"/>
      <point x="205.5" y="710.0"/>
      <point x="41.599999999999994" y="631.0"/>
    </contour>
    <contour>
      <point x="61.599999999999994" y="350.0" type="curve" smooth="yes"/>
      <point x="61.599999999999994" y="615.0"/>
      <point x="216.7" y="690.0"/>
      <point x="399.4" y="690.0" type="curve" smooth="yes"/>
      <point x="582.0999999999999" y="690.0"/>
      <point x="737.1999999999999" y="615.0"/>
      <point x="737.1999999999999" y="350.0" type="curve" smooth="yes"/>
      <point x="737.1999999999999" y="85.3"/>
      <point x="582.0999999999999" y="10.0"/>
      <point x="399.4" y="10.0" type="curve" smooth="yes"/>
      <point x="216.7" y="10.0"/>
      <point x="61.599999999999994" y="85.3"/>
    </contour>
  </outline>
</glyph>
<glyph name="one" format="2">
  <advance width="798.8"/>
  <unicode hex="0031"/>
  <outline>
    <contour>
      <point x="68.5" y="0.0" type="line"/>
      <point x="772.6" y="0.0" type="line"/>
      <point x="772.6" y="20.0" type="line"/>
      <point x="464.59999999999997" y="20.0" type="line"/>
      <point x="464.59999999999997" y="707.0" type="line"/>
      <point x="452.59999999999997" y="707.0" type="line"/>
      <point x="60.099999999999994" y="523.3" type="line"/>
      <point x="69.3" y="506.5" type="line"/>
      <point x="444.59999999999997" y="679.0" type="line"/>
      <point x="444.59999999999997" y="20.0" type="line"/>
      <point x="68.5" y="20.0" type="line"/>
    </contour>
  </outline>
</glyph>
<glyph name="two" format="2">
  <advance width="798.9999999999999"/>
  <unicode hex="0032"/>
  <outline>
    <contour>
      <point x="76.0" y="17.0" type="curve"/>
      <point x="80.5" y="0.0" type="line"/>
      <point x="738.5" y="0.0" type="line"/>
      <point x="738.5" y="20.0" type="line"/>
      <point x="116.99999999999999" y="20.0" type="line"/>
      <point x="538.0" y="272.5"/>
      <point x="620.0" y="375.0"/>
      <point x="620.0" y="503.0" type="curve" smooth="yes"/>
      <point x="620.0" y="640.0"/>
      <point x="534.0" y="710.0"/>
      <point x="371.5" y="710.0" type="curve" smooth="yes"/>
      <point x="279.5" y="710.0"/>
      <point x="184.49999999999997" y="688.5"/>
      <point x="113.0" y="648.5" type="curve"/>
      <point x="122.5" y="632.5" type="line"/>
      <point x="193.49999999999997" y="670.0"/>
      <point x="284.0" y="690.5"/>
      <point x="371.5" y="690.5" type="curve" smooth="yes"/>
      <point x="520.5" y="690.5"/>
      <point x="600.5" y="627.5"/>
      <point x="600.5" y="504.0" type="curve" smooth="yes"/>
      <point x="600.5" y="380.5"/>
      <point x="511.5" y="277.5"/>
    </contour>
  </outline>
</glyph>
<glyph name="three" format="2">
  <advance width="798.9999999999999"/>
  <unicode hex="0033"/>
  <outline>
    <contour>
      <point x="35.0" y="71.0" type="line"/>
      <point x="132.0" y="16.0"/>
      <point x="223.5" y="-9.5"/>
      <point x="358.0" y="-9.5" type="curve" smooth="yes"/>
      <point x="588.0" y="-9.5"/>
      <point x="725.5" y="71.0"/>
      <point x="725.5" y="206.5" type="curve" smooth="yes"/>
      <point x="725.5" y="301.5"/>
      <point x="647.5" y="364.5"/>
      <point x="504.0" y="370.5" type="curve"/>
      <point x="608.0" y="385.5"/>
      <point x="667.5" y="444.0"/>
      <point x="667.5" y="531.0" type="curve" smooth="yes"/>
      <point x="667.5" y="643.0"/>
      <point x="574.5" y="710.0"/>
      <point x="372.49999999999994" y="710.0" type="curve" smooth="yes"/>
      <point x="276.5" y="710.0"/>
      <point x="177.49999999999997" y="694.0"/>
      <point x="92.99999999999999" y="670.5" type="curve"/>
      <point x="99.49999999999999" y="653.0" type="line"/>
      <point x="183.49999999999997" y="675.0"/>
      <point x="279.0" y="690.0"/>
      <point x="372.49999999999994" y="690.0" type="curve" smooth="yes"/>
      <point x="560.5" y="690.0"/>
      <point x="647.5" y="631.0"/>
      <point x="647.5" y="530.0" type="curve" smooth="yes"/>
      <point x="647.5" y="434.5"/>
      <point x="564.0" y="379.0"/>
      <point x="414.49999999999994" y="379.0" type="curve" smooth="yes"/>
      <point x="220.99999999999997" y="379.0" type="line"/>
      <point x="220.99999999999997" y="359.0" type="line"/>
      <point x="408.49999999999994" y="359.0" type="line" smooth="yes"/>
      <point x="606.0" y="359.0"/>
      <point x="705.5" y="314.0"/>
      <point x="705.5" y="206.5" type="curve" smooth="yes"/>
      <point x="705.5" y="84.0"/>
      <point x="575.0" y="10.5"/>
      <point x="358.0" y="10.5" type="curve" smooth="yes"/>
      <point x="228.5" y="10.5"/>
      <point x="141.5" y="34.5"/>
      <point x="45.5" y="87.0" type="curve"/>
    </contour>
  </outline>
</glyph>
<glyph name="four" format="2">
  <advance width="798.9999999999999"/>
  <unicode hex="0034"/>
  <outline>
    <contour>
      <point x="40.0" y="206.0" type="line"/>
      <point x="573.5" y="206.0" type="line"/>
      <point x="573.5" y="0.0" type="line"/>
      <point x="593.5" y="0.0" type="line"/>
      <point x="593.5" y="206.0" type="line"/>
      <point x="772.5" y="206.0" type="line"/>
      <point x="772.5" y="226.0" type="line"/>
      <point x="593.5" y="226.0" type="line"/>
      <point x="593.5" y="699.5" type="line"/>
      <point x="579.0" y="708.0" type="line"/>
      <point x="35.0" y="223.0" type="line"/>
    </contour>
    <contour>
      <point x="69.0" y="226.0" type="line"/>
      <point x="573.5" y="673.0" type="line"/>
      <point x="573.5" y="226.0" type="line"/>
    </contour>
  </outline>
</glyph>
<glyph name="five" format="2">
  <advance width="798.8"/>
  <unicode hex="0035"/>
  <outline>
    <contour>
      <point x="58.5" y="72.3" type="line"/>
      <point x="140.0" y="21.0"/>
      <point x="219.29999999999998" y="-9.3"/>
      <point x="377.2" y="-9.3" type="curve" smooth="yes"/>
      <point x="620.2" y="-9.3"/>
      <point x="728.0999999999999" y="71.7"/>
      <point x="728.0999999999999" y="213.0" type="curve" smooth="yes"/>
      <point x="728.0999999999999" y="344.2"/>
      <point x="658.8" y="402.8"/>
      <point x="497.9" y="402.8" type="curve" smooth="yes"/>
      <point x="126.39999999999999" y="402.8" type="line"/>
      <point x="167.39999999999998" y="680.0" type="line"/>
      <point x="677.3" y="680.0" type="line"/>
      <point x="677.3" y="700.0" type="line"/>
      <point x="150.5" y="700.0" type="line"/>
      <point x="105.0" y="393.8" type="line"/>
      <point x="115.0" y="382.8" type="line"/>
      <point x="487.09999999999997" y="382.8" type="line" smooth="yes"/>
      <point x="644.0999999999999" y="382.8"/>
      <point x="708.0999999999999" y="331.9"/>
      <point x="708.0999999999999" y="213.0" type="curve" smooth="yes"/>
      <point x="708.0999999999999" y="82.3"/>
      <point x="611.0" y="10.7"/>
      <point x="377.2" y="10.7" type="curve" smooth="yes"/>
      <point x="222.39999999999998" y="10.7"/>
      <point x="148.6" y="41.6"/>
      <point x="70.3" y="88.5" type="curve"/>
    </contour>
  </outline>
</glyph>
<glyph name="six" format="2">
  <advance width="798.8"/>
  <unicode hex="0036"/>
  <outline>
    <contour>
      <point x="425.79999999999995" y="-10.0" type="curve" smooth="yes"/>
      <point x="632.4" y="-10.0"/>
      <point x="753.5" y="75.8"/>
      <point x="753.5" y="217.8" type="curve" smooth="yes"/>
      <point x="753.5" y="355.5"/>
      <point x="637.0999999999999" y="426.8"/>
      <point x="449.9" y="426.8" type="curve" smooth="yes"/>
      <point x="301.5" y="426.8"/>
      <point x="141.3" y="379.9"/>
      <point x="61.5" y="315.7" type="curve"/>
      <point x="64.0" y="291.6" type="line"/>
      <point x="138.3" y="360.1"/>
      <point x="296.79999999999995" y="407.1"/>
      <point x="449.59999999999997" y="407.1" type="curve" smooth="yes"/>
      <point x="624.8" y="407.1"/>
      <point x="733.5" y="343.2"/>
      <point x="733.5" y="216.9" type="curve" smooth="yes"/>
      <point x="733.5" y="87.2"/>
      <point x="620.8" y="9.4"/>
      <point x="425.5" y="9.4" type="curve" smooth="yes"/>
      <point x="179.1" y="9.4"/>
      <point x="65.7" y="114.7"/>
      <point x="65.7" y="340.8" type="curve" smooth="yes"/>
      <point x="65.7" y="572.0"/>
      <point x="196.0" y="690.6"/>
      <point x="433.0" y="690.6" type="curve" smooth="yes"/>
      <point x="529.0" y="690.6"/>
      <point x="617.5999999999999" y="674.7"/>
      <point x="712.2" y="652.5" type="curve"/>
      <point x="718.9" y="670.7" type="line"/>
      <point x="623.0" y="694.8"/>
      <point x="532.5999999999999" y="710.0"/>
      <point x="433.59999999999997" y="710.0" type="curve" smooth="yes"/>
      <point x="183.0" y="710.0"/>
      <point x="45.7" y="591.4"/>
      <point x="45.7" y="343.1" type="curve" smooth="yes"/>
      <point x="45.7" y="99.9"/>
      <point x="164.2" y="-10.0"/>
    </contour>
  </outline>
</glyph>
<glyph name="seven" format="2">
  <advance width="798.8"/>
  <unicode hex="0037"/>
  <outline>
    <contour>
      <point x="300.1" y="0.0" type="curve"/>
      <point x="320.1" y="0.0" type="line"/>
      <point x="320.4" y="135.3"/>
      <point x="366.9" y="236.1"/>
      <point x="461.09999999999997" y="355.8" type="curve" smooth="yes"/>
      <point x="719.5" y="683.0" type="line"/>
      <point x="719.5" y="700.0" type="line"/>
      <point x="64.3" y="700.0" type="line"/>
      <point x="64.3" y="680.0" type="line"/>
      <point x="691.9" y="680.0" type="line"/>
      <point x="481.4" y="414.3" type="line" smooth="yes"/>
      <point x="338.5" y="233.8"/>
      <point x="300.1" y="143.9"/>
    </contour>
  </outline>
</glyph>
<glyph name="eight" format="2">
  <advance width="798.9999999999999"/>
  <unicode hex="0038"/>
  <outline>
    <contour>
      <point x="529.0" y="361.5" type="curve"/>
      <point x="554.0" y="355.0" type="line"/>
      <point x="676.5" y="401.5"/>
      <point x="725.5" y="462.5"/>
      <point x="725.5" y="540.5" type="curve" smooth="yes"/>
      <point x="725.5" y="653.0"/>
      <point x="618.5" y="710.0"/>
      <point x="404.99999999999994" y="710.0" type="curve" smooth="yes"/>
      <point x="192.0" y="710.0"/>
      <point x="69.5" y="650.5"/>
      <point x="69.5" y="540.5" type="curve" smooth="yes"/>
      <point x="69.5" y="258.5"/>
      <point x="748.5" y="472.5"/>
      <point x="748.5" y="189.0" type="curve" smooth="yes"/>
      <point x="748.5" y="70.5"/>
      <point x="620.5" y="10.0"/>
      <point x="392.5" y="10.0" type="curve" smooth="yes"/>
      <point x="170.5" y="10.0"/>
      <point x="50.0" y="76.5"/>
      <point x="50.0" y="191.5" type="curve" smooth="yes"/>
      <point x="50.0" y="281.0"/>
      <point x="118.5" y="349.5"/>
      <point x="257.5" y="391.0" type="curve"/>
      <point x="228.0" y="398.5" type="line"/>
      <point x="91.0" y="352.0"/>
      <point x="30.0" y="282.5"/>
      <point x="30.0" y="188.5" type="curve" smooth="yes"/>
      <point x="30.0" y="62.0"/>
      <point x="156.0" y="-10.0"/>
      <point x="392.5" y="-10.0" type="curve" smooth="yes"/>
      <point x="632.5" y="-10.0"/>
      <point x="768.5" y="58.5"/>
      <point x="768.5" y="189.5" type="curve" smooth="yes"/>
      <point x="768.5" y="494.5"/>
      <point x="89.5" y="280.5"/>
      <point x="89.5" y="543.0" type="curve" smooth="yes"/>
      <point x="89.5" y="638.0"/>
      <point x="204.0" y="690.5"/>
      <point x="404.99999999999994" y="690.5" type="curve" smooth="yes"/>
      <point x="606.5" y="690.5"/>
      <point x="705.5" y="640.5"/>
      <point x="705.5" y="540.0" type="curve" smooth="yes"/>
      <point x="705.5" y="467.0"/>
      <point x="662.5" y="414.0"/>
    </contour>
  </outline>
</glyph>
<glyph name="nine" format="2">
  <advance width="798.8"/>
  <unicode hex="0039"/>
  <outline>
    <contour>
      <point x="361.2" y="-10.0" type="curve" smooth="yes"/>
      <point x="611.8" y="-10.0"/>
      <point x="747.9" y="108.6"/>
      <point x="747.9" y="356.9" type="curve" smooth="yes"/>
      <point x="747.9" y="600.1"/>
      <point x="629.4" y="710.0"/>
      <point x="395.79999999999995" y="710.0" type="curve" smooth="yes"/>
      <point x="178.0" y="710.0"/>
      <point x="40.099999999999994" y="628.4"/>
      <point x="40.099999999999994" y="482.9" type="curve" smooth="yes"/>
      <point x="40.099999999999994" y="348.7"/>
      <point x="159.3" y="273.2"/>
      <point x="343.7" y="273.2" type="curve" smooth="yes"/>
      <point x="492.09999999999997" y="273.2"/>
      <point x="652.3" y="320.7"/>
      <point x="732.1" y="384.9" type="curve"/>
      <point x="731.4" y="412.0" type="line"/>
      <point x="656.2" y="339.6"/>
      <point x="496.79999999999995" y="292.9"/>
      <point x="344.0" y="292.9" type="curve" smooth="yes"/>
      <point x="178.6" y="292.9"/>
      <point x="60.099999999999994" y="361.0"/>
      <point x="60.099999999999994" y="483.8" type="curve" smooth="yes"/>
      <point x="60.099999999999994" y="617.0"/>
      <point x="189.6" y="690.6"/>
      <point x="396.09999999999997" y="690.6" type="curve" smooth="yes"/>
      <point x="614.5" y="690.6"/>
      <point x="727.9" y="585.3"/>
      <point x="727.9" y="359.2" type="curve" smooth="yes"/>
      <point x="727.9" y="128.0"/>
      <point x="598.8" y="9.4"/>
      <point x="361.79999999999995" y="9.4" type="curve" smooth="yes"/>
      <point x="265.79999999999995" y="9.4"/>
      <point x="176.0" y="25.3"/>
      <point x="81.4" y="47.5" type="curve"/>
      <point x="74.69999999999999" y="29.3" type="line"/>
      <point x="170.6" y="5.199999999999999"/>
      <point x="262.2" y="-10.0"/>
    </contour>
  </outline>
</glyph>
<glyph name="less" format="2">
  <advance width="503.0"/>
  <unicode hex="003C"/>
  <outline>
    <contour>
      <point x="446.9" y="75.0" type="line"/>
      <point x="446.9" y="97.6" type="line"/>
      <point x="77.5" y="289.3" type="line"/>
      <point x="446.9" y="482.7" type="line"/>
      <point x="446.9" y="504.0" type="line"/>
      <point x="56.099999999999994" y="299.3" type="line"/>
      <point x="56.099999999999994" y="279.3" type="line"/>
    </contour>
  </outline>
</glyph>
<glyph name="equal" format="2">
  <advance width="503.0"/>
  <unicode hex="003D"/>
  <outline>
    <contour>
      <point x="447.2" y="197.0" type="line"/>
      <point x="55.8" y="197.0" type="line"/>
      <point x="55.8" y="177.0" type="line"/>
      <point x="447.2" y="177.0" type="line"/>
    </contour>
    <contour>
      <point x="447.2" y="404.0" type="line"/>
      <point x="55.8" y="404.0" type="line"/>
      <point x="55.8" y="384.0" type="line"/>
      <point x="447.2" y="384.0" type="line"/>
    </contour>
  </outline>
</glyph>
<glyph name="greater" format="2">
  <advance width="503.0"/>
  <unicode hex="003E"/>
  <outline>
    <contour>
      <point x="446.9" y="279.0" type="line"/>
      <point x="446.9" y="299.0" type="line"/>
      <point x="56.099999999999994" y="504.0" type="line"/>
      <point x="56.099999999999994" y="481.4" type="line"/>
      <point x="425.5" y="289.0" type="line"/>
      <point x="56.099999999999994" y="97.0" type="line"/>
      <point x="56.099999999999994" y="75.0" type="line"/>
    </contour>
  </outline>
</glyph>
<glyph name="question" format="2">
  <advance width="540.8"/>
  <unicode hex="003F"/>
  <outline>
    <contour>
      <point x="236.5" y="261.9" type="line"/>
      <point x="256.5" y="261.9" type="line"/>
      <point x="256.5" y="331.5" type="line"/>
      <point x="419.7" y="385.2"/>
      <point x="502.29999999999995" y="439.4"/>
      <point x="502.29999999999995" y="554.9" type="curve" smooth="yes"/>
      <point x="502.29999999999995" y="703.0"/>
      <point x="377.9" y="750.0"/>
      <point x="270.6" y="750.0" type="curve" smooth="yes"/>
      <point x="181.39999999999998" y="750.0"/>
      <point x="84.4" y="726.9"/>
      <point x="10.8" y="678.1" type="curve"/>
      <point x="21.4" y="661.6" type="line"/>
      <point x="94.5" y="709.3"/>
      <point x="187.2" y="730.3"/>
      <point x="270.6" y="730.3" type="curve" smooth="yes"/>
      <point x="368.79999999999995" y="730.3"/>
      <point x="482.0" y="684.6"/>
      <point x="482.0" y="555.5" type="curve" smooth="yes"/>
      <point x="482.0" y="464.2"/>
      <point x="417.4" y="395.9"/>
      <point x="236.5" y="345.4" type="curve"/>
    </contour>
    <contour>
      <point x="235.0" y="17.0" type="curve" smooth="yes"/>
      <point x="235.0" y="1.0"/>
      <point x="237.29999999999998" y="0.0"/>
      <point x="251.39999999999998" y="0.0" type="curve" smooth="yes"/>
      <point x="266.5" y="0.0"/>
      <point x="267.5" y="1.0"/>
      <point x="267.5" y="17.0" type="curve" smooth="yes"/>
      <point x="267.5" y="33.0"/>
      <point x="266.5" y="34.0"/>
      <point x="251.39999999999998" y="34.0" type="curve" smooth="yes"/>
      <point x="236.0" y="34.0"/>
      <point x="235.0" y="33.0"/>
    </contour>
  </outline>
</glyph>
<glyph name="at" format="2">
  <advance width="937.3"/>
  <unicode hex="0040"/>
  <outline>
    <contour>
      <point x="460.09999999999997" y="-123.0" type="curve" smooth="yes"/>
      <point x="564.4" y="-123.0"/>
      <point x="662.3" y="-90.7"/>
      <point x="731.2" y="-49.6" type="curve"/>
      <point x="722.0999999999999" y="-34.3" type="line"/>
      <point x="654.4" y="-74.4"/>
      <point x="562.7" y="-103.6"/>
      <point x="460.09999999999997" y="-103.6" type="curve" smooth="yes"/>
      <point x="236.29999999999998" y="-103.6"/>
      <point x="91.9" y="24.799999999999997"/>
      <point x="91.9" y="270.8" type="curve" smooth="yes"/>
      <point x="91.9" y="507.0"/>
      <point x="219.2" y="690.9"/>
      <point x="478.79999999999995" y="690.9" type="curve" smooth="yes"/>
      <point x="724.5999999999999" y="690.9"/>
      <point x="848.1999999999999" y="565.0"/>
      <point x="848.1999999999999" y="343.5" type="curve" smooth="yes"/>
      <point x="848.1999999999999" y="211.2"/>
      <point x="799.3" y="92.5"/>
      <point x="726.9" y="92.5" type="curve" smooth="yes"/>
      <point x="666.9" y="92.5"/>
      <point x="638.8" y="135.7"/>
      <point x="645.0999999999999" y="258.6" type="curve" smooth="yes"/>
      <point x="658.0999999999999" y="498.3" type="line"/>
      <point x="596.0" y="513.5"/>
      <point x="543.5" y="521.9"/>
      <point x="497.79999999999995" y="521.9" type="curve" smooth="yes"/>
      <point x="332.29999999999995" y="521.9"/>
      <point x="256.1" y="392.9"/>
      <point x="256.1" y="268.6" type="curve" smooth="yes"/>
      <point x="256.1" y="137.5"/>
      <point x="319.79999999999995" y="76.2"/>
      <point x="405.79999999999995" y="76.2" type="curve" smooth="yes"/>
      <point x="500.09999999999997" y="76.2"/>
      <point x="587.8" y="142.5"/>
      <point x="627.7" y="285.9" type="curve"/>
      <point x="619.3" y="157.3"/>
      <point x="632.0" y="73.2"/>
      <point x="726.2" y="73.2" type="curve" smooth="yes"/>
      <point x="813.5" y="73.2"/>
      <point x="867.5" y="200.5"/>
      <point x="867.5" y="343.5" type="curve" smooth="yes"/>
      <point x="867.5" y="580.7"/>
      <point x="736.9" y="709.3"/>
      <point x="478.79999999999995" y="709.3" type="curve" smooth="yes"/>
      <point x="206.2" y="709.3"/>
      <point x="71.9" y="517.0"/>
      <point x="71.9" y="270.8" type="curve" smooth="yes"/>
      <point x="71.9" y="12.799999999999997"/>
      <point x="223.89999999999998" y="-123.0"/>
    </contour>
    <contour>
      <point x="406.4" y="95.5" type="curve" smooth="yes"/>
      <point x="333.9" y="95.5"/>
      <point x="276.1" y="149.5"/>
      <point x="276.1" y="268.6" type="curve" smooth="yes"/>
      <point x="276.1" y="380.6"/>
      <point x="348.1" y="502.2"/>
      <point x="496.79999999999995" y="502.2" type="curve" smooth="yes"/>
      <point x="533.5999999999999" y="502.2"/>
      <point x="592.0999999999999" y="493.3"/>
      <point x="638.0999999999999" y="482.9" type="curve"/>
      <point x="634.5" y="416.0" type="line" smooth="yes"/>
      <point x="607.8" y="177.8"/>
      <point x="504.7" y="95.5"/>
    </contour>
  </outline>
</glyph>
<glyph name="A" format="2">
  <advance width="751.5999999999999"/>
  <unicode hex="0041"/>
  <anchor x="738.5999999999999" y="0.0" name="ogonek"/>
  <anchor x="376.1" y="0.0" name="bottom"/>
  <anchor x="376.1" y="700.0" name="top"/>
  <outline>
    <contour>
      <point x="13.0" y="0.0" type="line"/>
      <point x="34.4" y="0.0" type="line"/>
      <point x="145.7" y="221.7" type="line"/>
      <point x="604.8" y="221.7" type="line"/>
      <point x="716.5" y="0.0" type="line"/>
      <point x="738.5999999999999" y="0.0" type="line"/>
      <point x="380.6" y="710.0" type="line"/>
      <point x="370.2" y="710.0" type="line"/>
    </contour>
    <contour>
      <point x="155.7" y="240.7" type="line"/>
      <point x="374.7" y="672.5" type="line"/>
      <point x="595.5" y="240.7" type="line"/>
    </contour>
  </outline>
</glyph>
<glyph name="B" format="2">
  <advance width="806.5"/>
  <unicode hex="0042"/>
  <anchor x="416.0" y="700.0" name="top"/>
  <anchor x="416.0" y="0.0" name="bottom"/>
  <outline>
    <contour>
      <point x="112.3" y="1.6999999999999993" type="line"/>
      <point x="261.0" y="-7.6"/>
      <point x="337.4" y="-10.0"/>
      <point x="440.2" y="-10.0" type="curve" smooth="yes"/>
      <point x="670.5999999999999" y="-10.0"/>
      <point x="761.1" y="48.2"/>
      <point x="761.1" y="190.1" type="curve" smooth="yes"/>
      <point x="761.1" y="287.9"/>
      <point x="690.7" y="352.6"/>
      <point x="576.4" y="367.5" type="curve"/>
      <point x="576.4" y="369.2" type="line"/>
      <point x="660.2" y="388.1"/>
      <point x="712.9" y="453.2"/>
      <point x="712.9" y="538.2" type="curve" smooth="yes"/>
      <point x="712.9" y="662.0"/>
      <point x="635.4" y="710.0"/>
      <point x="425.5" y="710.0" type="curve" smooth="yes"/>
      <point x="342.1" y="710.0"/>
      <point x="267.2" y="706.6"/>
      <point x="112.3" y="697.7" type="curve"/>
    </contour>
    <contour>
      <point x="132.3" y="375.2" type="line"/>
      <point x="132.3" y="680.3" type="line"/>
      <point x="294.4" y="689.6"/>
      <point x="308.4" y="690.6"/>
      <point x="411.09999999999997" y="690.6" type="curve" smooth="yes"/>
      <point x="616.9" y="690.6"/>
      <point x="692.9" y="647.7"/>
      <point x="692.9" y="538.2" type="curve" smooth="yes"/>
      <point x="692.9" y="440.8"/>
      <point x="615.7" y="375.2"/>
      <point x="494.7" y="375.2" type="curve" smooth="yes"/>
    </contour>
    <contour>
      <point x="132.3" y="20.4" type="curve"/>
      <point x="132.3" y="355.2" type="line"/>
      <point x="504.0" y="355.2" type="line" smooth="yes"/>
      <point x="654.9" y="355.2"/>
      <point x="741.1" y="295.8"/>
      <point x="741.1" y="189.0" type="curve" smooth="yes"/>
      <point x="741.1" y="57.9"/>
      <point x="656.8" y="9.0"/>
      <point x="433.29999999999995" y="9.0" type="curve" smooth="yes"/>
      <point x="354.7" y="9.0"/>
      <point x="301.29999999999995" y="11.4"/>
    </contour>
  </outline>
</glyph>
<glyph name="C" format="2">
  <advance width="818.1999999999999"/>
  <unicode hex="0043"/>
  <anchor x="460.0" y="700.0" name="top"/>
  <anchor x="459.7" y="0.0" name="bottom"/>
  <outline>
    <contour>
      <point x="72.8" y="336.7" type="curve" smooth="yes"/>
      <point x="72.8" y="95.3"/>
      <point x="213.6" y="-10.0"/>
      <point x="463.4" y="-10.0" type="curve" smooth="yes"/>
      <point x="574.2" y="-10.0"/>
      <point x="684.3" y="3.8999999999999986"/>
      <point x="773.0" y="30.9" type="curve"/>
      <point x="767.5999999999999" y="50.599999999999994" type="line"/>
      <point x="680.0999999999999" y="23.9"/>
      <point x="570.5" y="9.4"/>
      <point x="463.7" y="9.4" type="curve" smooth="yes"/>
      <point x="226.29999999999998" y="9.4"/>
      <point x="92.8" y="110.69999999999999"/>
      <point x="92.8" y="336.7" type="curve" smooth="yes"/>
      <point x="92.8" y="580.6"/>
      <point x="234.0" y="690.3"/>
      <point x="479.59999999999997" y="690.3" type="curve" smooth="yes"/>
      <point x="579.5999999999999" y="690.3"/>
      <point x="650.9" y="682.0"/>
      <point x="735.0" y="659.2" type="curve"/>
      <point x="740.4" y="678.6" type="line"/>
      <point x="655.7" y="701.7"/>
      <point x="582.8" y="710.0"/>
      <point x="479.29999999999995" y="710.0" type="curve" smooth="yes"/>
      <point x="218.89999999999998" y="710.0"/>
      <point x="72.8" y="589.1"/>
    </contour>
  </outline>
</glyph>
<glyph name="D" format="2">
  <advance width="892.5"/>
  <unicode hex="0044"/>
  <anchor x="437.7" y="700.0" name="top"/>
  <outline>
    <contour>
      <point x="408.2" y="-10.0" type="curve" smooth="yes"/>
      <point x="668.5999999999999" y="-10.0"/>
      <point x="819.6999999999999" y="103.3"/>
      <point x="819.6999999999999" y="344.4" type="curve" smooth="yes"/>
      <point x="819.6999999999999" y="597.7"/>
      <point x="683.3" y="710.0"/>
      <point x="393.79999999999995" y="710.0" type="curve" smooth="yes"/>
      <point x="309.5" y="710.0"/>
      <point x="220.1" y="707.3"/>
      <point x="112.3" y="701.2" type="curve"/>
      <point x="112.3" y="-1.8000000000000007" type="line"/>
      <point x="221.89999999999998" y="-5.5"/>
      <point x="334.0" y="-10.0"/>
    </contour>
    <contour>
      <point x="397.59999999999997" y="9.4" type="curve" smooth="yes"/>
      <point x="342.9" y="9.4"/>
      <point x="201.1" y="13.2"/>
      <point x="132.3" y="17.3" type="curve"/>
      <point x="132.3" y="682.4" type="line"/>
      <point x="218.7" y="687.2"/>
      <point x="329.5" y="690.3"/>
      <point x="384.5" y="690.3" type="curve" smooth="yes"/>
      <point x="667.3" y="690.3"/>
      <point x="798.6999999999999" y="587.7"/>
      <point x="798.6999999999999" y="345.1" type="curve" smooth="yes"/>
      <point x="798.6999999999999" y="114.4"/>
      <point x="656.0" y="9.4"/>
    </contour>
  </outline>
</glyph>
<glyph name="E" format="2">
  <advance width="739.5"/>
  <unicode hex="0045"/>
  <anchor x="699.0999999999999" y="0.0" name="ogonek"/>
  <anchor x="406.2" y="0.0" name="bottom"/>
  <anchor x="397.0" y="700.0" name="top"/>
  <outline>
    <contour>
      <point x="112.3" y="0.0" type="line"/>
      <point x="699.0999999999999" y="0.0" type="line"/>
      <point x="699.0999999999999" y="20.0" type="line"/>
      <point x="132.3" y="20.0" type="line"/>
      <point x="132.3" y="367.3" type="line"/>
      <point x="648.9" y="367.3" type="line"/>
      <point x="648.9" y="387.0" type="line"/>
      <point x="132.3" y="387.0" type="line"/>
      <point x="132.3" y="680.0" type="line"/>
      <point x="675.8" y="680.0" type="line"/>
      <point x="675.8" y="700.0" type="line"/>
      <point x="112.3" y="700.0" type="line"/>
    </contour>
  </outline>
</glyph>
<glyph name="F" format="2">
  <advance width="704.3"/>
  <unicode hex="0046"/>
  <outline>
    <contour>
      <point x="112.3" y="0.0" type="line"/>
      <point x="132.3" y="0.0" type="line"/>
      <point x="132.3" y="317.1" type="line"/>
      <point x="614.5" y="317.1" type="line"/>
      <point x="614.5" y="336.8" type="line"/>
      <point x="132.3" y="336.8" type="line"/>
      <point x="132.3" y="680.0" type="line"/>
      <point x="675.8" y="680.0" type="line"/>
      <point x="675.8" y="700.0" type="line"/>
      <point x="112.3" y="700.0" type="line"/>
    </contour>
  </outline>
</glyph>
<glyph name="G" format="2">
  <advance width="867.1999999999999"/>
  <unicode hex="0047"/>
  <anchor x="446.0" y="700.0" name="top"/>
  <anchor x="452.2" y="0.0" name="bottom"/>
  <outline>
    <contour>
      <point x="72.8" y="336.7" type="curve" smooth="yes"/>
      <point x="72.8" y="111.1"/>
      <point x="207.1" y="-10.0"/>
      <point x="444.5" y="-10.0" type="curve" smooth="yes"/>
      <point x="575.4" y="-10.0"/>
      <point x="697.9" y="7.699999999999999"/>
      <point x="776.8" y="40.0" type="curve"/>
      <point x="776.8" y="318.7" type="line"/>
      <point x="457.2" y="318.7" type="line"/>
      <point x="457.2" y="299.0" type="line"/>
      <point x="756.8" y="299.0" type="line"/>
      <point x="756.8" y="54.0" type="line"/>
      <point x="670.9" y="23.7"/>
      <point x="568.7" y="9.4"/>
      <point x="444.79999999999995" y="9.4" type="curve" smooth="yes"/>
      <point x="221.29999999999998" y="9.4"/>
      <point x="92.8" y="124.1"/>
      <point x="92.8" y="336.7" type="curve" smooth="yes"/>
      <point x="92.8" y="562.3"/>
      <point x="227.6" y="690.3"/>
      <point x="456.5" y="690.3" type="curve" smooth="yes"/>
      <point x="555.8" y="690.3"/>
      <point x="646.7" y="677.8"/>
      <point x="736.4" y="650.1" type="curve"/>
      <point x="741.8" y="668.1" type="line"/>
      <point x="658.0" y="695.8"/>
      <point x="560.5999999999999" y="710.0"/>
      <point x="456.2" y="710.0" type="curve" smooth="yes"/>
      <point x="214.7" y="710.0"/>
      <point x="72.8" y="574.3"/>
    </contour>
  </outline>
</glyph>
<glyph name="H" format="2">
  <advance width="924.6999999999999"/>
  <unicode hex="0048"/>
  <anchor x="462.7" y="700.0" name="top"/>
  <outline>
    <contour>
      <point x="112.3" y="0.0" type="line"/>
      <point x="132.3" y="0.0" type="line"/>
      <point x="132.3" y="290.3" type="line"/>
      <point x="792.4" y="290.3" type="line"/>
      <point x="792.4" y="0.0" type="line"/>
      <point x="812.4" y="0.0" type="line"/>
      <point x="812.4" y="700.0" type="line"/>
      <point x="792.4" y="700.0" type="line"/>
      <point x="792.4" y="310.0" type="line"/>
      <point x="132.3" y="310.0" type="line"/>
      <point x="132.3" y="700.0" type="line"/>
      <point x="112.3" y="700.0" type="line"/>
    </contour>
  </outline>
</glyph>
<glyph name="I" format="2">
  <advance width="244.6"/>
  <unicode hex="0049"/>
  <anchor x="132.3" y="0.0" name="ogonek"/>
  <anchor x="122.3" y="0.0" name="bottom"/>
  <anchor x="122.3" y="700.0" name="top"/>
  <outline>
    <contour>
      <point x="112.3" y="0.0" type="line"/>
      <point x="132.3" y="0.0" type="line"/>
      <point x="132.3" y="700.0" type="line"/>
      <point x="112.3" y="700.0" type="line"/>
    </contour>
  </outline>
</glyph>
<glyph name="J" format="2">
  <advance width="602.4"/>
  <unicode hex="004A"/>
  <anchor x="294.5" y="700.0" name="top"/>
  <outline>
    <contour>
      <point x="21.799999999999997" y="27.099999999999998" type="line"/>
      <point x="91.89999999999999" y="3.1999999999999993"/>
      <point x="185.39999999999998" y="-10.7"/>
      <point x="255.7" y="-10.7" type="curve" smooth="yes"/>
      <point x="422.7" y="-10.7"/>
      <point x="512.5999999999999" y="66.1"/>
      <point x="512.5999999999999" y="231.89999999999998" type="curve" smooth="yes"/>
      <point x="512.5999999999999" y="700.0" type="line"/>
      <point x="78.69999999999999" y="700.0" type="line"/>
      <point x="78.69999999999999" y="680.3" type="line"/>
      <point x="492.59999999999997" y="680.3" type="line"/>
      <point x="492.59999999999997" y="231.0" type="line" smooth="yes"/>
      <point x="492.59999999999997" y="73.5"/>
      <point x="404.7" y="9.0"/>
      <point x="255.7" y="9.0" type="curve" smooth="yes"/>
      <point x="187.5" y="9.0"/>
      <point x="97.69999999999999" y="22.6"/>
      <point x="27.5" y="46.5" type="curve"/>
    </contour>
  </outline>
</glyph>
<glyph name="K" format="2">
  <advance width="818.4999999999999"/>
  <unicode hex="004B"/>
  <anchor x="409.49999999999994" y="700.0" name="top"/>
  <anchor x="389.0" y="0.0" name="bottom"/>
  <outline>
    <contour>
      <point x="787.4999999999999" y="-10.0" type="curve" smooth="yes"/>
      <point x="790.9999999999999" y="-10.0"/>
      <point x="797.4999999999999" y="-10.0"/>
      <point x="803.4999999999999" y="-8.5" type="curve"/>
      <point x="803.4999999999999" y="11.5" type="line"/>
      <point x="798.9999999999999" y="10.5"/>
      <point x="793.9999999999999" y="10.5"/>
      <point x="790.4999999999999" y="10.5" type="curve" smooth="yes"/>
      <point x="725.0" y="12.5"/>
      <point x="677.0" y="40.5"/>
      <point x="547.5" y="136.0" type="curve" smooth="yes"/>
      <point x="132.5" y="442.5" type="line"/>
      <point x="132.5" y="700.0" type="line"/>
      <point x="112.49999999999999" y="700.0" type="line"/>
      <point x="112.49999999999999" y="0.0" type="line"/>
      <point x="132.5" y="0.0" type="line"/>
      <point x="132.5" y="415.5" type="line"/>
      <point x="533.5" y="120.0" type="line" smooth="yes"/>
      <point x="657.5" y="29.0"/>
      <point x="716.5" y="-10.0"/>
    </contour>
    <contour>
      <point x="279.5" y="317.5" type="line"/>
      <point x="423.99999999999994" y="386.0"/>
      <point x="654.0" y="511.5"/>
      <point x="764.5" y="695.0" type="curve"/>
      <point x="747.5" y="705.0" type="line"/>
      <point x="636.0" y="522.0"/>
      <point x="403.49999999999994" y="399.0"/>
      <point x="264.0" y="332.0" type="curve"/>
    </contour>
  </outline>
</glyph>
<glyph name="L" format="2">
  <advance width="670.7"/>
  <unicode hex="004C"/>
  <anchor x="335.7" y="350.0" name="center"/>
  <anchor x="122.3" y="700.0" name="top"/>
  <anchor x="435.2" y="700.0" name="topright"/>
  <anchor x="371.0" y="0.0" name="bottom"/>
  <outline>
    <contour>
      <point x="112.3" y="0.0" type="line"/>
      <point x="649.2" y="0.0" type="line"/>
      <point x="649.2" y="19.7" type="line"/>
      <point x="132.3" y="19.7" type="line"/>
      <point x="132.3" y="700.0" type="line"/>
      <point x="112.3" y="700.0" type="line"/>
    </contour>
  </outline>
</glyph>
<glyph name="M" format="2">
  <advance width="1046.5"/>
  <unicode hex="004D"/>
  <outline>
    <contour>
      <point x="112.49999999999999" y="0.0" type="line"/>
      <point x="132.5" y="0.0" type="line"/>
      <point x="132.5" y="670.0" type="line"/>
      <point x="518.0" y="288.0" type="line"/>
      <point x="528.0" y="288.0" type="line"/>
      <point x="913.9999999999999" y="670.0" type="line"/>
      <point x="913.9999999999999" y="0.0" type="line"/>
      <point x="933.9999999999999" y="0.0" type="line"/>
      <point x="933.9999999999999" y="700.0" type="line"/>
      <point x="914.9999999999999" y="700.0" type="line"/>
      <point x="523.5" y="311.0" type="line"/>
      <point x="131.5" y="700.0" type="line"/>
      <point x="112.49999999999999" y="700.0" type="line"/>
    </contour>
  </outline>
</glyph>
<glyph name="N" format="2">
  <advance width="923.4999999999999"/>
  <unicode hex="004E"/>
  <anchor x="461.99999999999994" y="700.0" name="top"/>
  <anchor x="461.99999999999994" y="0.0" name="bottom"/>
  <outline>
    <contour>
      <point x="112.49999999999999" y="0.0" type="line"/>
      <point x="132.5" y="0.0" type="line"/>
      <point x="132.5" y="675.0" type="line"/>
      <point x="791.9999999999999" y="0.0" type="line"/>
      <point x="810.9999999999999" y="0.0" type="line"/>
      <point x="810.9999999999999" y="700.0" type="line"/>
      <point x="790.9999999999999" y="700.0" type="line"/>
      <point x="790.9999999999999" y="31.000000000000004" type="line"/>
      <point x="131.0" y="707.0" type="line"/>
      <point x="112.49999999999999" y="707.0" type="line"/>
    </contour>
  </outline>
</glyph>
<glyph name="O" format="2">
  <advance width="970.0"/>
  <unicode hex="004F"/>
  <anchor x="530.5" y="0.0" name="ogonek"/>
  <anchor x="483.49999999999994" y="700.0" name="top"/>
  <anchor x="722.5" y="667.5" name="topright"/>
  <anchor x="483.49999999999994" y="0.0" name="bottom"/>
  <outline>
    <contour>
      <point x="483.49999999999994" y="9.5" type="curve" smooth="yes"/>
      <point x="304.0" y="9.5"/>
      <point x="93.0" y="76.5"/>
      <point x="93.0" y="349.5" type="curve" smooth="yes"/>
      <point x="93.0" y="632.0"/>
      <point x="304.0" y="690.5"/>
      <point x="483.49999999999994" y="690.5" type="curve" smooth="yes"/>
      <point x="664.0" y="690.5"/>
      <point x="875.9999999999999" y="633.0"/>
      <point x="875.9999999999999" y="349.5" type="curve" smooth="yes"/>
      <point x="875.9999999999999" y="66.5"/>
      <point x="664.0" y="9.5"/>
    </contour>
    <contour>
      <point x="483.49999999999994" y="-10.0" type="curve" smooth="yes"/>
      <point x="681.0" y="-10.0"/>
      <point x="896.9999999999999" y="52.0"/>
      <point x="896.9999999999999" y="353.0" type="curve" smooth="yes"/>
      <point x="896.9999999999999" y="648.0"/>
      <point x="672.5" y="710.0"/>
      <point x="483.49999999999994" y="710.0" type="curve" smooth="yes"/>
      <point x="292.0" y="710.0"/>
      <point x="73.0" y="645.5"/>
      <point x="73.0" y="349.5" type="curve" smooth="yes"/>
      <point x="73.0" y="64.0"/>
      <point x="292.0" y="-10.0"/>
    </contour>
  </outline>
</glyph>
<glyph name="P" format="2">
  <advance width="801.0"/>
  <unicode hex="0050"/>
  <outline>
    <contour>
      <point x="112.3" y="0.0" type="line"/>
      <point x="132.3" y="0.0" type="line"/>
      <point x="132.3" y="263.5" type="line"/>
      <point x="248.7" y="260.4"/>
      <point x="312.7" y="259.7"/>
      <point x="405.7" y="259.7" type="curve" smooth="yes"/>
      <point x="652.8" y="259.7"/>
      <point x="748.6" y="314.0"/>
      <point x="748.6" y="491.7" type="curve" smooth="yes"/>
      <point x="748.6" y="648.3"/>
      <point x="680.8" y="710.0"/>
      <point x="389.09999999999997" y="710.0" type="curve" smooth="yes"/>
      <point x="338.6" y="710.0"/>
      <point x="274.9" y="708.0"/>
      <point x="112.3" y="701.2" type="curve"/>
    </contour>
    <contour>
      <point x="132.3" y="682.4" type="line"/>
      <point x="281.29999999999995" y="688.9"/>
      <point x="339.0" y="690.6"/>
      <point x="389.4" y="690.6" type="curve" smooth="yes"/>
      <point x="662.7" y="690.6"/>
      <point x="728.6" y="634.0"/>
      <point x="728.6" y="490.8" type="curve" smooth="yes"/>
      <point x="728.6" y="335.8"/>
      <point x="653.4" y="279.7"/>
      <point x="406.0" y="279.7" type="curve" smooth="yes"/>
      <point x="299.0" y="279.7"/>
      <point x="243.29999999999998" y="281.8"/>
      <point x="132.3" y="284.2" type="curve"/>
    </contour>
  </outline>
</glyph>
<glyph name="Q" format="2">
  <advance width="970.0"/>
  <unicode hex="0051"/>
  <outline>
    <contour>
      <point x="544.0" y="8.881784197001252e-16" type="curve"/>
      <point x="523.5" y="-1.9999999999999996" type="line"/>
      <point x="573.5" y="-130.0"/>
      <point x="632.5" y="-208.5"/>
      <point x="730.0" y="-208.5" type="curve" smooth="yes"/>
      <point x="764.0" y="-208.5"/>
      <point x="804.4999999999999" y="-199.5"/>
      <point x="849.9999999999999" y="-179.0" type="curve"/>
      <point x="842.4999999999999" y="-161.5" type="line"/>
      <point x="800.4999999999999" y="-180.5"/>
      <point x="763.0" y="-189.0"/>
      <point x="731.0" y="-189.0" type="curve" smooth="yes"/>
      <point x="643.5" y="-189.0"/>
      <point x="590.5" y="-120.5"/>
    </contour>
    <component base="O"/>
  </outline>
</glyph>
<glyph name="R" format="2">
  <advance width="873.4999999999999"/>
  <unicode hex="0052"/>
  <anchor x="399.49999999999994" y="700.0" name="top"/>
  <anchor x="421.49999999999994" y="0.0" name="bottom"/>
  <outline>
    <contour>
      <point x="855.9999999999999" y="-10.0" type="curve" smooth="yes"/>
      <point x="860.4999999999999" y="-10.0"/>
      <point x="866.9999999999999" y="-9.0"/>
      <point x="871.9999999999999" y="-8.0" type="curve"/>
      <point x="870.9999999999999" y="11.5" type="line"/>
      <point x="866.4999999999999" y="10.5"/>
      <point x="858.9999999999999" y="10.0"/>
      <point x="855.9999999999999" y="10.0" type="curve" smooth="yes"/>
      <point x="783.9999999999999" y="10.0"/>
      <point x="645.5" y="116.0"/>
      <point x="500.0" y="311.0" type="curve"/>
      <point x="654.0" y="324.0"/>
      <point x="734.0" y="375.5"/>
      <point x="734.0" y="514.0" type="curve" smooth="yes"/>
      <point x="734.0" y="668.0"/>
      <point x="636.0" y="709.5"/>
      <point x="366.0" y="709.5" type="curve" smooth="yes"/>
      <point x="265.0" y="709.5"/>
      <point x="208.49999999999997" y="708.0"/>
      <point x="112.49999999999999" y="702.5" type="curve"/>
      <point x="112.49999999999999" y="0.0" type="line"/>
      <point x="132.5" y="0.0" type="line"/>
      <point x="132.5" y="310.0" type="line"/>
      <point x="226.99999999999997" y="307.5"/>
      <point x="314.0" y="306.0"/>
      <point x="398.49999999999994" y="306.0" type="curve" smooth="yes"/>
      <point x="424.99999999999994" y="306.0"/>
      <point x="450.99999999999994" y="306.5"/>
      <point x="477.5" y="307.5" type="curve"/>
      <point x="625.0" y="107.5"/>
      <point x="767.9999999999999" y="-10.0"/>
    </contour>
    <contour>
      <point x="398.99999999999994" y="326.0" type="curve" smooth="yes"/>
      <point x="314.5" y="326.0"/>
      <point x="227.99999999999997" y="327.5"/>
      <point x="132.5" y="330.0" type="curve"/>
      <point x="132.5" y="684.5" type="line"/>
      <point x="225.99999999999997" y="689.5"/>
      <point x="267.0" y="690.0"/>
      <point x="366.5" y="690.0" type="curve" smooth="yes"/>
      <point x="625.5" y="690.0"/>
      <point x="714.0" y="650.0"/>
      <point x="714.0" y="513.5" type="curve" smooth="yes"/>
      <point x="714.0" y="374.5"/>
      <point x="633.5" y="326.0"/>
    </contour>
  </outline>
</glyph>
<glyph name="S" format="2">
  <advance width="747.5"/>
  <unicode hex="0053"/>
  <anchor x="374.5" y="700.0" name="top"/>
  <anchor x="374.5" y="0.0" name="bottom"/>
  <outline>
    <contour>
      <point x="639.5" y="671.5" type="line"/>
      <point x="570.5" y="693.0"/>
      <point x="460.49999999999994" y="710.0"/>
      <point x="385.0" y="710.0" type="curve" smooth="yes"/>
      <point x="185.0" y="710.0"/>
      <point x="73.0" y="642.5"/>
      <point x="73.0" y="533.0" type="curve" smooth="yes"/>
      <point x="73.0" y="415.0"/>
      <point x="194.49999999999997" y="380.0"/>
      <point x="381.5" y="340.5" type="curve" smooth="yes"/>
      <point x="555.0" y="303.5"/>
      <point x="669.0" y="271.0"/>
      <point x="669.0" y="169.5" type="curve" smooth="yes"/>
      <point x="669.0" y="63.5"/>
      <point x="565.0" y="10.0"/>
      <point x="366.5" y="10.0" type="curve" smooth="yes"/>
      <point x="251.49999999999997" y="10.0"/>
      <point x="97.0" y="44.99999999999999"/>
      <point x="49.0" y="61.99999999999999" type="curve"/>
      <point x="42.0" y="42.49999999999999" type="line"/>
      <point x="89.0" y="26.0"/>
      <point x="249.0" y="-10.0"/>
      <point x="366.5" y="-10.0" type="curve" smooth="yes"/>
      <point x="578.5" y="-10.0"/>
      <point x="689.5" y="51.0"/>
      <point x="689.5" y="170.5" type="curve" smooth="yes"/>
      <point x="689.5" y="285.5"/>
      <point x="568.5" y="320.5"/>
      <point x="386.5" y="359.5" type="curve" smooth="yes"/>
      <point x="212.99999999999997" y="396.0"/>
      <point x="93.5" y="429.5"/>
      <point x="93.5" y="533.0" type="curve" smooth="yes"/>
      <point x="93.5" y="631.0"/>
      <point x="198.0" y="690.5"/>
      <point x="385.0" y="690.5" type="curve" smooth="yes"/>
      <point x="458.49999999999994" y="690.5"/>
      <point x="564.0" y="674.0"/>
      <point x="633.0" y="652.5" type="curve"/>
    </contour>
  </outline>
</glyph>
<glyph name="T" format="2">
  <advance width="655.4"/>
  <unicode hex="0054"/>
  <anchor x="327.7" y="700.0" name="top"/>
  <anchor x="327.7" y="0.0" name="bottom"/>
  <outline>
    <contour>
      <point x="649.7" y="681.0" type="line"/>
      <point x="649.7" y="700.0" type="line"/>
      <point x="5.7" y="700.0" type="line"/>
      <point x="5.7" y="681.0" type="line"/>
      <point x="317.7" y="681.0" type="line"/>
      <point x="317.7" y="0.0" type="line"/>
      <point x="337.7" y="0.0" type="line"/>
      <point x="337.7" y="681.0" type="line"/>
    </contour>
  </outline>
</glyph>
<glyph name="U" format="2">
  <advance width="880.0999999999999"/>
  <unicode hex="0055"/>
  <anchor x="494.09999999999997" y="0.0" name="ogonek"/>
  <anchor x="440.2" y="700.0" name="top"/>
  <anchor x="790.3" y="700.0" name="topright"/>
  <anchor x="440.2" y="0.0" name="bottom"/>
  <outline>
    <contour>
      <point x="89.8" y="245.2" type="line"/>
      <point x="89.8" y="34.2"/>
      <point x="277.7" y="-10.0"/>
      <point x="440.2" y="-10.0" type="curve" smooth="yes"/>
      <point x="602.7" y="-10.0"/>
      <point x="790.3" y="34.2"/>
      <point x="790.3" y="245.2" type="curve" smooth="yes"/>
      <point x="790.3" y="700.0" type="line"/>
      <point x="770.3" y="700.0" type="line"/>
      <point x="770.3" y="245.2" type="line" smooth="yes"/>
      <point x="770.3" y="49.3"/>
      <point x="592.7" y="10.0"/>
      <point x="440.2" y="10.0" type="curve" smooth="yes"/>
      <point x="287.7" y="10.0"/>
      <point x="109.8" y="49.3"/>
      <point x="109.8" y="245.2" type="curve" smooth="yes"/>
      <point x="109.8" y="700.0" type="line"/>
      <point x="89.8" y="700.0" type="line"/>
    </contour>
  </outline>
</glyph>
<glyph name="V" format="2">
  <advance width="769.0"/>
  <unicode hex="0056"/>
  <outline>
    <contour>
      <point x="377.5" y="0.0" type="line"/>
      <point x="391.5" y="0.0" type="line"/>
      <point x="756.0" y="695.5" type="line"/>
      <point x="739.5" y="705.0" type="line"/>
      <point x="384.5" y="31.500000000000004" type="line"/>
      <point x="29.5" y="705.0" type="line"/>
      <point x="13.0" y="695.5" type="line"/>
    </contour>
  </outline>
</glyph>
<glyph name="W" format="2">
  <advance width="1078.5"/>
  <unicode hex="0057"/>
  <anchor x="539.0" y="700.0" name="top"/>
  <anchor x="539.0" y="0.0" name="bottom"/>
  <outline>
    <contour>
      <point x="827.9999999999999" y="0.0" type="line"/>
      <point x="1066.0" y="697.0" type="line"/>
      <point x="1047.5" y="703.5" type="line"/>
      <point x="818.4999999999999" y="35.5" type="line"/>
      <point x="550.0" y="673.5" type="line"/>
      <point x="528.5" y="673.5" type="line"/>
      <point x="260.0" y="35.5" type="line"/>
      <point x="31.0" y="703.5" type="line"/>
      <point x="12.5" y="697.0" type="line"/>
      <point x="250.49999999999997" y="0.0" type="line"/>
      <point x="266.5" y="0.0" type="line"/>
      <point x="539.0" y="644.5" type="line"/>
      <point x="811.4999999999999" y="0.0" type="line"/>
    </contour>
  </outline>
</glyph>
<glyph name="X" format="2">
  <advance width="776.0"/>
  <unicode hex="0058"/>
  <outline>
    <contour>
      <point x="24.5" y="5.999999999999999" type="line"/>
      <point x="38.0" y="-7.0" type="line"/>
      <point x="387.5" y="345.5" type="line"/>
      <point x="738.5" y="-7.0" type="line"/>
      <point x="751.5" y="5.999999999999999" type="line"/>
      <point x="401.5" y="361.0" type="line"/>
      <point x="730.5" y="693.0" type="line"/>
      <point x="717.5" y="706.0" type="line"/>
      <point x="388.5" y="374.5" type="line"/>
      <point x="58.5" y="706.0" type="line"/>
      <point x="45.5" y="693.0" type="line"/>
      <point x="375.0" y="359.5" type="line"/>
    </contour>
  </outline>
</glyph>
<glyph name="Y" format="2">
  <advance width="748.4"/>
  <unicode hex="0059"/>
  <anchor x="374.5" y="700.0" name="top"/>
  <anchor x="379.1" y="0.0" name="bottom"/>
  <outline>
    <contour>
      <point x="369.4" y="0.0" type="line"/>
      <point x="389.4" y="0.0" type="line"/>
      <point x="389.4" y="313.6" type="line"/>
      <point x="734.7" y="693.5" type="line"/>
      <point x="720.9" y="706.5" type="line"/>
      <point x="379.4" y="334.9" type="line"/>
      <point x="26.3" y="706.5" type="line"/>
      <point x="12.5" y="693.5" type="line"/>
      <point x="369.4" y="313.6" type="line"/>
    </contour>
  </outline>
</glyph>
<glyph name="Z" format="2">
  <advance width="733.7"/>
  <unicode hex="005A"/>
  <anchor x="366.4" y="350.0" name="center"/>
  <anchor x="366.4" y="0.0" name="bottom"/>
  <anchor x="369.7" y="700.0" name="top"/>
  <outline>
    <contour>
      <point x="36.0" y="0.0" type="line"/>
      <point x="705.4" y="0.0" type="line"/>
      <point x="705.4" y="19.7" type="line"/>
      <point x="69.9" y="19.7" type="line"/>
      <point x="69.9" y="21.7" type="line"/>
      <point x="668.3" y="685.0" type="line"/>
      <point x="668.3" y="700.0" type="line"/>
      <point x="67.9" y="700.0" type="line"/>
      <point x="67.9" y="680.3" type="line"/>
      <point x="634.4" y="680.3" type="line"/>
      <point x="634.4" y="678.3" type="line"/>
      <point x="36.0" y="15.0" type="line"/>
    </contour>
  </outline>
</glyph>
<glyph name="bracketleft" format="2">
  <advance width="377.5"/>
  <unicode hex="005B"/>
  <outline>
    <contour>
      <point x="139.3" y="-190.0" type="line"/>
      <point x="139.3" y="720.0" type="line"/>
      <point x="343.5" y="720.0" type="line"/>
      <point x="343.5" y="740.0" type="line"/>
      <point x="119.3" y="740.0" type="line"/>
      <point x="119.3" y="-210.0" type="line"/>
      <point x="343.5" y="-210.0" type="line"/>
      <point x="343.5" y="-190.0" type="line"/>
    </contour>
  </outline>
</glyph>
<glyph name="backslash" format="2">
  <advance width="366.4"/>
  <unicode hex="005C"/>
  <outline>
    <contour>
      <point x="28.7" y="740.0" type="line"/>
      <point x="7.6" y="740.0" type="line"/>
      <point x="337.7" y="-210.0" type="line"/>
      <point x="358.79999999999995" y="-210.0" type="line"/>
    </contour>
  </outline>
</glyph>
<glyph name="bracketright" format="2">
  <advance width="377.5"/>
  <unicode hex="005D"/>
  <outline>
    <contour>
      <point x="34.0" y="-190.0" type="line"/>
      <point x="34.0" y="-210.0" type="line"/>
      <point x="258.2" y="-210.0" type="line"/>
      <point x="258.2" y="740.0" type="line"/>
      <point x="34.0" y="740.0" type="line"/>
      <point x="34.0" y="720.0" type="line"/>
      <point x="238.2" y="720.0" type="line"/>
      <point x="238.2" y="-190.0" type="line"/>
    </contour>
  </outline>
</glyph>
<glyph name="asciicircum" format="2">
  <advance width="503.0"/>
  <unicode hex="005E"/>
  <outline>
    <contour>
      <point x="51.2" y="276.9" type="line"/>
      <point x="73.6" y="276.9" type="line"/>
      <point x="251.5" y="686.6" type="line"/>
      <point x="429.4" y="276.9" type="line"/>
      <point x="451.8" y="276.9" type="line"/>
      <point x="261.5" y="710.0" type="line"/>
      <point x="241.5" y="710.0" type="line"/>
    </contour>
  </outline>
</glyph>
<glyph name="a" format="2">
  <advance width="641.0"/>
  <unicode hex="0061"/>
  <anchor x="630.0" y="-1.0" name="ogonek"/>
  <anchor x="317.0" y="0.0" name="bottom"/>
  <anchor x="319.0" y="530.0" name="top"/>
  <outline>
    <contour>
      <point x="58.5" y="116.5" type="curve" smooth="yes"/>
      <point x="58.5" y="29.5"/>
      <point x="118.49999999999999" y="-10.0"/>
      <point x="207.5" y="-10.0" type="curve" smooth="yes"/>
      <point x="335.0" y="-10.0"/>
      <point x="439.49999999999994" y="52.0"/>
      <point x="504.99999999999994" y="106.49999999999999" type="curve"/>
      <point x="504.99999999999994" y="23.5"/>
      <point x="533.5" y="-10.0"/>
      <point x="587.5" y="-10.0" type="curve" smooth="yes"/>
      <point x="600.5" y="-10.0"/>
      <point x="614.0" y="-7.5"/>
      <point x="630.0" y="-1.0" type="curve"/>
      <point x="624.0" y="16.0" type="line"/>
      <point x="611.5" y="11.0"/>
      <point x="600.5" y="9.0"/>
      <point x="589.5" y="9.0" type="curve" smooth="yes"/>
      <point x="549.0" y="9.0"/>
      <point x="524.5" y="30.5"/>
      <point x="525.5" y="105.5" type="curve" smooth="yes"/>
      <point x="528.0" y="373.5" type="line" smooth="yes"/>
      <point x="529.5" y="490.5"/>
      <point x="439.5" y="540.0"/>
      <point x="311.5" y="540.0" type="curve" smooth="yes"/>
      <point x="248.49999999999997" y="540.0"/>
      <point x="176.5" y="529.0"/>
      <point x="103.99999999999999" y="509.5" type="curve"/>
      <point x="108.99999999999999" y="490.0" type="line"/>
      <point x="187.5" y="511.5"/>
      <point x="255.99999999999997" y="520.0"/>
      <point x="313.0" y="520.0" type="curve" smooth="yes"/>
      <point x="442.99999999999994" y="520.0"/>
      <point x="509.49999999999994" y="466.0"/>
      <point x="508.49999999999994" y="373.5" type="curve" smooth="yes"/>
      <point x="507.99999999999994" y="290.0" type="line"/>
      <point x="210.0" y="271.5"/>
      <point x="58.5" y="258.0"/>
    </contour>
    <contour>
      <point x="78.5" y="121.5" type="curve" smooth="yes"/>
      <point x="78.5" y="244.5"/>
      <point x="249.99999999999997" y="259.0"/>
      <point x="507.49999999999994" y="271.0" type="curve"/>
      <point x="505.99999999999994" y="131.0" type="line"/>
      <point x="418.0" y="54.0"/>
      <point x="310.0" y="9.5"/>
      <point x="208.0" y="9.5" type="curve" smooth="yes"/>
      <point x="129.5" y="9.5"/>
      <point x="78.5" y="46.0"/>
    </contour>
  </outline>
</glyph>
<glyph name="b" format="2">
  <advance width="679.5"/>
  <unicode hex="0062"/>
  <outline>
    <contour>
      <point x="100.0" y="15.899999999999999" type="line"/>
      <point x="183.89999999999998" y="-1.8000000000000007"/>
      <point x="249.79999999999998" y="-10.0"/>
      <point x="310.79999999999995" y="-10.0" type="curve" smooth="yes"/>
      <point x="517.3" y="-10.0"/>
      <point x="619.0" y="83.1"/>
      <point x="619.0" y="282.3" type="curve" smooth="yes"/>
      <point x="619.0" y="444.2"/>
      <point x="531.4" y="540.0"/>
      <point x="385.4" y="540.0" type="curve" smooth="yes"/>
      <point x="298.7" y="540.0"/>
      <point x="220.0" y="511.4"/>
      <point x="120.0" y="442.3" type="curve"/>
      <point x="120.0" y="740.0" type="line"/>
      <point x="100.0" y="740.0" type="line"/>
    </contour>
    <contour>
      <point x="120.0" y="30.4" type="curve"/>
      <point x="120.0" y="420.9" type="line"/>
      <point x="223.39999999999998" y="492.5"/>
      <point x="297.2" y="520.6"/>
      <point x="383.9" y="520.6" type="curve" smooth="yes"/>
      <point x="517.0999999999999" y="520.6"/>
      <point x="599.0" y="431.5"/>
      <point x="599.0" y="282.3" type="curve" smooth="yes"/>
      <point x="599.0" y="92.9"/>
      <point x="504.7" y="8.4"/>
      <point x="309.29999999999995" y="8.4" type="curve" smooth="yes"/>
      <point x="258.1" y="8.4"/>
      <point x="195.89999999999998" y="15.3"/>
    </contour>
  </outline>
</glyph>
<glyph name="c" format="2">
  <advance width="637.5999999999999"/>
  <unicode hex="0063"/>
  <anchor x="367.1" y="530.0" name="top"/>
  <anchor x="367.4" y="0.0" name="bottom"/>
  <outline>
    <contour>
      <point x="60.5" y="253.7" type="curve" smooth="yes"/>
      <point x="60.5" y="78.9"/>
      <point x="169.1" y="-10.0"/>
      <point x="368.4" y="-10.0" type="curve" smooth="yes"/>
      <point x="443.5" y="-10.0"/>
      <point x="533.3" y="3.5"/>
      <point x="598.8" y="21.2" type="curve"/>
      <point x="594.8" y="40.599999999999994" type="line"/>
      <point x="527.5" y="23.2"/>
      <point x="438.79999999999995" y="9.7"/>
      <point x="371.2" y="9.7" type="curve" smooth="yes"/>
      <point x="185.1" y="9.7"/>
      <point x="80.5" y="91.5"/>
      <point x="80.5" y="251.9" type="curve" smooth="yes"/>
      <point x="80.5" y="430.0"/>
      <point x="192.6" y="520.3"/>
      <point x="371.0" y="520.3" type="curve" smooth="yes"/>
      <point x="434.29999999999995" y="520.3"/>
      <point x="521.2" y="508.5"/>
      <point x="583.5" y="492.6" type="curve"/>
      <point x="587.5" y="512.0" type="line"/>
      <point x="524.9" y="528.2"/>
      <point x="436.4" y="540.0"/>
      <point x="371.9" y="540.0" type="curve" smooth="yes"/>
      <point x="180.0" y="540.0"/>
      <point x="60.5" y="443.8"/>
    </contour>
  </outline>
</glyph>
<glyph name="d" format="2">
  <advance width="679.5"/>
  <unicode hex="0064"/>
  <anchor x="340.1" y="275.0" name="center"/>
  <anchor x="339.2" y="740.0" name="top"/>
  <anchor x="688.0" y="740.0" name="topright"/>
  <anchor x="340.1" y="0.0" name="bottom"/>
  <outline>
    <contour>
      <point x="565.5999999999999" y="0.0" type="line"/>
      <point x="579.5" y="0.0" type="line"/>
      <point x="579.5" y="740.0" type="line"/>
      <point x="559.5" y="740.0" type="line"/>
      <point x="559.5" y="519.4" type="line"/>
      <point x="495.0" y="533.1"/>
      <point x="427.09999999999997" y="540.0"/>
      <point x="368.7" y="540.0" type="curve" smooth="yes"/>
      <point x="162.2" y="540.0"/>
      <point x="60.5" y="446.9"/>
      <point x="60.5" y="247.7" type="curve" smooth="yes"/>
      <point x="60.5" y="84.9"/>
      <point x="148.39999999999998" y="-10.0"/>
      <point x="295.29999999999995" y="-10.0" type="curve" smooth="yes"/>
      <point x="382.0" y="-10.0"/>
      <point x="459.2" y="18.0"/>
      <point x="559.5" y="87.0" type="curve"/>
    </contour>
    <contour>
      <point x="559.5" y="109.1" type="line"/>
      <point x="456.09999999999997" y="37.5"/>
      <point x="382.29999999999995" y="9.4"/>
      <point x="295.29999999999995" y="9.4" type="curve" smooth="yes"/>
      <point x="162.39999999999998" y="9.4"/>
      <point x="80.5" y="97.5"/>
      <point x="80.5" y="247.7" type="curve" smooth="yes"/>
      <point x="80.5" y="437.1"/>
      <point x="174.8" y="521.6"/>
      <point x="370.2" y="521.6" type="curve" smooth="yes"/>
      <point x="421.4" y="521.6"/>
      <point x="483.9" y="514.7"/>
      <point x="559.5" y="499.6" type="curve"/>
    </contour>
  </outline>
</glyph>
<glyph name="e" format="2">
  <advance width="672.0999999999999"/>
  <unicode hex="0065"/>
  <anchor x="573.3" y="16.099999999999998" name="ogonek"/>
  <anchor x="358.0" y="0.0" name="bottom"/>
  <anchor x="356.79999999999995" y="530.0" name="top"/>
  <outline>
    <contour>
      <point x="336.2" y="-10.0" type="curve" smooth="yes"/>
      <point x="448.9" y="-10.0"/>
      <point x="554.7" y="9.7"/>
      <point x="611.5" y="24.2" type="curve"/>
      <point x="607.2" y="43.599999999999994" type="line"/>
      <point x="552.2" y="29.799999999999997"/>
      <point x="444.4" y="9.7"/>
      <point x="336.5" y="9.7" type="curve" smooth="yes"/>
      <point x="185.7" y="9.7"/>
      <point x="80.5" y="83.0"/>
      <point x="80.5" y="253.8" type="curve" smooth="yes"/>
      <point x="80.5" y="265.0"/>
      <point x="81.19999999999999" y="275.8"/>
      <point x="81.9" y="286.3" type="curve"/>
      <point x="349.0" y="286.3"/>
      <point x="564.4" y="302.3"/>
      <point x="619.4" y="306.2" type="curve"/>
      <point x="620.0999999999999" y="311.3"/>
      <point x="620.4" y="319.7"/>
      <point x="620.4" y="325.0" type="curve" smooth="yes"/>
      <point x="620.4" y="473.7"/>
      <point x="536.0999999999999" y="540.0"/>
      <point x="373.0" y="540.0" type="curve" smooth="yes"/>
      <point x="206.39999999999998" y="540.0"/>
      <point x="60.5" y="462.3"/>
      <point x="60.5" y="249.3" type="curve" smooth="yes"/>
      <point x="60.5" y="71.1"/>
      <point x="171.8" y="-10.0"/>
    </contour>
    <contour>
      <point x="84.0" y="305.7" type="curve"/>
      <point x="108.5" y="473.5"/>
      <point x="255.2" y="520.6"/>
      <point x="373.0" y="520.6" type="curve" smooth="yes"/>
      <point x="528.7" y="520.6"/>
      <point x="599.7" y="457.4"/>
      <point x="599.7" y="323.6" type="curve"/>
      <point x="559.8" y="319.7"/>
      <point x="343.2" y="305.7"/>
    </contour>
  </outline>
</glyph>
<glyph name="f" format="2">
  <advance width="436.4"/>
  <unicode hex="0066"/>
  <outline>
    <contour>
      <point x="150.8" y="0.0" type="line"/>
      <point x="170.8" y="0.0" type="line"/>
      <point x="170.8" y="464.3" type="line"/>
      <point x="429.7" y="464.3" type="line"/>
      <point x="429.7" y="484.0" type="line"/>
      <point x="170.8" y="484.0" type="line"/>
      <point x="170.8" y="503.8" type="line" smooth="yes"/>
      <point x="170.8" y="667.7"/>
      <point x="233.8" y="731.0"/>
      <point x="354.9" y="731.0" type="curve" smooth="yes"/>
      <point x="406.4" y="731.0"/>
      <point x="452.29999999999995" y="722.3"/>
      <point x="511.4" y="705.4" type="curve"/>
      <point x="516.0999999999999" y="724.8" type="line"/>
      <point x="450.79999999999995" y="743.8"/>
      <point x="405.7" y="750.7"/>
      <point x="352.1" y="750.7" type="curve" smooth="yes"/>
      <point x="226.39999999999998" y="750.7"/>
      <point x="150.8" y="684.2"/>
      <point x="150.8" y="503.8" type="curve" smooth="yes"/>
      <point x="150.8" y="484.0" type="line"/>
      <point x="34.8" y="478.7" type="line"/>
      <point x="34.8" y="464.3" type="line"/>
      <point x="150.8" y="464.3" type="line"/>
    </contour>
  </outline>
</glyph>
<glyph name="g" format="2">
  <advance width="696.4"/>
  <unicode hex="0067"/>
  <anchor x="354.79999999999995" y="530.0" name="top"/>
  <anchor x="342.4" y="-217.0" name="bottom"/>
  <outline>
    <contour>
      <point x="343.29999999999995" y="-220.0" type="curve" smooth="yes"/>
      <point x="556.5999999999999" y="-220.0"/>
      <point x="675.3" y="-156.9"/>
      <point x="675.3" y="-52.1" type="curve" smooth="yes"/>
      <point x="675.3" y="32.0"/>
      <point x="619.7" y="68.9"/>
      <point x="505.4" y="68.9" type="curve" smooth="yes"/>
      <point x="245.9" y="68.9" type="line" smooth="yes"/>
      <point x="148.1" y="68.9"/>
      <point x="99.3" y="99.3"/>
      <point x="99.3" y="153.5" type="curve" smooth="yes"/>
      <point x="99.3" y="195.3"/>
      <point x="129.0" y="227.9"/>
      <point x="179.39999999999998" y="251.5" type="curve"/>
      <point x="162.8" y="260.1" type="line"/>
      <point x="105.0" y="232.2"/>
      <point x="79.6" y="197.0"/>
      <point x="79.6" y="150.4" type="curve" smooth="yes"/>
      <point x="79.6" y="85.7"/>
      <point x="135.1" y="49.2"/>
      <point x="243.79999999999998" y="49.2" type="curve" smooth="yes"/>
      <point x="505.7" y="49.2" type="line" smooth="yes"/>
      <point x="602.9" y="49.2"/>
      <point x="655.3" y="15.899999999999999"/>
      <point x="655.3" y="-50.7" type="curve" smooth="yes"/>
      <point x="655.3" y="-146.2"/>
      <point x="546.3" y="-200.3"/>
      <point x="343.29999999999995" y="-200.3" type="curve" smooth="yes"/>
      <point x="154.89999999999998" y="-200.3"/>
      <point x="53.2" y="-159.0"/>
      <point x="53.2" y="-62.6" type="curve" smooth="yes"/>
      <point x="53.2" y="-9.900000000000002"/>
      <point x="83.8" y="39.599999999999994"/>
      <point x="183.3" y="63.2" type="curve"/>
      <point x="158.1" y="69.5" type="line"/>
      <point x="63.4" y="46.099999999999994"/>
      <point x="33.2" y="-7.900000000000002"/>
      <point x="33.2" y="-63.3" type="curve" smooth="yes"/>
      <point x="33.2" y="-173.5"/>
      <point x="138.0" y="-220.0"/>
    </contour>
    <contour>
      <point x="349.79999999999995" y="215.6" type="curve" smooth="yes"/>
      <point x="522.3" y="215.6"/>
      <point x="602.4" y="268.1"/>
      <point x="602.4" y="378.0" type="curve" smooth="yes"/>
      <point x="602.4" y="487.9"/>
      <point x="522.3" y="540.0"/>
      <point x="349.79999999999995" y="540.0" type="curve" smooth="yes"/>
      <point x="177.3" y="540.0"/>
      <point x="97.19999999999999" y="487.9"/>
      <point x="97.19999999999999" y="378.0" type="curve" smooth="yes"/>
      <point x="97.19999999999999" y="268.1"/>
      <point x="177.3" y="215.6"/>
    </contour>
    <contour>
      <point x="349.79999999999995" y="234.6" type="curve" smooth="yes"/>
      <point x="189.3" y="234.6"/>
      <point x="117.19999999999999" y="278.8"/>
      <point x="117.19999999999999" y="378.0" type="curve" smooth="yes"/>
      <point x="117.19999999999999" y="477.5"/>
      <point x="189.3" y="521.0"/>
      <point x="349.79999999999995" y="521.0" type="curve" smooth="yes"/>
      <point x="510.29999999999995" y="521.0"/>
      <point x="582.4" y="477.5"/>
      <point x="582.4" y="378.0" type="curve" smooth="yes"/>
      <point x="582.4" y="278.8"/>
      <point x="510.29999999999995" y="234.6"/>
    </contour>
    <contour>
      <point x="511.7" y="497.2" type="line"/>
      <point x="530.2" y="535.9"/>
      <point x="567.7" y="553.1"/>
      <point x="623.5999999999999" y="553.1" type="curve" smooth="yes"/>
      <point x="639.0999999999999" y="553.1"/>
      <point x="651.3" y="552.4"/>
      <point x="667.0" y="550.0" type="curve"/>
      <point x="668.7" y="570.0" type="line"/>
      <point x="648.0999999999999" y="572.4"/>
      <point x="638.0" y="573.1"/>
      <point x="623.5999999999999" y="573.1" type="curve" smooth="yes"/>
      <point x="559.5999999999999" y="573.1"/>
      <point x="514.5" y="550.9"/>
      <point x="496.79999999999995" y="506.0" type="curve"/>
    </contour>
  </outline>
</glyph>
<glyph name="h" format="2">
  <advance width="703.4"/>
  <unicode hex="0068"/>
  <anchor x="352.2" y="395.0" name="center"/>
  <anchor x="352.2" y="0.0" name="bottom"/>
  <anchor x="353.4" y="740.0" name="top"/>
  <outline>
    <contour>
      <point x="100.0" y="0.0" type="line"/>
      <point x="120.0" y="0.0" type="line"/>
      <point x="120.0" y="436.5" type="line"/>
      <point x="223.39999999999998" y="486.5"/>
      <point x="299.79999999999995" y="520.6"/>
      <point x="410.09999999999997" y="520.6" type="curve" smooth="yes"/>
      <point x="529.8" y="520.6"/>
      <point x="583.4" y="460.7"/>
      <point x="583.4" y="366.9" type="curve" smooth="yes"/>
      <point x="583.4" y="0.0" type="line"/>
      <point x="603.4" y="0.0" type="line"/>
      <point x="603.4" y="366.9" type="line" smooth="yes"/>
      <point x="603.4" y="478.9"/>
      <point x="537.5999999999999" y="540.0"/>
      <point x="412.2" y="540.0" type="curve" smooth="yes"/>
      <point x="299.1" y="540.0"/>
      <point x="219.79999999999998" y="504.8"/>
      <point x="120.0" y="457.5" type="curve"/>
      <point x="120.0" y="740.0" type="line"/>
      <point x="100.0" y="740.0" type="line"/>
    </contour>
  </outline>
</glyph>
<glyph name="i" format="2">
  <advance width="220.0"/>
  <unicode hex="0069"/>
  <anchor x="119.3" y="0.0" name="ogonek"/>
  <anchor x="110.0" y="0.0" name="bottom"/>
  <outline>
    <contour>
      <point x="110.0" y="677.0" type="curve" smooth="yes"/>
      <point x="125.4" y="677.0"/>
      <point x="126.1" y="678.0"/>
      <point x="126.1" y="694.0" type="curve" smooth="yes"/>
      <point x="126.1" y="710.0"/>
      <point x="125.4" y="711.0"/>
      <point x="110.0" y="711.0" type="curve" smooth="yes"/>
      <point x="94.6" y="711.0"/>
      <point x="93.9" y="710.0"/>
      <point x="93.9" y="694.0" type="curve" smooth="yes"/>
      <point x="93.9" y="678.0"/>
      <point x="95.6" y="677.0"/>
    </contour>
    <contour>
      <point x="100.0" y="0.0" type="line"/>
      <point x="120.0" y="0.0" type="line"/>
      <point x="120.0" y="530.0" type="line"/>
      <point x="100.0" y="530.0" type="line"/>
    </contour>
  </outline>
</glyph>
<glyph name="j" format="2">
  <advance width="221.1"/>
  <unicode hex="006A"/>
  <outline>
    <contour>
      <point x="121.8" y="530.0" type="line"/>
      <point x="101.8" y="530.0" type="line"/>
      <point x="101.8" y="14.0" type="line" smooth="yes"/>
      <point x="101.8" y="-81.9"/>
      <point x="77.19999999999999" y="-142.4"/>
      <point x="29.9" y="-174.4" type="curve" smooth="yes"/>
      <point x="21.4" y="-180.1"/>
      <point x="12.899999999999999" y="-184.8"/>
      <point x="3.3999999999999986" y="-188.5" type="curve"/>
      <point x="13.099999999999998" y="-206.9" type="line"/>
      <point x="23.9" y="-202.6"/>
      <point x="34.4" y="-196.6"/>
      <point x="43.5" y="-190.6" type="curve" smooth="yes"/>
      <point x="94.8" y="-155.0"/>
      <point x="121.8" y="-90.0"/>
      <point x="121.8" y="14.0" type="curve" smooth="yes"/>
    </contour>
    <contour>
      <point x="110.4" y="677.0" type="curve" smooth="yes"/>
      <point x="125.5" y="677.0"/>
      <point x="126.5" y="678.0"/>
      <point x="126.5" y="694.0" type="curve" smooth="yes"/>
      <point x="126.5" y="710.0"/>
      <point x="125.5" y="711.0"/>
      <point x="110.4" y="711.0" type="curve" smooth="yes"/>
      <point x="95.0" y="711.0"/>
      <point x="94.3" y="710.0"/>
      <point x="94.3" y="694.0" type="curve" smooth="yes"/>
      <point x="94.3" y="678.0"/>
      <point x="96.0" y="677.0"/>
    </contour>
  </outline>
</glyph>
<glyph name="l" format="2">
  <advance width="287.0"/>
  <unicode hex="006C"/>
  <anchor x="144.0" y="395.0" name="center"/>
  <anchor x="110.0" y="740.0" name="top"/>
  <anchor x="228.5" y="740.0" name="topright"/>
  <anchor x="192.3" y="0.0" name="bottom"/>
  <outline>
    <contour>
      <point x="120.0" y="740.0" type="line"/>
      <point x="100.0" y="740.0" type="line"/>
      <point x="100.0" y="134.0" type="line" smooth="yes"/>
      <point x="100.0" y="13.0"/>
      <point x="152.0" y="-10.0"/>
      <point x="211.39999999999998" y="-10.0" type="curve" smooth="yes"/>
      <point x="238.6" y="-10.0"/>
      <point x="266.0" y="-4.5"/>
      <point x="287.79999999999995" y="3.3" type="curve"/>
      <point x="283.79999999999995" y="23.0" type="line"/>
      <point x="261.1" y="15.2"/>
      <point x="235.6" y="10.0"/>
      <point x="211.39999999999998" y="10.0" type="curve" smooth="yes"/>
      <point x="163.5" y="10.0"/>
      <point x="120.0" y="29.0"/>
      <point x="120.0" y="134.0" type="curve" smooth="yes"/>
    </contour>
  </outline>
</glyph>
<glyph name="m" format="2">
  <advance width="1077.5"/>
  <unicode hex="006D"/>
  <outline>
    <contour>
      <point x="100.0" y="0.0" type="line"/>
      <point x="120.0" y="0.0" type="line"/>
      <point x="120.0" y="432.8" type="line"/>
      <point x="206.6" y="483.6"/>
      <point x="276.2" y="517.1"/>
      <point x="375.4" y="517.1" type="curve" smooth="yes"/>
      <point x="513.3" y="517.1"/>
      <point x="530.5" y="416.6"/>
      <point x="530.5" y="363.4" type="curve" smooth="yes"/>
      <point x="530.5" y="0.0" type="line"/>
      <point x="550.5" y="0.0" type="line"/>
      <point x="550.5" y="363.4" type="line" smooth="yes"/>
      <point x="550.5" y="384.1"/>
      <point x="548.2" y="410.6"/>
      <point x="539.0" y="436.9" type="curve"/>
      <point x="595.9" y="471.0"/>
      <point x="683.7" y="520.6"/>
      <point x="799.6" y="520.6" type="curve" smooth="yes"/>
      <point x="940.3" y="520.6"/>
      <point x="957.5" y="419.4"/>
      <point x="957.5" y="366.2" type="curve" smooth="yes"/>
      <point x="957.5" y="0.0" type="line"/>
      <point x="977.5" y="0.0" type="line"/>
      <point x="977.5" y="366.2" type="line" smooth="yes"/>
      <point x="977.5" y="429.9"/>
      <point x="954.4" y="540.0"/>
      <point x="801.6999999999999" y="540.0" type="curve" smooth="yes"/>
      <point x="676.2" y="540.0"/>
      <point x="585.8" y="488.0"/>
      <point x="531.0" y="454.7" type="curve"/>
      <point x="509.29999999999995" y="498.8"/>
      <point x="464.9" y="536.5"/>
      <point x="377.5" y="536.5" type="curve" smooth="yes"/>
      <point x="272.7" y="536.5"/>
      <point x="196.7" y="499.5"/>
      <point x="120.0" y="455.6" type="curve"/>
      <point x="120.0" y="530.0" type="line"/>
      <point x="100.0" y="530.0" type="line"/>
    </contour>
  </outline>
</glyph>
<glyph name="n" format="2">
  <advance width="703.4"/>
  <unicode hex="006E"/>
  <anchor x="361.9" y="530.0" name="top"/>
  <anchor x="363.9" y="0.0" name="bottom"/>
  <outline>
    <contour>
      <point x="100.0" y="0.0" type="line"/>
      <point x="120.0" y="0.0" type="line"/>
      <point x="120.0" y="436.5" type="line"/>
      <point x="223.39999999999998" y="486.5"/>
      <point x="299.79999999999995" y="520.6"/>
      <point x="410.09999999999997" y="520.6" type="curve" smooth="yes"/>
      <point x="529.8" y="520.6"/>
      <point x="583.4" y="460.7"/>
      <point x="583.4" y="366.9" type="curve" smooth="yes"/>
      <point x="583.4" y="0.0" type="line"/>
      <point x="603.4" y="0.0" type="line"/>
      <point x="603.4" y="366.9" type="line" smooth="yes"/>
      <point x="603.4" y="478.9"/>
      <point x="537.5999999999999" y="540.0"/>
      <point x="412.2" y="540.0" type="curve" smooth="yes"/>
      <point x="299.1" y="540.0"/>
      <point x="219.1" y="504.8"/>
      <point x="120.0" y="457.5" type="curve"/>
      <point x="120.0" y="530.0" type="line"/>
      <point x="100.0" y="530.0" type="line"/>
    </contour>
  </outline>
</glyph>
<glyph name="o" format="2">
  <advance width="715.4"/>
  <unicode hex="006F"/>
  <anchor x="419.7" y="0.0" name="ogonek"/>
  <anchor x="357.7" y="530.0" name="top"/>
  <anchor x="469.7" y="527.0" name="topright"/>
  <anchor x="357.7" y="0.0" name="bottom"/>
  <outline>
    <contour>
      <point x="60.5" y="266.4" type="curve" smooth="yes"/>
      <point x="60.5" y="72.0"/>
      <point x="150.8" y="-10.0"/>
      <point x="357.7" y="-10.0" type="curve" smooth="yes"/>
      <point x="564.5999999999999" y="-10.0"/>
      <point x="654.9" y="72.0"/>
      <point x="654.9" y="266.4" type="curve" smooth="yes"/>
      <point x="654.9" y="451.7"/>
      <point x="576.5" y="540.0"/>
      <point x="357.7" y="540.0" type="curve" smooth="yes"/>
      <point x="138.89999999999998" y="540.0"/>
      <point x="60.5" y="451.7"/>
    </contour>
    <contour>
      <point x="80.5" y="266.4" type="curve" smooth="yes"/>
      <point x="80.5" y="435.7"/>
      <point x="149.39999999999998" y="520.6"/>
      <point x="357.7" y="520.6" type="curve" smooth="yes"/>
      <point x="566.0" y="520.6"/>
      <point x="634.9" y="435.7"/>
      <point x="634.9" y="266.4" type="curve" smooth="yes"/>
      <point x="634.9" y="90.1"/>
      <point x="554.0999999999999" y="9.4"/>
      <point x="357.7" y="9.4" type="curve" smooth="yes"/>
      <point x="161.3" y="9.4"/>
      <point x="80.5" y="90.1"/>
    </contour>
  </outline>
</glyph>
<glyph name="q" format="2">
  <advance width="679.5"/>
  <unicode hex="0071"/>
  <outline>
    <contour>
      <point x="579.5" y="514.4" type="line"/>
      <point x="494.7" y="532.1"/>
      <point x="429.7" y="540.0"/>
      <point x="368.7" y="540.0" type="curve" smooth="yes"/>
      <point x="162.2" y="540.0"/>
      <point x="60.5" y="446.9"/>
      <point x="60.5" y="247.7" type="curve" smooth="yes"/>
      <point x="60.5" y="86.1"/>
      <point x="148.39999999999998" y="-10.0"/>
      <point x="294.1" y="-10.0" type="curve" smooth="yes"/>
      <point x="380.79999999999995" y="-10.0"/>
      <point x="459.5" y="18.599999999999998"/>
      <point x="559.5" y="87.69999999999999" type="curve"/>
      <point x="559.5" y="-210.0" type="line"/>
      <point x="579.5" y="-210.0" type="line"/>
    </contour>
    <contour>
      <point x="559.5" y="499.3" type="curve"/>
      <point x="559.5" y="109.1" type="line"/>
      <point x="456.09999999999997" y="37.5"/>
      <point x="382.29999999999995" y="9.4"/>
      <point x="295.6" y="9.4" type="curve" smooth="yes"/>
      <point x="162.7" y="9.4"/>
      <point x="80.5" y="99.1"/>
      <point x="80.5" y="247.7" type="curve" smooth="yes"/>
      <point x="80.5" y="437.1"/>
      <point x="174.8" y="521.6"/>
      <point x="370.2" y="521.6" type="curve" smooth="yes"/>
      <point x="421.09999999999997" y="521.6"/>
      <point x="483.59999999999997" y="514.7"/>
    </contour>
  </outline>
</glyph>
<glyph name="r" format="2">
  <advance width="486.29999999999995"/>
  <unicode hex="0072"/>
  <anchor x="279.9" y="530.0" name="top"/>
  <anchor x="110.0" y="0.0" name="bottom"/>
  <outline>
    <contour>
      <point x="120.0" y="530.0" type="line"/>
      <point x="100.0" y="530.0" type="line"/>
      <point x="100.0" y="0.0" type="line"/>
      <point x="120.0" y="0.0" type="line"/>
      <point x="120.0" y="406.3" type="line"/>
      <point x="208.89999999999998" y="489.5"/>
      <point x="291.6" y="520.6"/>
      <point x="369.6" y="520.6" type="curve" smooth="yes"/>
      <point x="403.29999999999995" y="520.6"/>
      <point x="444.0" y="514.4"/>
      <point x="475.2" y="506.2" type="curve"/>
      <point x="479.5" y="525.3" type="line"/>
      <point x="453.59999999999997" y="533.1"/>
      <point x="410.9" y="540.0"/>
      <point x="366.79999999999995" y="540.0" type="curve" smooth="yes"/>
      <point x="286.5" y="540.0"/>
      <point x="209.7" y="510.4"/>
      <point x="120.0" y="434.7" type="curve"/>
    </contour>
  </outline>
</glyph>
<glyph name="s" format="2">
  <advance width="598.5"/>
  <unicode hex="0073"/>
  <anchor x="296.5" y="530.0" name="top"/>
  <anchor x="301.5" y="0.0" name="bottom"/>
  <outline>
    <contour>
      <point x="41.99999999999999" y="32.0" type="line"/>
      <point x="98.99999999999999" y="6.999999999999999"/>
      <point x="204.99999999999997" y="-10.0"/>
      <point x="298.0" y="-10.0" type="curve" smooth="yes"/>
      <point x="463.99999999999994" y="-10.0"/>
      <point x="554.0" y="37.5"/>
      <point x="554.0" y="130.5" type="curve" smooth="yes"/>
      <point x="554.0" y="230.0"/>
      <point x="446.49999999999994" y="255.0"/>
      <point x="316.0" y="277.5" type="curve" smooth="yes"/>
      <point x="202.0" y="296.0"/>
      <point x="88.0" y="317.5"/>
      <point x="88.0" y="405.0" type="curve" smooth="yes"/>
      <point x="88.0" y="477.5"/>
      <point x="162.5" y="520.0"/>
      <point x="315.5" y="520.0" type="curve" smooth="yes"/>
      <point x="386.5" y="520.0"/>
      <point x="461.99999999999994" y="504.0"/>
      <point x="506.99999999999994" y="491.0" type="curve"/>
      <point x="513.5" y="510.0" type="line"/>
      <point x="467.99999999999994" y="524.0"/>
      <point x="390.5" y="540.0"/>
      <point x="315.5" y="540.0" type="curve" smooth="yes"/>
      <point x="148.0" y="540.0"/>
      <point x="68.0" y="489.0"/>
      <point x="68.0" y="405.0" type="curve" smooth="yes"/>
      <point x="68.0" y="303.0"/>
      <point x="184.5" y="279.5"/>
      <point x="311.0" y="258.5" type="curve" smooth="yes"/>
      <point x="439.0" y="236.0"/>
      <point x="534.0" y="213.0"/>
      <point x="534.0" y="130.5" type="curve" smooth="yes"/>
      <point x="534.0" y="51.5"/>
      <point x="450.49999999999994" y="10.0"/>
      <point x="298.0" y="10.0" type="curve" smooth="yes"/>
      <point x="208.99999999999997" y="10.0"/>
      <point x="105.99999999999999" y="27.0"/>
      <point x="48.99999999999999" y="51.0" type="curve"/>
    </contour>
  </outline>
</glyph>
<glyph name="t" format="2">
  <advance width="501.5"/>
  <unicode hex="0074"/>
  <anchor x="251.1" y="275.0" name="center"/>
  <anchor x="164.3" y="665.0" name="top"/>
  <anchor x="391.5" y="778.5" name="topright"/>
  <anchor x="300.2" y="0.0" name="bottom"/>
  <outline>
    <contour>
      <point x="313.2" y="-10.0" type="curve" smooth="yes"/>
      <point x="359.1" y="-10.0"/>
      <point x="420.29999999999995" y="-0.3000000000000007"/>
      <point x="485.59999999999997" y="20.799999999999997" type="curve"/>
      <point x="480.2" y="39.5" type="line"/>
      <point x="430.2" y="21.9"/>
      <point x="375.2" y="9.7"/>
      <point x="316.0" y="9.7" type="curve" smooth="yes"/>
      <point x="215.2" y="9.7"/>
      <point x="172.0" y="56.2"/>
      <point x="172.0" y="154.9" type="curve" smooth="yes"/>
      <point x="172.0" y="510.3" type="line"/>
      <point x="463.79999999999995" y="510.3" type="line"/>
      <point x="463.79999999999995" y="530.0" type="line"/>
      <point x="172.0" y="530.0" type="line"/>
      <point x="172.0" y="665.0" type="line"/>
      <point x="156.3" y="665.0" type="line"/>
      <point x="152.0" y="530.0" type="line"/>
      <point x="10.8" y="524.7" type="line"/>
      <point x="10.8" y="510.3" type="line"/>
      <point x="152.0" y="510.3" type="line"/>
      <point x="152.0" y="154.9" type="line" smooth="yes"/>
      <point x="152.0" y="41.6"/>
      <point x="208.1" y="-10.0"/>
    </contour>
  </outline>
</glyph>
<glyph name="u" format="2">
  <advance width="689.7"/>
  <unicode hex="0075"/>
  <anchor x="678.4" y="-1.0" name="ogonek"/>
  <anchor x="336.5" y="530.0" name="top"/>
  <anchor x="573.3" y="530.0" name="topright"/>
  <anchor x="345.0" y="0.0" name="bottom"/>
  <outline>
    <contour>
      <point x="280.0" y="-10.0" type="curve" smooth="yes"/>
      <point x="386.1" y="-10.0"/>
      <point x="461.2" y="25.2"/>
      <point x="555.5999999999999" y="73.8" type="curve"/>
      <point x="562.8" y="14.0"/>
      <point x="600.2" y="-10.0"/>
      <point x="635.0" y="-10.0" type="curve" smooth="yes"/>
      <point x="648.5" y="-10.0"/>
      <point x="662.3" y="-7.3"/>
      <point x="678.4" y="-1.0" type="curve"/>
      <point x="672.0999999999999" y="15.3" type="line"/>
      <point x="661.4" y="10.3"/>
      <point x="649.5999999999999" y="7.6"/>
      <point x="638.5" y="7.6" type="curve" smooth="yes"/>
      <point x="603.8" y="7.6"/>
      <point x="573.3" y="30.299999999999997"/>
      <point x="573.3" y="107.5" type="curve" smooth="yes"/>
      <point x="573.3" y="530.0" type="line"/>
      <point x="553.3" y="530.0" type="line"/>
      <point x="553.3" y="92.8" type="line"/>
      <point x="458.29999999999995" y="44.2"/>
      <point x="384.7" y="9.4"/>
      <point x="282.1" y="9.4" type="curve" smooth="yes"/>
      <point x="173.6" y="9.4"/>
      <point x="120.0" y="65.8"/>
      <point x="120.0" y="149.1" type="curve" smooth="yes"/>
      <point x="120.0" y="530.0" type="line"/>
      <point x="100.0" y="530.0" type="line"/>
      <point x="100.0" y="149.1" type="line" smooth="yes"/>
      <point x="100.0" y="51.099999999999994"/>
      <point x="162.3" y="-10.0"/>
    </contour>
  </outline>
</glyph>
<glyph name="v" format="2">
  <advance width="599.9"/>
  <unicode hex="0076"/>
  <outline>
    <contour>
      <point x="293.4" y="0.0" type="line"/>
      <point x="305.79999999999995" y="0.0" type="line"/>
      <point x="586.5999999999999" y="525.2" type="line"/>
      <point x="569.4" y="534.8" type="line"/>
      <point x="300.29999999999995" y="31.700000000000003" type="line"/>
      <point x="30.5" y="534.8" type="line"/>
      <point x="13.3" y="525.2" type="line"/>
    </contour>
  </outline>
</glyph>
<glyph name="w" format="2">
  <advance width="911.4999999999999"/>
  <unicode hex="0077"/>
  <anchor x="455.49999999999994" y="530.0" name="top"/>
  <anchor x="455.49999999999994" y="0.0" name="bottom"/>
  <outline>
    <contour>
      <point x="232.99999999999997" y="0.0" type="line"/>
      <point x="247.99999999999997" y="0.0" type="line"/>
      <point x="455.49999999999994" y="501.0" type="line"/>
      <point x="663.5" y="0.0" type="line"/>
      <point x="678.5" y="0.0" type="line"/>
      <point x="896.9999999999999" y="525.5" type="line"/>
      <point x="878.4999999999999" y="534.0" type="line"/>
      <point x="672.5" y="35.0" type="line"/>
      <point x="465.49999999999994" y="530.0" type="line"/>
      <point x="445.49999999999994" y="530.0" type="line"/>
      <point x="241.99999999999997" y="34.0" type="line"/>
      <point x="33.0" y="534.0" type="line"/>
      <point x="14.0" y="525.5" type="line"/>
    </contour>
  </outline>
</glyph>
<glyph name="x" format="2">
  <advance width="633.0"/>
  <unicode hex="0078"/>
  <outline>
    <contour>
      <point x="19.0" y="3.999999999999999" type="line"/>
      <point x="33.0" y="-8.5" type="line"/>
      <point x="316.0" y="259.5" type="line"/>
      <point x="600.0" y="-8.5" type="line"/>
      <point x="614.5" y="3.999999999999999" type="line"/>
      <point x="331.0" y="274.5" type="line"/>
      <point x="596.5" y="524.0" type="line"/>
      <point x="582.0" y="536.5" type="line"/>
      <point x="316.5" y="288.0" type="line"/>
      <point x="51.5" y="536.5" type="line"/>
      <point x="37.0" y="523.5" type="line"/>
      <point x="302.0" y="273.5" type="line"/>
    </contour>
  </outline>
</glyph>
<glyph name="y" format="2">
  <advance width="600.5999999999999"/>
  <unicode hex="0079"/>
  <anchor x="299.29999999999995" y="530.0" name="top"/>
  <anchor x="457.59999999999997" y="0.0" name="bottom"/>
  <outline>
    <contour>
      <point x="222.5" y="-205.9" type="line"/>
      <point x="241.39999999999998" y="-214.4" type="line"/>
      <point x="586.7" y="528.7" type="line"/>
      <point x="568.0999999999999" y="536.9" type="line"/>
      <point x="327.5" y="23.8" type="line"/>
      <point x="30.8" y="537.6" type="line"/>
      <point x="13.6" y="528.0" type="line"/>
      <point x="315.1" y="0.0" type="line"/>
      <point x="317.5" y="0.0" type="line"/>
    </contour>
  </outline>
</glyph>
<glyph name="z" format="2">
  <advance width="608.2"/>
  <unicode hex="007A"/>
  <anchor x="313.4" y="530.0" name="top"/>
  <outline>
    <contour>
      <point x="35.8" y="0.0" type="line"/>
      <point x="579.4" y="0.0" type="line"/>
      <point x="579.4" y="19.7" type="line"/>
      <point x="66.2" y="19.7" type="line"/>
      <point x="548.3" y="512.0" type="line"/>
      <point x="548.3" y="530.0" type="line"/>
      <point x="72.6" y="530.0" type="line"/>
      <point x="72.6" y="510.3" type="line"/>
      <point x="518.2" y="510.3" type="line"/>
      <point x="35.8" y="18.0" type="line"/>
    </contour>
  </outline>
</glyph>
<glyph name="braceleft" format="2">
  <advance width="384.4"/>
  <unicode hex="007B"/>
  <outline>
    <contour>
      <point x="160.7" y="-70.2" type="curve" smooth="yes"/>
      <point x="160.7" y="-141.1"/>
      <point x="189.7" y="-210.0"/>
      <point x="301.1" y="-210.0" type="curve" smooth="yes"/>
      <point x="336.5" y="-210.0" type="line"/>
      <point x="336.5" y="-190.0" type="line"/>
      <point x="301.1" y="-190.0" type="line" smooth="yes"/>
      <point x="205.1" y="-190.0"/>
      <point x="180.7" y="-131.1"/>
      <point x="180.7" y="-70.2" type="curve" smooth="yes"/>
      <point x="180.7" y="5.600000000000001"/>
      <point x="213.7" y="75.9"/>
      <point x="213.7" y="152.5" type="curve" smooth="yes"/>
      <point x="213.7" y="191.8"/>
      <point x="205.1" y="253.2"/>
      <point x="156.6" y="265.0" type="curve"/>
      <point x="204.39999999999998" y="281.1"/>
      <point x="213.7" y="336.8"/>
      <point x="213.7" y="376.1" type="curve" smooth="yes"/>
      <point x="213.7" y="453.4"/>
      <point x="180.7" y="520.2"/>
      <point x="180.7" y="598.8" type="curve" smooth="yes"/>
      <point x="180.7" y="659.7"/>
      <point x="205.1" y="720.0"/>
      <point x="301.1" y="720.0" type="curve" smooth="yes"/>
      <point x="336.5" y="720.0" type="line"/>
      <point x="336.5" y="740.0" type="line"/>
      <point x="301.1" y="740.0" type="line" smooth="yes"/>
      <point x="189.7" y="740.0"/>
      <point x="160.7" y="669.7"/>
      <point x="160.7" y="598.8" type="curve" smooth="yes"/>
      <point x="160.7" y="517.0"/>
      <point x="193.7" y="451.7"/>
      <point x="193.7" y="376.1" type="curve" smooth="yes"/>
      <point x="193.7" y="333.5"/>
      <point x="180.89999999999998" y="275.0"/>
      <point x="134.0" y="275.0" type="curve" smooth="yes"/>
      <point x="113.0" y="275.0" type="line"/>
      <point x="113.0" y="255.0" type="line"/>
      <point x="134.0" y="255.0" type="line" smooth="yes"/>
      <point x="180.89999999999998" y="255.0"/>
      <point x="193.7" y="195.4"/>
      <point x="193.7" y="152.5" type="curve" smooth="yes"/>
      <point x="193.7" y="77.4"/>
      <point x="160.7" y="8.100000000000001"/>
    </contour>
  </outline>
</glyph>
<glyph name="braceright" format="2">
  <advance width="384.4"/>
  <unicode hex="007D"/>
  <outline>
    <contour>
      <point x="47.9" y="-190.0" type="line"/>
      <point x="47.9" y="-210.0" type="line"/>
      <point x="83.6" y="-210.0" type="line" smooth="yes"/>
      <point x="195.0" y="-210.0"/>
      <point x="224.0" y="-141.1"/>
      <point x="224.0" y="-70.2" type="curve" smooth="yes"/>
      <point x="224.0" y="8.100000000000001"/>
      <point x="191.0" y="77.4"/>
      <point x="191.0" y="152.5" type="curve" smooth="yes"/>
      <point x="191.0" y="195.4"/>
      <point x="203.8" y="255.0"/>
      <point x="250.7" y="255.0" type="curve" smooth="yes"/>
      <point x="271.4" y="255.0" type="line"/>
      <point x="271.4" y="275.0" type="line"/>
      <point x="250.7" y="275.0" type="line" smooth="yes"/>
      <point x="203.5" y="275.0"/>
      <point x="191.0" y="333.5"/>
      <point x="191.0" y="376.1" type="curve" smooth="yes"/>
      <point x="191.0" y="451.7"/>
      <point x="224.0" y="517.0"/>
      <point x="224.0" y="598.8" type="curve" smooth="yes"/>
      <point x="224.0" y="669.7"/>
      <point x="195.0" y="740.0"/>
      <point x="83.6" y="740.0" type="curve" smooth="yes"/>
      <point x="47.9" y="740.0" type="line"/>
      <point x="47.9" y="720.0" type="line"/>
      <point x="83.6" y="720.0" type="line" smooth="yes"/>
      <point x="179.3" y="720.0"/>
      <point x="204.0" y="659.7"/>
      <point x="204.0" y="598.8" type="curve" smooth="yes"/>
      <point x="204.0" y="520.2"/>
      <point x="171.0" y="453.4"/>
      <point x="171.0" y="376.1" type="curve" smooth="yes"/>
      <point x="171.0" y="336.8"/>
      <point x="180.0" y="281.1"/>
      <point x="228.1" y="265.0" type="curve"/>
      <point x="179.3" y="253.2"/>
      <point x="171.0" y="191.8"/>
      <point x="171.0" y="152.5" type="curve" smooth="yes"/>
      <point x="171.0" y="75.9"/>
      <point x="204.0" y="5.600000000000001"/>
      <point x="204.0" y="-70.2" type="curve" smooth="yes"/>
      <point x="204.0" y="-131.1"/>
      <point x="179.3" y="-190.0"/>
      <point x="83.6" y="-190.0" type="curve" smooth="yes"/>
    </contour>
  </outline>
</glyph>
<glyph name="asciitilde" format="2">
  <advance width="503.0"/>
  <unicode hex="007E"/>
  <outline>
    <contour>
      <point x="434.3" y="265.0" type="curve"/>
      <point x="434.3" y="289.3" type="line"/>
      <point x="411.0" y="267.5"/>
      <point x="387.5" y="245.3"/>
      <point x="351.8" y="245.3" type="curve" smooth="yes"/>
      <point x="276.0" y="245.3"/>
      <point x="231.9" y="353.0"/>
      <point x="149.0" y="353.0" type="curve" smooth="yes"/>
      <point x="118.0" y="353.0"/>
      <point x="91.0" y="334.9"/>
      <point x="69.0" y="314.7" type="curve"/>
      <point x="69.0" y="289.7" type="line"/>
      <point x="89.5" y="310.1"/>
      <point x="114.4" y="333.0"/>
      <point x="150.1" y="333.0" type="curve" smooth="yes"/>
      <point x="224.1" y="333.0"/>
      <point x="268.5" y="225.3"/>
      <point x="352.9" y="225.3" type="curve" smooth="yes"/>
      <point x="390.2" y="225.3"/>
      <point x="413.0" y="244.8"/>
    </contour>
  </outline>
</glyph>
<glyph name="exclamdown" format="2">
  <advance width="269.4"/>
  <unicode hex="00A1"/>
  <outline>
    <contour>
      <point x="144.7" y="266.0" type="line"/>
      <point x="124.69999999999999" y="266.0" type="line"/>
      <point x="124.69999999999999" y="-210.0" type="line"/>
      <point x="144.7" y="-210.0" type="line"/>
    </contour>
    <contour>
      <point x="150.8" y="513.0" type="curve" smooth="yes"/>
      <point x="150.8" y="529.0"/>
      <point x="150.1" y="530.0"/>
      <point x="134.7" y="530.0" type="curve" smooth="yes"/>
      <point x="120.3" y="530.0"/>
      <point x="118.6" y="529.0"/>
      <point x="118.6" y="513.0" type="curve" smooth="yes"/>
      <point x="118.6" y="497.0"/>
      <point x="119.3" y="496.0"/>
      <point x="134.7" y="496.0" type="curve" smooth="yes"/>
      <point x="150.1" y="496.0"/>
      <point x="150.8" y="497.0"/>
    </contour>
  </outline>
</glyph>
<glyph name="cent" format="2">
  <advance width="798.8"/>
  <unicode hex="00A2"/>
  <outline>
    <contour>
      <point x="414.09999999999997" y="-10.0" type="curve" smooth="yes"/>
      <point x="496.5" y="-10.0"/>
      <point x="599.2" y="1.0999999999999996"/>
      <point x="664.2" y="17.299999999999997" type="curve"/>
      <point x="660.2" y="36.4" type="line"/>
      <point x="596.9" y="21.2"/>
      <point x="493.7" y="9.7"/>
      <point x="416.2" y="9.7" type="curve" smooth="yes"/>
      <point x="249.1" y="9.7"/>
      <point x="154.89999999999998" y="94.5"/>
      <point x="154.89999999999998" y="251.9" type="curve" smooth="yes"/>
      <point x="154.89999999999998" y="424.6"/>
      <point x="262.9" y="520.3"/>
      <point x="442.5" y="520.3" type="curve" smooth="yes"/>
      <point x="517.2" y="520.3"/>
      <point x="567.8" y="513.4"/>
      <point x="648.5999999999999" y="492.9" type="curve"/>
      <point x="652.9" y="512.0" type="line"/>
      <point x="581.4" y="531.7"/>
      <point x="517.5999999999999" y="540.0"/>
      <point x="442.5" y="540.0" type="curve" smooth="yes"/>
      <point x="249.1" y="540.0"/>
      <point x="134.89999999999998" y="435.4"/>
      <point x="134.89999999999998" y="251.9" type="curve" smooth="yes"/>
      <point x="134.89999999999998" y="80.7"/>
      <point x="232.7" y="-10.0"/>
    </contour>
    <contour>
      <point x="405.79999999999995" y="-105.0" type="line"/>
      <point x="425.79999999999995" y="-105.0" type="line"/>
      <point x="425.79999999999995" y="-4.3" type="line"/>
      <point x="405.79999999999995" y="-4.1" type="line"/>
    </contour>
    <contour>
      <point x="405.79999999999995" y="533.1" type="line"/>
      <point x="425.79999999999995" y="535.0" type="line"/>
      <point x="425.79999999999995" y="635.0" type="line"/>
      <point x="405.79999999999995" y="635.0" type="line"/>
    </contour>
  </outline>
</glyph>
<glyph name="currency" format="2">
  <advance width="443.0"/>
  <unicode hex="00A4"/>
  <outline>
    <contour>
      <point x="46.0" y="451.0" type="line"/>
      <point x="120.0" y="376.0" type="line"/>
      <point x="101.0" y="353.0"/>
      <point x="89.0" y="323.0"/>
      <point x="89.0" y="289.0" type="curve" smooth="yes"/>
      <point x="89.0" y="255.0"/>
      <point x="101.0" y="225.0"/>
      <point x="121.0" y="202.0" type="curve"/>
      <point x="46.0" y="127.0" type="line"/>
      <point x="60.0" y="113.0" type="line"/>
      <point x="135.0" y="188.0" type="line"/>
      <point x="158.0" y="168.0"/>
      <point x="188.0" y="157.0"/>
      <point x="221.0" y="157.0" type="curve" smooth="yes"/>
      <point x="254.0" y="157.0"/>
      <point x="285.0" y="168.0"/>
      <point x="308.0" y="188.0" type="curve"/>
      <point x="383.0" y="113.0" type="line"/>
      <point x="397.0" y="127.0" type="line"/>
      <point x="322.0" y="202.0" type="line"/>
      <point x="342.0" y="225.0"/>
      <point x="354.0" y="255.0"/>
      <point x="354.0" y="289.0" type="curve" smooth="yes"/>
      <point x="354.0" y="323.0"/>
      <point x="342.0" y="353.0"/>
      <point x="322.0" y="376.0" type="curve"/>
      <point x="397.0" y="451.0" type="line"/>
      <point x="383.0" y="465.0" type="line"/>
      <point x="308.0" y="390.0" type="line"/>
      <point x="285.0" y="410.0"/>
      <point x="255.0" y="422.0"/>
      <point x="221.0" y="422.0" type="curve" smooth="yes"/>
      <point x="187.0" y="422.0"/>
      <point x="157.0" y="410.0"/>
      <point x="134.0" y="390.0" type="curve"/>
      <point x="60.0" y="465.0" type="line"/>
    </contour>
    <contour>
      <point x="221.0" y="177.0" type="curve" smooth="yes"/>
      <point x="159.0" y="177.0"/>
      <point x="109.0" y="227.0"/>
      <point x="109.0" y="289.0" type="curve" smooth="yes"/>
      <point x="109.0" y="352.0"/>
      <point x="159.0" y="402.0"/>
      <point x="221.0" y="402.0" type="curve" smooth="yes"/>
      <point x="284.0" y="402.0"/>
      <point x="334.0" y="352.0"/>
      <point x="334.0" y="289.0" type="curve" smooth="yes"/>
      <point x="334.0" y="227.0"/>
      <point x="284.0" y="177.0"/>
    </contour>
  </outline>
</glyph>
<glyph name="yen" format="2">
  <advance width="798.9999999999999"/>
  <unicode hex="00A5"/>
  <outline>
    <contour>
      <point x="114.0" y="366.0" type="line"/>
      <point x="395.49999999999994" y="366.0" type="line"/>
      <point x="395.49999999999994" y="205.5" type="line"/>
      <point x="114.0" y="205.5" type="line"/>
      <point x="114.0" y="185.5" type="line"/>
      <point x="395.49999999999994" y="185.5" type="line"/>
      <point x="395.49999999999994" y="0.0" type="line"/>
      <point x="415.49999999999994" y="0.0" type="line"/>
      <point x="415.49999999999994" y="185.5" type="line"/>
      <point x="697.5" y="185.5" type="line"/>
      <point x="697.5" y="205.5" type="line"/>
      <point x="415.49999999999994" y="205.5" type="line"/>
      <point x="415.49999999999994" y="366.0" type="line"/>
      <point x="697.5" y="366.0" type="line"/>
      <point x="697.5" y="386.0" type="line"/>
      <point x="415.49999999999994" y="386.0" type="line"/>
      <point x="724.0" y="693.5" type="line"/>
      <point x="710.0" y="706.5" type="line"/>
      <point x="405.49999999999994" y="405.0" type="line"/>
      <point x="89.0" y="706.5" type="line"/>
      <point x="75.0" y="693.5" type="line"/>
      <point x="395.49999999999994" y="386.0" type="line"/>
      <point x="114.0" y="386.0" type="line"/>
    </contour>
  </outline>
</glyph>
<glyph name="brokenbar" format="2">
  <advance width="245.2"/>
  <unicode hex="00A6"/>
  <outline>
    <contour>
      <point x="132.6" y="391.0" type="line"/>
      <point x="132.6" y="790.0" type="line"/>
      <point x="112.6" y="790.0" type="line"/>
      <point x="112.6" y="391.0" type="line"/>
    </contour>
    <contour>
      <point x="112.6" y="190.0" type="line"/>
      <point x="112.6" y="-210.0" type="line"/>
      <point x="132.6" y="-210.0" type="line"/>
      <point x="132.6" y="190.0" type="line"/>
    </contour>
  </outline>
</glyph>
<glyph name="section" format="2">
  <advance width="577.5999999999999"/>
  <unicode hex="00A7"/>
  <outline>
    <contour>
      <point x="268.0" y="-220.0" type="curve" smooth="yes"/>
      <point x="430.5" y="-220.0"/>
      <point x="535.0" y="-114.6"/>
      <point x="535.0" y="39.7" type="curve" smooth="yes"/>
      <point x="535.0" y="130.1"/>
      <point x="501.79999999999995" y="216.2"/>
      <point x="401.2" y="395.2" type="curve" smooth="yes"/>
      <point x="322.7" y="535.7"/>
      <point x="301.9" y="578.9"/>
      <point x="301.9" y="628.7" type="curve" smooth="yes"/>
      <point x="301.9" y="688.4"/>
      <point x="342.4" y="725.4"/>
      <point x="408.79999999999995" y="725.4" type="curve" smooth="yes"/>
      <point x="436.5" y="725.4"/>
      <point x="467.79999999999995" y="719.9"/>
      <point x="513.3" y="705.2" type="curve"/>
      <point x="519.9" y="722.3" type="line"/>
      <point x="466.2" y="741.1"/>
      <point x="411.1" y="749.7"/>
      <point x="354.6" y="749.7" type="curve" smooth="yes"/>
      <point x="185.7" y="749.7"/>
      <point x="75.5" y="644.3"/>
      <point x="74.5" y="477.6" type="curve" smooth="yes"/>
      <point x="74.5" y="369.0"/>
      <point x="109.0" y="276.1"/>
      <point x="204.6" y="122.5" type="curve" smooth="yes"/>
      <point x="265.0" y="18.099999999999994"/>
      <point x="295.5" y="-27.5"/>
      <point x="296.2" y="-93.7" type="curve" smooth="yes"/>
      <point x="296.9" y="-148.1"/>
      <point x="253.2" y="-189.4"/>
      <point x="196.7" y="-189.4" type="curve" smooth="yes"/>
      <point x="151.3" y="-189.4"/>
      <point x="116.3" y="-174.1"/>
      <point x="53.2" y="-126.30000000000001" type="curve"/>
      <point x="42.599999999999994" y="-141.7" type="line"/>
      <point x="121.89999999999999" y="-201.2"/>
      <point x="176.39999999999998" y="-220.0"/>
    </contour>
    <contour>
      <point x="268.6" y="-202.8" type="curve" smooth="yes"/>
      <point x="230.89999999999998" y="-202.8"/>
      <point x="204.39999999999998" y="-200.1"/>
      <point x="180.6" y="-193.6" type="curve"/>
      <point x="195.2" y="-203.8" type="line"/>
      <point x="262.3" y="-207.0"/>
      <point x="314.9" y="-157.0"/>
      <point x="314.9" y="-94.0" type="curve" smooth="yes"/>
      <point x="314.9" y="-35.2"/>
      <point x="299.1" y="4.699999999999999"/>
      <point x="220.5" y="132.0" type="curve" smooth="yes"/>
      <point x="125.39999999999999" y="289.3"/>
      <point x="94.19999999999999" y="371.8"/>
      <point x="94.19999999999999" y="477.6" type="curve" smooth="yes"/>
      <point x="94.19999999999999" y="631.2"/>
      <point x="196.6" y="731.6"/>
      <point x="351.29999999999995" y="731.6" type="curve" smooth="yes"/>
      <point x="364.4" y="731.6"/>
      <point x="377.9" y="730.9"/>
      <point x="393.7" y="729.2" type="curve"/>
      <point x="390.1" y="737.1" type="line"/>
      <point x="322.0" y="734.9"/>
      <point x="282.6" y="689.1"/>
      <point x="281.9" y="627.3" type="curve" smooth="yes"/>
      <point x="281.9" y="574.1"/>
      <point x="305.29999999999995" y="524.2"/>
      <point x="385.0" y="386.0" type="curve" smooth="yes"/>
      <point x="483.1" y="210.6"/>
      <point x="515.5999999999999" y="127.1"/>
      <point x="515.5999999999999" y="39.7" type="curve" smooth="yes"/>
      <point x="516.3" y="-104.8"/>
      <point x="420.79999999999995" y="-202.1"/>
    </contour>
  </outline>
</glyph>
<glyph name="copyright" format="2">
  <advance width="865.5999999999999"/>
  <unicode hex="00A9"/>
  <outline>
    <contour>
      <point x="432.79999999999995" y="9.1" type="curve" smooth="yes"/>
      <point x="242.39999999999998" y="9.1"/>
      <point x="80.1" y="85.3"/>
      <point x="80.1" y="350.0" type="curve" smooth="yes"/>
      <point x="80.1" y="615.0"/>
      <point x="242.39999999999998" y="690.9"/>
      <point x="432.79999999999995" y="690.9" type="curve" smooth="yes"/>
      <point x="623.2" y="690.9"/>
      <point x="785.5" y="615.0"/>
      <point x="785.5" y="350.0" type="curve" smooth="yes"/>
      <point x="785.5" y="85.3"/>
      <point x="623.2" y="9.1"/>
    </contour>
    <contour>
      <point x="432.79999999999995" y="710.0" type="curve" smooth="yes"/>
      <point x="231.2" y="710.0"/>
      <point x="61.0" y="631.0"/>
      <point x="61.0" y="350.0" type="curve" smooth="yes"/>
      <point x="61.0" y="69.3"/>
      <point x="231.2" y="-10.0"/>
      <point x="432.79999999999995" y="-10.0" type="curve" smooth="yes"/>
      <point x="634.4" y="-10.0"/>
      <point x="804.5999999999999" y="69.3"/>
      <point x="804.5999999999999" y="350.0" type="curve" smooth="yes"/>
      <point x="804.5999999999999" y="631.0"/>
      <point x="634.4" y="710.0"/>
    </contour>
    <contour>
      <point x="262.7" y="334.6" type="curve" smooth="yes"/>
      <point x="262.7" y="224.4"/>
      <point x="327.0" y="175.1"/>
      <point x="429.79999999999995" y="175.1" type="curve" smooth="yes"/>
      <point x="505.7" y="175.1"/>
      <point x="561.5999999999999" y="186.9"/>
      <point x="591.2" y="193.8" type="curve"/>
      <point x="585.8" y="213.2" type="line"/>
      <point x="556.4" y="205.6"/>
      <point x="503.0" y="194.8"/>
      <point x="429.79999999999995" y="194.8" type="curve" smooth="yes"/>
      <point x="333.5" y="194.8"/>
      <point x="282.7" y="239.7"/>
      <point x="282.7" y="334.6" type="curve" smooth="yes"/>
      <point x="282.7" y="452.2"/>
      <point x="352.2" y="492.0"/>
      <point x="452.79999999999995" y="492.0" type="curve" smooth="yes"/>
      <point x="497.9" y="492.0"/>
      <point x="528.3" y="488.5"/>
      <point x="567.4" y="477.8" type="curve"/>
      <point x="572.8" y="497.2" type="line"/>
      <point x="533.4" y="507.9"/>
      <point x="499.29999999999995" y="511.7"/>
      <point x="452.79999999999995" y="511.7" type="curve" smooth="yes"/>
      <point x="345.0" y="511.7"/>
      <point x="262.7" y="466.1"/>
    </contour>
  </outline>
</glyph>
<glyph name="ordfeminine" format="2">
  <advance width="424.2"/>
  <unicode hex="00AA"/>
  <outline>
    <contour>
      <point x="60.8" y="283.1" type="line"/>
      <point x="376.9" y="283.1" type="line"/>
      <point x="376.9" y="299.7" type="line"/>
      <point x="60.8" y="299.7" type="line"/>
    </contour>
    <component base="a.superior" xOffset="14.1"/>
  </outline>
</glyph>
<glyph name="registered" format="2">
  <advance width="828.6999999999999"/>
  <unicode hex="00AE"/>
  <outline>
    <contour>
      <point x="414.5" y="208.7" type="curve" smooth="yes"/>
      <point x="605.8" y="208.7"/>
      <point x="767.6999999999999" y="284.0"/>
      <point x="767.6999999999999" y="550.7" type="curve" smooth="yes"/>
      <point x="767.6999999999999" y="817.7"/>
      <point x="605.8" y="892.7"/>
      <point x="414.5" y="892.7" type="curve" smooth="yes"/>
      <point x="223.2" y="892.7"/>
      <point x="61.0" y="817.7"/>
      <point x="61.0" y="550.7" type="curve" smooth="yes"/>
      <point x="61.0" y="284.0"/>
      <point x="223.2" y="208.7"/>
    </contour>
    <contour>
      <point x="414.5" y="226.8" type="curve" smooth="yes"/>
      <point x="233.39999999999998" y="226.8"/>
      <point x="79.4" y="299.0"/>
      <point x="79.4" y="550.7" type="curve" smooth="yes"/>
      <point x="79.4" y="802.7"/>
      <point x="233.39999999999998" y="874.6"/>
      <point x="414.5" y="874.6" type="curve" smooth="yes"/>
      <point x="595.5999999999999" y="874.6"/>
      <point x="749.6" y="802.7"/>
      <point x="749.6" y="550.7" type="curve" smooth="yes"/>
      <point x="749.6" y="299.0"/>
      <point x="595.5999999999999" y="226.8"/>
    </contour>
    <contour>
      <point x="608.4" y="398.2" type="curve" smooth="yes"/>
      <point x="611.4" y="398.2"/>
      <point x="613.0999999999999" y="398.2"/>
      <point x="616.7" y="398.5" type="curve"/>
      <point x="615.8" y="417.2" type="line"/>
      <point x="613.8" y="416.9"/>
      <point x="612.0999999999999" y="416.9"/>
      <point x="610.0999999999999" y="416.9" type="curve" smooth="yes"/>
      <point x="574.3" y="416.9"/>
      <point x="515.3" y="461.3"/>
      <point x="456.5" y="537.2" type="curve"/>
      <point x="523.0999999999999" y="545.5"/>
      <point x="555.5" y="570.7"/>
      <point x="555.5" y="627.8" type="curve" smooth="yes"/>
      <point x="555.5" y="693.4"/>
      <point x="512.5999999999999" y="712.5"/>
      <point x="393.5" y="712.5" type="curve" smooth="yes"/>
      <point x="348.9" y="712.5"/>
      <point x="323.0" y="711.9"/>
      <point x="278.29999999999995" y="708.6" type="curve"/>
      <point x="278.29999999999995" y="399.5" type="line"/>
      <point x="297.29999999999995" y="399.5" type="line"/>
      <point x="297.29999999999995" y="536.7" type="line"/>
      <point x="340.0" y="535.7"/>
      <point x="370.79999999999995" y="534.7"/>
      <point x="407.59999999999997" y="534.7" type="curve" smooth="yes"/>
      <point x="415.09999999999997" y="534.7"/>
      <point x="422.59999999999997" y="534.7"/>
      <point x="430.09999999999997" y="535.0" type="curve"/>
      <point x="491.7" y="451.4"/>
      <point x="565.4" y="398.2"/>
    </contour>
    <contour>
      <point x="406.4" y="553.4" type="curve" smooth="yes"/>
      <point x="369.9" y="553.4"/>
      <point x="339.4" y="554.1"/>
      <point x="297.29999999999995" y="555.1" type="curve"/>
      <point x="297.29999999999995" y="690.1" type="line"/>
      <point x="339.9" y="692.8"/>
      <point x="350.7" y="693.8"/>
      <point x="393.8" y="693.8" type="curve" smooth="yes"/>
      <point x="507.09999999999997" y="693.8"/>
      <point x="536.5" y="676.8"/>
      <point x="536.5" y="627.2" type="curve" smooth="yes"/>
      <point x="536.5" y="564.5"/>
      <point x="482.59999999999997" y="553.4"/>
    </contour>
  </outline>
</glyph>
<glyph name="degree" format="2">
  <advance width="253.0"/>
  <unicode hex="00B0"/>
  <outline>
    <contour>
      <point x="125.5" y="520.0" type="curve" smooth="yes"/>
      <point x="181.0" y="520.0"/>
      <point x="223.0" y="566.0"/>
      <point x="223.0" y="623.0" type="curve" smooth="yes"/>
      <point x="223.0" y="680.0"/>
      <point x="181.0" y="728.0"/>
      <point x="125.5" y="728.0" type="curve" smooth="yes"/>
      <point x="70.0" y="728.0"/>
      <point x="30.0" y="680.0"/>
      <point x="30.0" y="623.0" type="curve" smooth="yes"/>
      <point x="30.0" y="566.0"/>
      <point x="70.0" y="520.0"/>
    </contour>
    <contour>
      <point x="125.5" y="540.0" type="curve" smooth="yes"/>
      <point x="81.0" y="540.0"/>
      <point x="50.0" y="577.0"/>
      <point x="50.0" y="623.0" type="curve" smooth="yes"/>
      <point x="50.0" y="669.0"/>
      <point x="81.0" y="708.0"/>
      <point x="125.5" y="708.0" type="curve" smooth="yes"/>
      <point x="170.0" y="708.0"/>
      <point x="203.0" y="669.0"/>
      <point x="203.0" y="623.0" type="curve" smooth="yes"/>
      <point x="203.0" y="577.0"/>
      <point x="170.0" y="540.0"/>
    </contour>
  </outline>
</glyph>
<glyph name="plusminus" format="2">
  <advance width="512.6"/>
  <unicode hex="00B1"/>
  <outline>
    <contour>
      <point x="55.8" y="72.0" type="line"/>
      <point x="456.8" y="72.0" type="line"/>
      <point x="456.8" y="92.0" type="line"/>
      <point x="266.3" y="92.0" type="line"/>
      <point x="266.3" y="298.0" type="line"/>
      <point x="456.8" y="298.0" type="line"/>
      <point x="456.8" y="318.0" type="line"/>
      <point x="266.3" y="318.0" type="line"/>
      <point x="266.3" y="518.1" type="line"/>
      <point x="246.3" y="518.1" type="line"/>
      <point x="246.3" y="318.0" type="line"/>
      <point x="55.8" y="318.0" type="line"/>
      <point x="55.8" y="298.0" type="line"/>
      <point x="246.3" y="298.0" type="line"/>
      <point x="246.3" y="92.0" type="line"/>
      <point x="55.8" y="92.0" type="line"/>
    </contour>
  </outline>
</glyph>
<glyph name="uni00B2" format="2">
  <advance width="525.9"/>
  <unicode hex="00B2"/>
  <outline>
    <contour>
      <point x="78.2" y="370.0" type="line"/>
      <point x="451.5" y="370.0" type="line"/>
      <point x="451.5" y="386.0" type="line"/>
      <point x="112.4" y="386.0" type="line"/>
      <point x="335.4" y="524.8"/>
      <point x="378.2" y="579.9"/>
      <point x="378.2" y="655.7" type="curve" smooth="yes"/>
      <point x="378.2" y="729.2"/>
      <point x="329.9" y="771.8"/>
      <point x="239.7" y="771.8" type="curve" smooth="yes"/>
      <point x="191.7" y="771.8"/>
      <point x="136.6" y="759.5"/>
      <point x="95.4" y="736.2" type="curve"/>
      <point x="102.0" y="722.1" type="line"/>
      <point x="140.8" y="743.7"/>
      <point x="191.6" y="753.7"/>
      <point x="238.0" y="753.7" type="curve" smooth="yes"/>
      <point x="316.9" y="753.7"/>
      <point x="358.79999999999995" y="716.2"/>
      <point x="358.79999999999995" y="653.4" type="curve" smooth="yes"/>
      <point x="358.79999999999995" y="580.9"/>
      <point x="303.5" y="521.1"/>
      <point x="75.2" y="384.0" type="curve"/>
    </contour>
  </outline>
</glyph>
<glyph name="uni00B3" format="2">
  <advance width="489.5"/>
  <unicode hex="00B3"/>
  <outline>
    <contour>
      <point x="30.6" y="404.3" type="line"/>
      <point x="86.6" y="373.6"/>
      <point x="146.6" y="360.0"/>
      <point x="228.7" y="360.0" type="curve" smooth="yes"/>
      <point x="361.9" y="360.0"/>
      <point x="441.4" y="406.4"/>
      <point x="441.4" y="483.5" type="curve" smooth="yes"/>
      <point x="441.4" y="538.3"/>
      <point x="396.2" y="572.9"/>
      <point x="315.79999999999995" y="577.3" type="curve"/>
      <point x="374.5" y="585.1"/>
      <point x="408.6" y="619.4"/>
      <point x="408.6" y="668.3" type="curve" smooth="yes"/>
      <point x="408.6" y="733.0"/>
      <point x="340.2" y="772.6"/>
      <point x="225.6" y="772.6" type="curve" smooth="yes"/>
      <point x="147.39999999999998" y="772.6"/>
      <point x="92.6" y="759.3"/>
      <point x="63.1" y="749.8" type="curve"/>
      <point x="67.6" y="733.9" type="line"/>
      <point x="104.19999999999999" y="743.2"/>
      <point x="148.5" y="754.9"/>
      <point x="224.3" y="754.9" type="curve" smooth="yes"/>
      <point x="328.1" y="754.9"/>
      <point x="389.5" y="721.9"/>
      <point x="389.5" y="666.2" type="curve" smooth="yes"/>
      <point x="389.5" y="615.3"/>
      <point x="343.5" y="583.6"/>
      <point x="255.89999999999998" y="583.6" type="curve" smooth="yes"/>
      <point x="144.7" y="583.6" type="line"/>
      <point x="144.7" y="568.3" type="line"/>
      <point x="255.2" y="568.3" type="line" smooth="yes"/>
      <point x="368.7" y="568.3"/>
      <point x="421.7" y="541.7"/>
      <point x="421.7" y="483.5" type="curve" smooth="yes"/>
      <point x="421.7" y="416.4"/>
      <point x="349.2" y="376.3"/>
      <point x="228.39999999999998" y="376.3" type="curve" smooth="yes"/>
      <point x="148.6" y="376.3"/>
      <point x="90.4" y="389.3"/>
      <point x="37.8" y="419.1" type="curve"/>
    </contour>
  </outline>
</glyph>
<glyph name="uni00B5" format="2">
  <advance width="689.7"/>
  <unicode hex="00B5"/>
  <outline>
    <contour>
      <point x="100.0" y="-210.0" type="line"/>
      <point x="120.0" y="-210.0" type="line"/>
      <point x="120.0" y="67.0" type="line"/>
      <point x="145.89999999999998" y="17.7"/>
      <point x="199.5" y="-10.0"/>
      <point x="280.0" y="-10.0" type="curve" smooth="yes"/>
      <point x="386.1" y="-10.0"/>
      <point x="461.2" y="25.2"/>
      <point x="555.5999999999999" y="73.8" type="curve"/>
      <point x="562.8" y="14.0"/>
      <point x="600.2" y="-10.0"/>
      <point x="635.0" y="-10.0" type="curve" smooth="yes"/>
      <point x="648.5" y="-10.0"/>
      <point x="662.3" y="-7.3"/>
      <point x="678.4" y="-1.0" type="curve"/>
      <point x="672.0999999999999" y="15.3" type="line"/>
      <point x="661.4" y="10.3"/>
      <point x="649.5999999999999" y="7.6"/>
      <point x="638.5" y="7.6" type="curve" smooth="yes"/>
      <point x="603.8" y="7.6"/>
      <point x="573.3" y="30.299999999999997"/>
      <point x="573.3" y="107.5" type="curve" smooth="yes"/>
      <point x="573.3" y="530.0" type="line"/>
      <point x="553.3" y="530.0" type="line"/>
      <point x="553.3" y="92.8" type="line"/>
      <point x="458.29999999999995" y="44.2"/>
      <point x="384.7" y="9.4"/>
      <point x="282.1" y="9.4" type="curve" smooth="yes"/>
      <point x="173.6" y="9.4"/>
      <point x="120.0" y="65.8"/>
      <point x="120.0" y="149.1" type="curve" smooth="yes"/>
      <point x="120.0" y="530.0" type="line"/>
      <point x="100.0" y="530.0" type="line"/>
    </contour>
  </outline>
</glyph>
<glyph name="paragraph" format="2">
  <advance width="661.8"/>
  <unicode hex="00B6"/>
  <outline>
    <contour>
      <point x="538.3" y="-210.0" type="line"/>
      <point x="558.3" y="-210.0" type="line"/>
      <point x="558.3" y="740.0" type="line"/>
      <point x="538.3" y="740.0" type="line"/>
    </contour>
    <contour>
      <point x="285.9" y="202.7" type="line"/>
      <point x="137.5" y="217.1"/>
      <point x="70.3" y="308.4"/>
      <point x="70.3" y="464.8" type="curve" smooth="yes"/>
      <point x="70.3" y="629.0"/>
      <point x="158.5" y="717.0"/>
      <point x="366.7" y="720.6" type="curve"/>
      <point x="366.7" y="-210.0" type="line"/>
      <point x="386.7" y="-210.0" type="line"/>
      <point x="386.7" y="740.0" type="line"/>
      <point x="373.1" y="740.0" type="line" smooth="yes"/>
      <point x="146.5" y="740.0"/>
      <point x="50.3" y="640.8"/>
      <point x="50.3" y="464.8" type="curve" smooth="yes"/>
      <point x="50.3" y="297.6"/>
      <point x="123.5" y="199.4"/>
      <point x="284.2" y="182.7" type="curve"/>
    </contour>
  </outline>
</glyph>
<glyph name="periodcentered" format="2">
  <advance width="181.7"/>
  <unicode hex="00B7"/>
  <outline>
    <contour>
      <point x="75.1" y="287.0" type="curve" smooth="yes"/>
      <point x="75.1" y="271.0"/>
      <point x="76.8" y="270.0"/>
      <point x="91.19999999999999" y="270.0" type="curve" smooth="yes"/>
      <point x="106.6" y="270.0"/>
      <point x="107.3" y="271.0"/>
      <point x="107.3" y="287.0" type="curve" smooth="yes"/>
      <point x="107.3" y="303.0"/>
      <point x="106.6" y="304.0"/>
      <point x="91.19999999999999" y="304.0" type="curve" smooth="yes"/>
      <point x="75.8" y="304.0"/>
      <point x="75.1" y="303.0"/>
    </contour>
  </outline>
</glyph>
<glyph name="uni00B9" format="2">
  <advance width="464.59999999999997"/>
  <unicode hex="00B9"/>
  <outline>
    <contour>
      <point x="33.6" y="370.0" type="line"/>
      <point x="433.1" y="370.0" type="line"/>
      <point x="433.1" y="386.3" type="line"/>
      <point x="260.9" y="386.3" type="line"/>
      <point x="260.9" y="768.6" type="line"/>
      <point x="250.2" y="768.6" type="line"/>
      <point x="30.8" y="665.3" type="line"/>
      <point x="37.4" y="649.6" type="line"/>
      <point x="241.89999999999998" y="744.1" type="line"/>
      <point x="241.89999999999998" y="386.3" type="line"/>
      <point x="33.6" y="386.3" type="line"/>
    </contour>
  </outline>
</glyph>
<glyph name="ordmasculine" format="2">
  <advance width="454.2"/>
  <unicode hex="00BA"/>
  <outline>
    <contour>
      <point x="73.6" y="283.8" type="line"/>
      <point x="395.29999999999995" y="283.8" type="line"/>
      <point x="395.29999999999995" y="300.4" type="line"/>
      <point x="73.6" y="300.4" type="line"/>
    </contour>
    <component base="o.superior" xOffset="11.600000000000001"/>
  </outline>
</glyph>
<glyph name="questiondown" format="2">
  <advance width="550.5"/>
  <unicode hex="00BF"/>
  <outline>
    <contour>
      <point x="303.7" y="268.1" type="line"/>
      <point x="283.7" y="268.1" type="line"/>
      <point x="283.7" y="198.5" type="line"/>
      <point x="120.5" y="144.8"/>
      <point x="37.9" y="90.6"/>
      <point x="37.9" y="-24.900000000000002" type="curve" smooth="yes"/>
      <point x="37.9" y="-173.0"/>
      <point x="162.3" y="-220.0"/>
      <point x="269.6" y="-220.0" type="curve" smooth="yes"/>
      <point x="358.79999999999995" y="-220.0"/>
      <point x="455.79999999999995" y="-196.9"/>
      <point x="529.4" y="-148.1" type="curve"/>
      <point x="518.8" y="-131.6" type="line"/>
      <point x="445.7" y="-179.3"/>
      <point x="353.0" y="-200.3"/>
      <point x="269.6" y="-200.3" type="curve" smooth="yes"/>
      <point x="171.39999999999998" y="-200.3"/>
      <point x="58.2" y="-154.6"/>
      <point x="58.2" y="-25.5" type="curve" smooth="yes"/>
      <point x="58.2" y="65.8"/>
      <point x="122.8" y="134.1"/>
      <point x="303.7" y="184.6" type="curve"/>
    </contour>
    <contour>
      <point x="305.2" y="513.0" type="curve" smooth="yes"/>
      <point x="305.2" y="529.0"/>
      <point x="302.9" y="530.0"/>
      <point x="288.79999999999995" y="530.0" type="curve" smooth="yes"/>
      <point x="273.7" y="530.0"/>
      <point x="272.7" y="529.0"/>
      <point x="272.7" y="513.0" type="curve" smooth="yes"/>
      <point x="272.7" y="497.0"/>
      <point x="273.7" y="496.0"/>
      <point x="288.79999999999995" y="496.0" type="curve" smooth="yes"/>
      <point x="304.2" y="496.0"/>
      <point x="305.2" y="497.0"/>
    </contour>
  </outline>
</glyph>
<glyph name="AE" format="2">
  <advance width="1217.1999999999998"/>
  <unicode hex="00C6"/>
  <anchor x="604.2" y="700.0" name="top"/>
  <outline>
    <contour>
      <point x="6.700000000000001" y="0.0" type="line"/>
      <point x="32.3" y="-0.30000000000000004" type="line"/>
      <point x="295.6" y="321.1" type="line"/>
      <point x="590.0" y="321.1" type="line"/>
      <point x="590.0" y="0.0" type="line"/>
      <point x="1176.8" y="0.0" type="line"/>
      <point x="1176.8" y="20.0" type="line"/>
      <point x="610.0" y="20.0" type="line"/>
      <point x="610.0" y="320.8" type="line"/>
      <point x="1126.6" y="320.8" type="line"/>
      <point x="1126.6" y="340.8" type="line"/>
      <point x="610.0" y="340.8" type="line"/>
      <point x="610.0" y="680.0" type="line"/>
      <point x="1153.5" y="680.0" type="line"/>
      <point x="1153.5" y="700.0" type="line"/>
      <point x="583.0" y="700.0" type="line"/>
    </contour>
    <contour>
      <point x="311.79999999999995" y="340.8" type="line"/>
      <point x="590.0" y="678.9" type="line"/>
      <point x="590.0" y="340.8" type="line"/>
    </contour>
  </outline>
</glyph>
<glyph name="multiply" format="2">
  <advance width="497.0"/>
  <unicode hex="00D7"/>
  <outline>
    <contour>
      <point x="81.8" y="78.1" type="line"/>
      <point x="248.89999999999998" y="271.9" type="line"/>
      <point x="414.5" y="80.5" type="line"/>
      <point x="429.7" y="93.0" type="line"/>
      <point x="262.3" y="288.0" type="line"/>
      <point x="430.79999999999995" y="485.0" type="line"/>
      <point x="415.6" y="497.5" type="line"/>
      <point x="248.89999999999998" y="304.4" type="line"/>
      <point x="81.1" y="498.9" type="line"/>
      <point x="65.9" y="486.4" type="line"/>
      <point x="235.8" y="288.0" type="line"/>
      <point x="66.6" y="90.6" type="line"/>
    </contour>
  </outline>
</glyph>
<glyph name="Oslash" format="2">
  <advance width="970.0"/>
  <unicode hex="00D8"/>
  <anchor x="482.49999999999994" y="700.0" name="top"/>
  <outline>
    <contour>
      <point x="102.5" y="-10.0" type="line"/>
      <point x="200.99999999999997" y="79.0" type="line"/>
      <point x="201.0" y="79.0" type="line"/>
      <point x="785.4999999999999" y="609.5" type="line"/>
      <point x="785.4999999999999" y="609.5" type="line"/>
      <point x="895.9999999999999" y="710.0" type="line"/>
      <point x="864.9999999999999" y="710.0" type="line"/>
      <point x="770.4999999999999" y="624.5" type="line"/>
      <point x="769.9999999999999" y="624.0" type="line"/>
      <point x="185.5" y="93.0" type="line"/>
      <point x="185.5" y="93.0" type="line"/>
      <point x="72.0" y="-10.0" type="line"/>
    </contour>
    <contour>
      <point x="482.49999999999994" y="9.5" type="curve" smooth="yes"/>
      <point x="303.0" y="9.5"/>
      <point x="92.0" y="76.5"/>
      <point x="92.0" y="349.5" type="curve" smooth="yes"/>
      <point x="92.0" y="632.0"/>
      <point x="303.0" y="690.5"/>
      <point x="482.49999999999994" y="690.5" type="curve" smooth="yes"/>
      <point x="663.0" y="690.5"/>
      <point x="874.9999999999999" y="633.0"/>
      <point x="874.9999999999999" y="349.5" type="curve" smooth="yes"/>
      <point x="874.9999999999999" y="66.5"/>
      <point x="663.0" y="9.5"/>
    </contour>
    <contour>
      <point x="482.49999999999994" y="-10.0" type="curve" smooth="yes"/>
      <point x="680.0" y="-10.0"/>
      <point x="895.9999999999999" y="52.0"/>
      <point x="895.9999999999999" y="353.0" type="curve" smooth="yes"/>
      <point x="895.9999999999999" y="648.0"/>
      <point x="671.5" y="710.0"/>
      <point x="482.49999999999994" y="710.0" type="curve" smooth="yes"/>
      <point x="291.0" y="710.0"/>
      <point x="72.0" y="645.5"/>
      <point x="72.0" y="349.5" type="curve" smooth="yes"/>
      <point x="72.0" y="64.0"/>
      <point x="291.0" y="-10.0"/>
    </contour>
  </outline>
</glyph>
<glyph name="Thorn" format="2">
  <advance width="808.0"/>
  <unicode hex="00DE"/>
  <outline>
    <contour>
      <point x="112.3" y="0.0" type="line"/>
      <point x="132.3" y="0.0" type="line"/>
      <point x="132.3" y="174.4" type="line"/>
      <point x="248.7" y="171.3"/>
      <point x="312.7" y="170.6"/>
      <point x="405.7" y="170.6" type="curve" smooth="yes"/>
      <point x="652.8" y="170.6"/>
      <point x="748.6" y="224.9"/>
      <point x="748.6" y="402.6" type="curve" smooth="yes"/>
      <point x="748.6" y="559.2"/>
      <point x="680.8" y="620.9"/>
      <point x="389.09999999999997" y="620.9" type="curve" smooth="yes"/>
      <point x="341.5" y="620.9"/>
      <point x="279.9" y="619.2"/>
      <point x="132.3" y="613.0" type="curve"/>
      <point x="132.3" y="700.0" type="line"/>
      <point x="112.3" y="700.0" type="line"/>
    </contour>
    <contour>
      <point x="406.0" y="190.6" type="curve" smooth="yes"/>
      <point x="299.0" y="190.6"/>
      <point x="243.29999999999998" y="192.7"/>
      <point x="132.3" y="195.1" type="curve"/>
      <point x="132.3" y="593.3" type="line"/>
      <point x="281.29999999999995" y="599.8"/>
      <point x="339.0" y="601.5"/>
      <point x="389.4" y="601.5" type="curve" smooth="yes"/>
      <point x="662.7" y="601.5"/>
      <point x="728.6" y="544.9"/>
      <point x="728.6" y="401.7" type="curve" smooth="yes"/>
      <point x="728.6" y="246.7"/>
      <point x="653.4" y="190.6"/>
    </contour>
  </outline>
</glyph>
<glyph name="germandbls" format="2">
  <advance width="742.0"/>
  <unicode hex="00DF"/>
  <outline>
    <contour>
      <point x="150.0" y="0.0" type="line"/>
      <point x="170.0" y="0.0" type="line"/>
      <point x="170.0" y="502.5" type="line" smooth="yes"/>
      <point x="170.0" y="652.0"/>
      <point x="251.5" y="730.5"/>
      <point x="421.5" y="730.5" type="curve" smooth="yes"/>
      <point x="558.5" y="730.5"/>
      <point x="605.5" y="707.5"/>
      <point x="605.5" y="638.0" type="curve" smooth="yes"/>
      <point x="605.5" y="583.0"/>
      <point x="565.5" y="560.5"/>
      <point x="459.0" y="532.5" type="curve" smooth="yes"/>
      <point x="352.5" y="506.0"/>
      <point x="307.5" y="472.5"/>
      <point x="307.5" y="405.0" type="curve" smooth="yes"/>
      <point x="307.5" y="330.5"/>
      <point x="360.5" y="293.5"/>
      <point x="519.5" y="261.0" type="curve" smooth="yes"/>
      <point x="673.5" y="229.0"/>
      <point x="716.0" y="199.5"/>
      <point x="716.0" y="129.5" type="curve" smooth="yes"/>
      <point x="716.0" y="54.0"/>
      <point x="626.0" y="9.5"/>
      <point x="509.49999999999994" y="9.5" type="curve" smooth="yes"/>
      <point x="433.5" y="9.5"/>
      <point x="337.0" y="26.0"/>
      <point x="260.5" y="51.0" type="curve"/>
      <point x="253.5" y="32.0" type="line"/>
      <point x="330.5" y="5.999999999999998"/>
      <point x="430.0" y="-10.5"/>
      <point x="509.49999999999994" y="-10.5" type="curve" smooth="yes"/>
      <point x="639.0" y="-10.5"/>
      <point x="736.0" y="41.0"/>
      <point x="736.0" y="129.5" type="curve" smooth="yes"/>
      <point x="736.0" y="209.0"/>
      <point x="685.0" y="247.5"/>
      <point x="531.0" y="279.0" type="curve" smooth="yes"/>
      <point x="378.5" y="309.5"/>
      <point x="327.5" y="340.5"/>
      <point x="327.5" y="405.0" type="curve" smooth="yes"/>
      <point x="327.5" y="463.5"/>
      <point x="370.5" y="491.5"/>
      <point x="461.5" y="514.5" type="curve" smooth="yes"/>
      <point x="577.5" y="544.5"/>
      <point x="625.5" y="573.0"/>
      <point x="625.5" y="638.5" type="curve" smooth="yes"/>
      <point x="625.5" y="718.0"/>
      <point x="563.5" y="750.0"/>
      <point x="423.0" y="750.0" type="curve" smooth="yes"/>
      <point x="240.5" y="750.0"/>
      <point x="152.0" y="669.0"/>
      <point x="150.0" y="512.5" type="curve" smooth="yes"/>
      <point x="150.0" y="484.0" type="line"/>
      <point x="35.0" y="478.5" type="line"/>
      <point x="35.0" y="464.0" type="line"/>
      <point x="150.0" y="464.0" type="line"/>
    </contour>
  </outline>
</glyph>
<glyph name="ae" format="2">
  <advance width="1084.5"/>
  <unicode hex="00E6"/>
  <anchor x="557.5" y="530.0" name="top"/>
  <outline>
    <contour>
      <point x="208.0" y="-10.0" type="curve" smooth="yes"/>
      <point x="324.5" y="-10.0"/>
      <point x="432.0" y="45.5"/>
      <point x="525.0" y="128.0" type="curve"/>
      <point x="526.0" y="128.0" type="line"/>
      <point x="561.5" y="37.5"/>
      <point x="647.0" y="-10.0"/>
      <point x="775.5" y="-10.0" type="curve" smooth="yes"/>
      <point x="895.4999999999999" y="-10.0"/>
      <point x="966.9999999999999" y="5.499999999999998"/>
      <point x="1023.9999999999999" y="21.0" type="curve"/>
      <point x="1019.9999999999999" y="40.5" type="line"/>
      <point x="964.9999999999999" y="26.5"/>
      <point x="890.9999999999999" y="10.0"/>
      <point x="776.0" y="10.0" type="curve" smooth="yes"/>
      <point x="621.0" y="10.0"/>
      <point x="528.5" y="81.5"/>
      <point x="527.0" y="250.5" type="curve" smooth="yes"/>
      <point x="527.0" y="260.5"/>
      <point x="527.0" y="268.5"/>
      <point x="528.5" y="281.5" type="curve"/>
      <point x="796.0" y="281.5"/>
      <point x="976.9999999999999" y="298.5"/>
      <point x="1032.0" y="302.5" type="curve"/>
      <point x="1032.5" y="306.5"/>
      <point x="1033.0" y="311.0"/>
      <point x="1033.0" y="321.5" type="curve" smooth="yes"/>
      <point x="1033.0" y="465.0"/>
      <point x="939.4999999999999" y="540.0"/>
      <point x="783.5" y="540.0" type="curve" smooth="yes"/>
      <point x="661.5" y="540.0"/>
      <point x="560.0" y="489.0"/>
      <point x="526.5" y="378.5" type="curve"/>
      <point x="525.5" y="378.5" type="line"/>
      <point x="528.0" y="482.0"/>
      <point x="449.99999999999994" y="540.0"/>
      <point x="312.0" y="540.0" type="curve" smooth="yes"/>
      <point x="251.49999999999997" y="540.0"/>
      <point x="179.5" y="529.5"/>
      <point x="104.49999999999999" y="509.5" type="curve"/>
      <point x="108.99999999999999" y="490.0" type="line"/>
      <point x="186.0" y="510.5"/>
      <point x="254.99999999999997" y="520.0"/>
      <point x="313.5" y="520.0" type="curve" smooth="yes"/>
      <point x="441.49999999999994" y="520.0"/>
      <point x="508.99999999999994" y="467.5"/>
      <point x="508.99999999999994" y="373.5" type="curve" smooth="yes"/>
      <point x="508.99999999999994" y="298.5" type="line"/>
      <point x="169.5" y="279.0"/>
      <point x="58.5" y="246.5"/>
      <point x="58.5" y="116.5" type="curve" smooth="yes"/>
      <point x="58.5" y="33.5"/>
      <point x="113.99999999999999" y="-10.0"/>
    </contour>
    <contour>
      <point x="208.0" y="9.5" type="curve" smooth="yes"/>
      <point x="126.49999999999999" y="9.5"/>
      <point x="78.5" y="48.5"/>
      <point x="78.5" y="121.5" type="curve" smooth="yes"/>
      <point x="78.5" y="233.5"/>
      <point x="197.5" y="263.5"/>
      <point x="507.49999999999994" y="279.0" type="curve"/>
      <point x="506.99999999999994" y="271.0"/>
      <point x="506.99999999999994" y="263.5"/>
      <point x="506.99999999999994" y="249.5" type="curve" smooth="yes"/>
      <point x="506.99999999999994" y="207.5"/>
      <point x="510.49999999999994" y="174.5"/>
      <point x="518.5" y="148.0" type="curve"/>
      <point x="437.5" y="68.5"/>
      <point x="316.5" y="9.5"/>
    </contour>
    <contour>
      <point x="530.5" y="301.0" type="curve"/>
      <point x="543.0" y="458.0"/>
      <point x="649.0" y="520.5"/>
      <point x="782.5" y="520.5" type="curve" smooth="yes"/>
      <point x="926.9999999999999" y="520.5"/>
      <point x="1012.4999999999999" y="448.5"/>
      <point x="1012.4999999999999" y="320.0" type="curve"/>
      <point x="972.4999999999999" y="316.5"/>
      <point x="789.9999999999999" y="301.0"/>
    </contour>
  </outline>
</glyph>
<glyph name="eth" format="2">
  <advance width="707.0"/>
  <unicode hex="00F0"/>
  <outline>
    <contour>
      <point x="629.5" y="433.0" type="curve"/>
      <point x="630.0" y="452.5" type="line"/>
      <point x="562.5" y="505.5"/>
      <point x="474.49999999999994" y="524.5"/>
      <point x="372.5" y="524.5" type="curve" smooth="yes"/>
      <point x="163.0" y="524.5"/>
      <point x="60.5" y="435.0"/>
      <point x="60.5" y="260.0" type="curve" smooth="yes"/>
      <point x="60.5" y="73.5"/>
      <point x="156.5" y="-10.0"/>
      <point x="338.0" y="-10.0" type="curve" smooth="yes"/>
      <point x="553.0" y="-10.0"/>
      <point x="647.5" y="89.5"/>
      <point x="647.5" y="340.5" type="curve" smooth="yes"/>
      <point x="647.5" y="585.5"/>
      <point x="529.0" y="710.0"/>
      <point x="295.5" y="710.0" type="curve" smooth="yes"/>
      <point x="220.49999999999997" y="710.0"/>
      <point x="162.5" y="703.0"/>
      <point x="80.0" y="684.0" type="curve"/>
      <point x="83.5" y="665.5" type="line"/>
      <point x="158.5" y="682.5"/>
      <point x="219.49999999999997" y="691.5"/>
      <point x="293.5" y="691.5" type="curve" smooth="yes"/>
      <point x="510.99999999999994" y="691.5"/>
      <point x="627.5" y="581.0"/>
      <point x="627.5" y="339.0" type="curve" smooth="yes"/>
      <point x="627.5" y="104.5"/>
      <point x="538.5" y="9.5"/>
      <point x="338.0" y="9.5" type="curve" smooth="yes"/>
      <point x="170.0" y="9.5"/>
      <point x="80.5" y="87.5"/>
      <point x="80.5" y="261.0" type="curve" smooth="yes"/>
      <point x="80.5" y="425.5"/>
      <point x="184.5" y="506.0"/>
      <point x="369.5" y="506.0" type="curve" smooth="yes"/>
      <point x="474.49999999999994" y="506.0"/>
      <point x="552.0" y="487.5"/>
    </contour>
    <contour>
      <point x="190.0" y="564.0" type="line"/>
      <point x="477.99999999999994" y="660.5" type="line"/>
      <point x="481.49999999999994" y="663.0" type="line"/>
      <point x="643.5" y="719.0" type="line"/>
      <point x="591.5" y="719.0" type="line"/>
      <point x="457.49999999999994" y="672.5" type="line"/>
      <point x="458.49999999999994" y="671.5" type="line"/>
      <point x="138.0" y="564.0" type="line"/>
    </contour>
  </outline>
</glyph>
<glyph name="divide" format="2">
  <advance width="503.0"/>
  <unicode hex="00F7"/>
  <outline>
    <contour>
      <point x="235.39999999999998" y="88.3" type="curve" smooth="yes"/>
      <point x="235.39999999999998" y="72.3"/>
      <point x="236.8" y="71.3"/>
      <point x="251.5" y="71.3" type="curve" smooth="yes"/>
      <point x="266.9" y="71.3"/>
      <point x="267.6" y="72.3"/>
      <point x="267.6" y="88.3" type="curve" smooth="yes"/>
      <point x="267.6" y="104.3"/>
      <point x="266.6" y="105.3"/>
      <point x="251.5" y="105.3" type="curve" smooth="yes"/>
      <point x="236.1" y="105.3"/>
      <point x="235.39999999999998" y="104.3"/>
    </contour>
    <contour>
      <point x="235.39999999999998" y="489.7" type="curve" smooth="yes"/>
      <point x="235.39999999999998" y="473.7"/>
      <point x="237.1" y="472.7"/>
      <point x="251.5" y="472.7" type="curve" smooth="yes"/>
      <point x="266.9" y="472.7"/>
      <point x="267.6" y="473.7"/>
      <point x="267.6" y="489.7" type="curve" smooth="yes"/>
      <point x="267.6" y="505.7"/>
      <point x="266.9" y="506.7"/>
      <point x="251.5" y="506.7" type="curve" smooth="yes"/>
      <point x="236.1" y="506.7"/>
      <point x="235.39999999999998" y="505.7"/>
    </contour>
    <contour>
      <point x="55.8" y="279.0" type="line"/>
      <point x="447.2" y="279.0" type="line"/>
      <point x="447.2" y="299.0" type="line"/>
      <point x="55.8" y="299.0" type="line"/>
    </contour>
  </outline>
</glyph>
<glyph name="oslash" format="2">
  <advance width="715.5"/>
  <unicode hex="00F8"/>
  <anchor x="357.5" y="530.0" name="top"/>
  <outline>
    <contour>
      <point x="357.5" y="-10.0" type="curve" smooth="yes"/>
      <point x="151.0" y="-10.0"/>
      <point x="60.5" y="72.0"/>
      <point x="60.5" y="266.5" type="curve" smooth="yes"/>
      <point x="60.5" y="451.5"/>
      <point x="139.0" y="540.0"/>
      <point x="357.5" y="540.0" type="curve" smooth="yes"/>
      <point x="576.5" y="540.0"/>
      <point x="655.0" y="451.5"/>
      <point x="655.0" y="266.5" type="curve" smooth="yes"/>
      <point x="655.0" y="72.0"/>
      <point x="564.5" y="-10.0"/>
    </contour>
    <contour>
      <point x="357.5" y="9.5" type="curve" smooth="yes"/>
      <point x="554.0" y="9.5"/>
      <point x="635.0" y="90.0"/>
      <point x="635.0" y="266.5" type="curve" smooth="yes"/>
      <point x="635.0" y="435.5"/>
      <point x="566.0" y="520.5"/>
      <point x="357.5" y="520.5" type="curve" smooth="yes"/>
      <point x="149.5" y="520.5"/>
      <point x="80.5" y="435.5"/>
      <point x="80.5" y="266.5" type="curve" smooth="yes"/>
      <point x="80.5" y="90.0"/>
      <point x="161.5" y="9.5"/>
    </contour>
    <contour>
      <point x="60.0" y="-10.0" type="line"/>
      <point x="139.5" y="67.0" type="line"/>
      <point x="140.0" y="67.0" type="line"/>
      <point x="564.0" y="481.0" type="line"/>
      <point x="564.5" y="481.0" type="line"/>
      <point x="626.5" y="540.0" type="line"/>
      <point x="655.5" y="540.0" type="line"/>
      <point x="578.0" y="465.0" type="line"/>
      <point x="577.5" y="465.0" type="line"/>
      <point x="152.0" y="50.0" type="line"/>
      <point x="151.5" y="50.0" type="line"/>
      <point x="89.0" y="-10.0" type="line"/>
    </contour>
  </outline>
</glyph>
<glyph name="thorn" format="2">
  <advance width="679.5"/>
  <unicode hex="00FE"/>
  <outline>
    <contour>
      <point x="100.0" y="-210.0" type="line"/>
      <point x="120.0" y="-210.0" type="line"/>
      <point x="120.0" y="10.6" type="line"/>
      <point x="184.5" y="-3.1000000000000005"/>
      <point x="252.7" y="-10.0"/>
      <point x="310.79999999999995" y="-10.0" type="curve" smooth="yes"/>
      <point x="524.3" y="-10.0"/>
      <point x="619.0" y="73.3"/>
      <point x="619.0" y="268.3" type="curve" smooth="yes"/>
      <point x="619.0" y="443.5"/>
      <point x="513.9" y="540.0"/>
      <point x="321.7" y="540.0" type="curve" smooth="yes"/>
      <point x="257.4" y="540.0"/>
      <point x="188.5" y="531.0"/>
      <point x="120.0" y="515.8" type="curve"/>
      <point x="120.0" y="740.0" type="line"/>
      <point x="100.0" y="740.0" type="line"/>
    </contour>
    <contour>
      <point x="309.29999999999995" y="8.4" type="curve" smooth="yes"/>
      <point x="258.1" y="8.4"/>
      <point x="195.89999999999998" y="15.3"/>
      <point x="120.0" y="30.4" type="curve"/>
      <point x="120.0" y="495.1" type="line"/>
      <point x="189.1" y="512.8"/>
      <point x="258.0" y="521.3"/>
      <point x="315.29999999999995" y="521.3" type="curve" smooth="yes"/>
      <point x="502.4" y="521.3"/>
      <point x="599.0" y="434.3"/>
      <point x="599.0" y="268.3" type="curve" smooth="yes"/>
      <point x="599.0" y="83.1"/>
      <point x="511.7" y="8.4"/>
    </contour>
  </outline>
</glyph>
<glyph name="Dcroat" format="2">
  <advance width="894.5999999999999"/>
  <unicode hex="0110"/>
  <outline>
    <contour>
      <point x="-3.5" y="350.0" type="line"/>
      <point x="319.29999999999995" y="350.0" type="line"/>
      <point x="319.29999999999995" y="370.0" type="line"/>
      <point x="-3.5" y="370.0" type="line"/>
    </contour>
    <component base="D" xOffset="2.1000000000000005"/>
  </outline>
</glyph>
<glyph name="Hbar" format="2">
  <advance width="924.6999999999999"/>
  <unicode hex="0126"/>
  <outline>
    <contour>
      <point x="33.3" y="500.6" type="line"/>
      <point x="112.3" y="500.6" type="line"/>
      <point x="112.3" y="0.0" type="line"/>
      <point x="132.3" y="0.0" type="line"/>
      <point x="132.3" y="290.3" type="line"/>
      <point x="792.4" y="290.3" type="line"/>
      <point x="792.4" y="0.0" type="line"/>
      <point x="812.4" y="0.0" type="line"/>
      <point x="812.4" y="500.6" type="line"/>
      <point x="891.4" y="500.6" type="line"/>
      <point x="891.4" y="519.7" type="line"/>
      <point x="812.4" y="519.7" type="line"/>
      <point x="812.4" y="700.0" type="line"/>
      <point x="792.4" y="700.0" type="line"/>
      <point x="792.4" y="519.7" type="line"/>
      <point x="132.3" y="519.7" type="line"/>
      <point x="132.3" y="700.0" type="line"/>
      <point x="112.3" y="700.0" type="line"/>
      <point x="112.3" y="519.7" type="line"/>
      <point x="33.3" y="519.7" type="line"/>
    </contour>
    <contour>
      <point x="132.3" y="310.0" type="line"/>
      <point x="132.3" y="500.6" type="line"/>
      <point x="792.4" y="500.6" type="line"/>
      <point x="792.4" y="310.0" type="line"/>
    </contour>
  </outline>
</glyph>
<glyph name="hbar" format="2">
  <advance width="703.4"/>
  <unicode hex="0127"/>
  <outline>
    <contour>
      <point x="-10.299999999999999" y="618.0" type="line"/>
      <point x="379.6" y="618.0" type="line"/>
      <point x="379.6" y="636.0" type="line"/>
      <point x="-10.299999999999999" y="636.0" type="line"/>
    </contour>
    <component base="h"/>
  </outline>
</glyph>
<glyph name="Idotaccent" format="2">
  <advance width="244.6"/>
  <unicode hex="0130"/>
  <outline>
    <contour>
      <point x="122.3" y="828.0" type="curve" smooth="yes"/>
      <point x="137.7" y="828.0"/>
      <point x="138.39999999999998" y="829.0"/>
      <point x="138.39999999999998" y="845.0" type="curve" smooth="yes"/>
      <point x="138.39999999999998" y="861.0"/>
      <point x="137.7" y="862.0"/>
      <point x="122.3" y="862.0" type="curve" smooth="yes"/>
      <point x="106.89999999999999" y="862.0"/>
      <point x="106.19999999999999" y="861.0"/>
      <point x="106.19999999999999" y="845.0" type="curve" smooth="yes"/>
      <point x="106.19999999999999" y="829.0"/>
      <point x="107.89999999999999" y="828.0"/>
    </contour>
    <component base="I"/>
  </outline>
</glyph>
<glyph name="dotlessi" format="2">
  <advance width="220.0"/>
  <unicode hex="0131"/>
  <anchor x="119.3" y="0.0" name="ogonek"/>
  <anchor x="110.0" y="0.0" name="bottom"/>
  <anchor x="110.0" y="530.0" name="top"/>
  <outline>
    <contour>
      <point x="100.0" y="0.0" type="line"/>
      <point x="120.0" y="0.0" type="line"/>
      <point x="120.0" y="530.0" type="line"/>
      <point x="100.0" y="530.0" type="line"/>
    </contour>
  </outline>
</glyph>
<glyph name="kgreenlandic" format="2">
  <advance width="633.0"/>
  <unicode hex="0138"/>
  <anchor x="319.5" y="530.0" name="top"/>
  <anchor x="319.5" y="0.0" name="bottom"/>
  <outline>
    <contour>
      <point x="611.5" y="-9.0" type="curve" smooth="yes"/>
      <point x="616.0" y="-9.0"/>
      <point x="622.5" y="-7.999999999999999"/>
      <point x="627.5" y="-7.0" type="curve"/>
      <point x="624.0" y="13.0" type="line"/>
      <point x="619.0" y="12.0"/>
      <point x="614.0" y="11.5"/>
      <point x="611.5" y="11.5" type="curve" smooth="yes"/>
      <point x="573.5" y="11.5"/>
      <point x="520.0" y="43.5"/>
      <point x="373.5" y="163.0" type="curve" smooth="yes"/>
      <point x="120.0" y="370.5" type="line"/>
      <point x="120.0" y="530.0" type="line"/>
      <point x="100.0" y="530.0" type="line"/>
      <point x="100.0" y="0.0" type="line"/>
      <point x="120.0" y="0.0" type="line"/>
      <point x="120.0" y="344.0" type="line"/>
      <point x="369.5" y="140.5" type="line" smooth="yes"/>
      <point x="543.0" y="-0.5"/>
      <point x="572.5" y="-9.0"/>
    </contour>
    <contour>
      <point x="244.49999999999997" y="255.5" type="line"/>
      <point x="352.0" y="316.5"/>
      <point x="507.49999999999994" y="397.0"/>
      <point x="575.0" y="527.0" type="curve"/>
      <point x="558.5" y="537.5" type="line"/>
      <point x="492.49999999999994" y="409.5"/>
      <point x="342.5" y="332.0"/>
      <point x="228.49999999999997" y="269.0" type="curve"/>
    </contour>
  </outline>
</glyph>
<glyph name="Ldot" format="2">
  <advance width="670.7"/>
  <unicode hex="013F"/>
  <outline>
    <contour>
      <point x="436.59999999999997" y="365.4" type="curve" smooth="yes"/>
      <point x="436.59999999999997" y="349.4"/>
      <point x="438.29999999999995" y="348.4"/>
      <point x="452.7" y="348.4" type="curve" smooth="yes"/>
      <point x="468.09999999999997" y="348.4"/>
      <point x="468.79999999999995" y="349.4"/>
      <point x="468.79999999999995" y="365.4" type="curve" smooth="yes"/>
      <point x="468.79999999999995" y="381.4"/>
      <point x="468.09999999999997" y="382.4"/>
      <point x="452.7" y="382.4" type="curve" smooth="yes"/>
      <point x="437.29999999999995" y="382.4"/>
      <point x="436.59999999999997" y="381.4"/>
    </contour>
    <component base="L"/>
  </outline>
</glyph>
<glyph name="ldot" format="2">
  <advance width="291.2"/>
  <unicode hex="0140"/>
  <outline>
    <contour>
      <point x="261.1" y="339.3" type="curve" smooth="yes"/>
      <point x="276.5" y="339.3"/>
      <point x="277.2" y="340.3"/>
      <point x="277.2" y="356.3" type="curve" smooth="yes"/>
      <point x="277.2" y="372.3"/>
      <point x="276.5" y="373.3"/>
      <point x="261.1" y="373.3" type="curve" smooth="yes"/>
      <point x="245.7" y="373.3"/>
      <point x="245.0" y="372.3"/>
      <point x="245.0" y="356.3" type="curve" smooth="yes"/>
      <point x="245.0" y="340.3"/>
      <point x="246.7" y="339.3"/>
    </contour>
    <component base="l"/>
  </outline>
</glyph>
<glyph name="Lslash" format="2">
  <advance width="677.9"/>
  <unicode hex="0141"/>
  <outline>
    <contour>
      <point x="25.4" y="188.1" type="line"/>
      <point x="119.5" y="248.2" type="line"/>
      <point x="119.5" y="0.0" type="line"/>
      <point x="656.4" y="0.0" type="line"/>
      <point x="656.4" y="19.7" type="line"/>
      <point x="139.5" y="19.7" type="line"/>
      <point x="139.5" y="261.3" type="line"/>
      <point x="433.9" y="447.1" type="line"/>
      <point x="433.9" y="471.7" type="line"/>
      <point x="139.5" y="286.2" type="line"/>
      <point x="139.5" y="700.0" type="line"/>
      <point x="119.5" y="700.0" type="line"/>
      <point x="119.5" y="273.1" type="line"/>
      <point x="25.4" y="213.0" type="line"/>
    </contour>
  </outline>
</glyph>
<glyph name="lslash" format="2">
  <advance width="291.2"/>
  <unicode hex="0142"/>
  <outline>
    <contour>
      <point x="218.39999999999998" y="-10.0" type="curve" smooth="yes"/>
      <point x="248.39999999999998" y="-10.0"/>
      <point x="277.9" y="-3.8000000000000007"/>
      <point x="301.79999999999995" y="2.5999999999999996" type="curve"/>
      <point x="297.79999999999995" y="22.3" type="line"/>
      <point x="273.0" y="15.899999999999999"/>
      <point x="244.7" y="10.0"/>
      <point x="218.39999999999998" y="10.0" type="curve" smooth="yes"/>
      <point x="167.0" y="10.0"/>
      <point x="120.0" y="33.2"/>
      <point x="120.0" y="147.2" type="curve" smooth="yes"/>
      <point x="120.0" y="269.9" type="line"/>
      <point x="252.0" y="401.6" type="line"/>
      <point x="252.0" y="429.0" type="line"/>
      <point x="120.0" y="297.3" type="line"/>
      <point x="120.0" y="740.0" type="line"/>
      <point x="100.0" y="740.0" type="line"/>
      <point x="100.0" y="277.0" type="line"/>
      <point x="26.599999999999998" y="204.6" type="line"/>
      <point x="26.599999999999998" y="177.5" type="line"/>
      <point x="100.0" y="249.6" type="line"/>
      <point x="100.0" y="147.2" type="line" smooth="yes"/>
      <point x="100.0" y="17.2"/>
      <point x="155.5" y="-10.0"/>
    </contour>
  </outline>
</glyph>
<glyph name="Eng" format="2">
  <advance width="923.4999999999999"/>
  <unicode hex="014A"/>
  <outline>
    <contour>
      <point x="112.49999999999999" y="0.0" type="line"/>
      <point x="132.5" y="0.0" type="line"/>
      <point x="132.5" y="675.0" type="line"/>
      <point x="790.9999999999999" y="-3.499999999999999" type="line"/>
      <point x="790.9999999999999" y="-13.0" type="line" smooth="yes"/>
      <point x="786.9999999999999" y="-130.5"/>
      <point x="693.5" y="-172.5"/>
      <point x="568.0" y="-172.5" type="curve" smooth="yes"/>
      <point x="513.5" y="-172.5"/>
      <point x="453.49999999999994" y="-163.5"/>
      <point x="409.0" y="-154.5" type="curve"/>
      <point x="405.5" y="-174.0" type="line"/>
      <point x="449.99999999999994" y="-183.5"/>
      <point x="511.49999999999994" y="-192.5"/>
      <point x="568.0" y="-192.5" type="curve" smooth="yes"/>
      <point x="712.5" y="-192.5"/>
      <point x="810.9999999999999" y="-137.5"/>
      <point x="810.9999999999999" y="-10.0" type="curve" smooth="yes"/>
      <point x="810.9999999999999" y="700.0" type="line"/>
      <point x="790.9999999999999" y="700.0" type="line"/>
      <point x="790.9999999999999" y="25.000000000000007" type="line"/>
      <point x="130.0" y="707.0" type="line"/>
      <point x="112.49999999999999" y="707.0" type="line"/>
    </contour>
  </outline>
</glyph>
<glyph name="eng" format="2">
  <advance width="703.4"/>
  <unicode hex="014B"/>
  <outline>
    <contour>
      <point x="603.4" y="7.0" type="curve"/>
      <point x="603.4" y="366.9" type="line" smooth="yes"/>
      <point x="603.4" y="478.9"/>
      <point x="537.5999999999999" y="540.0"/>
      <point x="412.2" y="540.0" type="curve" smooth="yes"/>
      <point x="299.1" y="540.0"/>
      <point x="219.1" y="504.8"/>
      <point x="120.0" y="457.5" type="curve"/>
      <point x="120.0" y="530.0" type="line"/>
      <point x="100.0" y="530.0" type="line"/>
      <point x="100.0" y="0.0" type="line"/>
      <point x="120.0" y="0.0" type="line"/>
      <point x="120.0" y="436.5" type="line"/>
      <point x="223.39999999999998" y="486.5"/>
      <point x="299.79999999999995" y="520.6"/>
      <point x="410.09999999999997" y="520.6" type="curve" smooth="yes"/>
      <point x="529.8" y="520.6"/>
      <point x="583.4" y="460.7"/>
      <point x="583.4" y="366.9" type="curve" smooth="yes"/>
      <point x="583.4" y="4.200000000000001" type="line" smooth="yes"/>
      <point x="583.4" y="-83.3"/>
      <point x="558.0999999999999" y="-143.1"/>
      <point x="511.5" y="-175.1" type="curve" smooth="yes"/>
      <point x="503.0" y="-180.8"/>
      <point x="494.5" y="-185.5"/>
      <point x="485.0" y="-189.2" type="curve"/>
      <point x="494.7" y="-206.9" type="line"/>
      <point x="505.5" y="-202.6"/>
      <point x="516.0" y="-196.6"/>
      <point x="525.0999999999999" y="-190.6" type="curve" smooth="yes"/>
      <point x="576.4" y="-155.0"/>
      <point x="603.4" y="-90.0"/>
    </contour>
  </outline>
</glyph>
<glyph name="OE" format="2">
  <advance width="1387.4"/>
  <unicode hex="0152"/>
  <outline>
    <contour>
      <point x="1347.0" y="0.0" type="line"/>
      <point x="1347.0" y="20.0" type="line"/>
      <point x="780.1999999999999" y="20.0" type="line"/>
      <point x="780.1999999999999" y="367.0" type="line"/>
      <point x="1296.8" y="367.0" type="line"/>
      <point x="1296.8" y="387.0" type="line"/>
      <point x="780.1999999999999" y="387.0" type="line"/>
      <point x="780.1999999999999" y="680.0" type="line"/>
      <point x="1323.6999999999998" y="680.0" type="line"/>
      <point x="1323.6999999999998" y="700.0" type="line"/>
      <point x="780.1999999999999" y="700.0" type="line"/>
      <point x="670.9" y="703.7"/>
      <point x="559.0999999999999" y="708.2"/>
      <point x="485.2" y="708.2" type="curve" smooth="yes"/>
      <point x="270.79999999999995" y="708.2"/>
      <point x="72.8" y="637.9"/>
      <point x="72.8" y="354.2" type="curve" smooth="yes"/>
      <point x="72.8" y="37.3"/>
      <point x="302.1" y="-8.8"/>
      <point x="505.7" y="-8.8" type="curve" smooth="yes"/>
      <point x="594.2" y="-8.8"/>
      <point x="677.3" y="-4.0"/>
      <point x="780.1999999999999" y="0.0" type="curve"/>
    </contour>
    <contour>
      <point x="760.1999999999999" y="18.8" type="line"/>
      <point x="706.7" y="16.8"/>
      <point x="601.5" y="10.9"/>
      <point x="515.0" y="10.9" type="curve" smooth="yes"/>
      <point x="311.1" y="10.9"/>
      <point x="93.8" y="51.8"/>
      <point x="93.8" y="353.5" type="curve" smooth="yes"/>
      <point x="93.8" y="638.5"/>
      <point x="314.5" y="688.8"/>
      <point x="495.79999999999995" y="688.8" type="curve" smooth="yes"/>
      <point x="533.7" y="688.8"/>
      <point x="733.3" y="681.5"/>
      <point x="760.1999999999999" y="680.9" type="curve"/>
    </contour>
  </outline>
</glyph>
<glyph name="oe" format="2">
  <advance width="1248.0"/>
  <unicode hex="0153"/>
  <outline>
    <contour>
      <point x="60.5" y="266.5" type="curve" smooth="yes"/>
      <point x="60.5" y="72.0"/>
      <point x="151.0" y="-10.0"/>
      <point x="358.0" y="-10.0" type="curve" smooth="yes"/>
      <point x="528.5" y="-10.0"/>
      <point x="616.0" y="46.0"/>
      <point x="644.5" y="159.5" type="curve"/>
      <point x="674.5" y="47.5"/>
      <point x="772.5" y="-10.0"/>
      <point x="903.9999999999999" y="-10.0" type="curve" smooth="yes"/>
      <point x="1023.9999999999999" y="-10.0"/>
      <point x="1130.0" y="9.0"/>
      <point x="1187.5" y="23.999999999999996" type="curve"/>
      <point x="1183.5" y="43.5" type="line"/>
      <point x="1128.5" y="29.999999999999996"/>
      <point x="1019.4999999999999" y="9.5"/>
      <point x="904.4999999999999" y="9.5" type="curve" smooth="yes"/>
      <point x="763.5" y="9.5"/>
      <point x="654.5" y="81.0"/>
      <point x="654.5" y="245.0" type="curve" smooth="yes"/>
      <point x="654.5" y="258.0"/>
      <point x="655.0" y="273.0"/>
      <point x="656.0" y="286.5" type="curve"/>
      <point x="923.4999999999999" y="286.5"/>
      <point x="1140.0" y="302.5"/>
      <point x="1195.5" y="306.0" type="curve"/>
      <point x="1196.0" y="311.5"/>
      <point x="1196.5" y="316.5"/>
      <point x="1196.5" y="325.0" type="curve" smooth="yes"/>
      <point x="1196.5" y="473.5"/>
      <point x="1109.5" y="540.0"/>
      <point x="945.9999999999999" y="540.0" type="curve" smooth="yes"/>
      <point x="805.4999999999999" y="540.0"/>
      <point x="687.0" y="482.5"/>
      <point x="649.0" y="358.0" type="curve"/>
      <point x="625.5" y="475.5"/>
      <point x="544.5" y="540.0"/>
      <point x="358.0" y="540.0" type="curve" smooth="yes"/>
      <point x="139.0" y="540.0"/>
      <point x="60.5" y="451.5"/>
    </contour>
    <contour>
      <point x="80.5" y="266.5" type="curve" smooth="yes"/>
      <point x="80.5" y="435.5"/>
      <point x="149.5" y="520.5"/>
      <point x="358.0" y="520.5" type="curve" smooth="yes"/>
      <point x="566.0" y="520.5"/>
      <point x="635.0" y="435.5"/>
      <point x="635.0" y="266.5" type="curve" smooth="yes"/>
      <point x="635.0" y="90.0"/>
      <point x="554.5" y="9.5"/>
      <point x="358.0" y="9.5" type="curve" smooth="yes"/>
      <point x="161.5" y="9.5"/>
      <point x="80.5" y="90.0"/>
    </contour>
    <contour>
      <point x="658.5" y="305.5" type="curve"/>
      <point x="683.0" y="473.5"/>
      <point x="827.4999999999999" y="520.5"/>
      <point x="945.9999999999999" y="520.5" type="curve" smooth="yes"/>
      <point x="1102.0" y="520.5"/>
      <point x="1176.0" y="457.5"/>
      <point x="1176.0" y="323.5" type="curve"/>
      <point x="1135.5" y="319.5"/>
      <point x="918.4999999999999" y="305.5"/>
    </contour>
  </outline>
</glyph>
<glyph name="uni0162" format="2">
  <advance width="655.4"/>
  <unicode hex="0162"/>
  <outline>
    <contour>
      <point x="217.29999999999998" y="-172.6" type="curve"/>
      <point x="209.6" y="-189.7" type="line"/>
      <point x="259.0" y="-211.0"/>
      <point x="302.4" y="-220.0"/>
      <point x="336.9" y="-220.0" type="curve" smooth="yes"/>
      <point x="408.7" y="-220.0"/>
      <point x="444.09999999999997" y="-181.9"/>
      <point x="444.09999999999997" y="-125.0" type="curve" smooth="yes"/>
      <point x="444.09999999999997" y="-75.3"/>
      <point x="403.7" y="-31.3"/>
      <point x="336.29999999999995" y="3.5" type="curve"/>
      <point x="317.7" y="0.0" type="line"/>
      <point x="373.2" y="-38.400000000000006"/>
      <point x="424.7" y="-76.1"/>
      <point x="424.7" y="-125.0" type="curve" smooth="yes"/>
      <point x="424.7" y="-172.9"/>
      <point x="393.79999999999995" y="-200.9"/>
      <point x="335.7" y="-200.9" type="curve" smooth="yes"/>
      <point x="302.9" y="-200.9"/>
      <point x="263.1" y="-191.6"/>
    </contour>
    <component base="T"/>
  </outline>
</glyph>
<glyph name="Tbar" format="2">
  <advance width="655.4"/>
  <unicode hex="0166"/>
  <outline>
    <contour>
      <point x="94.19999999999999" y="370.0" type="line"/>
      <point x="317.7" y="370.0" type="line"/>
      <point x="317.7" y="0.0" type="line"/>
      <point x="337.7" y="0.0" type="line"/>
      <point x="337.7" y="370.0" type="line"/>
      <point x="561.2" y="370.0" type="line"/>
      <point x="561.2" y="390.0" type="line"/>
      <point x="337.7" y="390.0" type="line"/>
      <point x="337.7" y="681.7" type="line"/>
      <point x="649.7" y="681.7" type="line"/>
      <point x="649.7" y="700.0" type="line"/>
      <point x="5.7" y="700.0" type="line"/>
      <point x="5.7" y="681.7" type="line"/>
      <point x="317.7" y="681.7" type="line"/>
      <point x="317.7" y="390.0" type="line"/>
      <point x="94.19999999999999" y="390.0" type="line"/>
    </contour>
  </outline>
</glyph>
<glyph name="tbar" format="2">
  <advance width="501.5"/>
  <unicode hex="0167"/>
  <outline>
    <contour>
      <point x="172.0" y="314.0" type="line"/>
      <point x="418.79999999999995" y="314.0" type="line"/>
      <point x="418.79999999999995" y="332.0" type="line"/>
      <point x="172.0" y="332.0" type="line"/>
      <point x="172.0" y="510.3" type="line"/>
      <point x="463.79999999999995" y="510.3" type="line"/>
      <point x="463.79999999999995" y="530.0" type="line"/>
      <point x="172.0" y="530.0" type="line"/>
      <point x="172.0" y="665.0" type="line"/>
      <point x="156.3" y="665.0" type="line"/>
      <point x="152.0" y="530.0" type="line"/>
      <point x="10.8" y="524.7" type="line"/>
      <point x="10.8" y="510.3" type="line"/>
      <point x="152.0" y="510.3" type="line"/>
      <point x="152.0" y="332.0" type="line"/>
      <point x="69.8" y="332.0" type="line"/>
      <point x="69.8" y="314.0" type="line"/>
      <point x="152.0" y="314.0" type="line"/>
      <point x="152.0" y="154.9" type="line" smooth="yes"/>
      <point x="152.0" y="41.6"/>
      <point x="208.1" y="-10.0"/>
      <point x="313.2" y="-10.0" type="curve" smooth="yes"/>
      <point x="359.1" y="-10.0"/>
      <point x="420.29999999999995" y="-0.3000000000000007"/>
      <point x="485.59999999999997" y="20.799999999999997" type="curve"/>
      <point x="480.2" y="39.5" type="line"/>
      <point x="430.2" y="21.9"/>
      <point x="375.2" y="9.7"/>
      <point x="316.0" y="9.7" type="curve" smooth="yes"/>
      <point x="215.2" y="9.7"/>
      <point x="172.0" y="56.2"/>
      <point x="172.0" y="154.9" type="curve" smooth="yes"/>
    </contour>
  </outline>
</glyph>
<glyph name="uogonek" format="2">
  <advance width="689.7"/>
  <unicode hex="0173"/>
  <outline>
    <contour>
      <point x="644.0" y="-221.0" type="curve" smooth="yes"/>
      <point x="660.3" y="-221.0"/>
      <point x="672.5" y="-218.7"/>
      <point x="683.3" y="-214.4" type="curve"/>
      <point x="681.5" y="-197.6" type="line"/>
      <point x="671.3" y="-200.9"/>
      <point x="660.7" y="-202.6"/>
      <point x="647.0" y="-202.6" type="curve" smooth="yes"/>
      <point x="613.4" y="-202.6"/>
      <point x="579.7" y="-188.7"/>
      <point x="579.7" y="-138.3" type="curve" smooth="yes"/>
      <point x="579.7" y="-76.7"/>
      <point x="629.0999999999999" y="-29.500000000000004"/>
      <point x="678.4" y="-1.0" type="curve"/>
      <point x="672.0999999999999" y="15.3" type="line"/>
      <point x="661.4" y="10.3"/>
      <point x="649.5999999999999" y="7.6"/>
      <point x="638.5" y="7.6" type="curve" smooth="yes"/>
      <point x="603.8" y="7.6"/>
      <point x="573.3" y="30.299999999999997"/>
      <point x="573.3" y="107.5" type="curve" smooth="yes"/>
      <point x="573.3" y="530.0" type="line"/>
      <point x="553.3" y="530.0" type="line"/>
      <point x="553.3" y="92.8" type="line"/>
      <point x="458.29999999999995" y="44.2"/>
      <point x="384.7" y="9.4"/>
      <point x="282.1" y="9.4" type="curve" smooth="yes"/>
      <point x="173.6" y="9.4"/>
      <point x="120.0" y="65.8"/>
      <point x="120.0" y="149.1" type="curve" smooth="yes"/>
      <point x="120.0" y="530.0" type="line"/>
      <point x="100.0" y="530.0" type="line"/>
      <point x="100.0" y="149.1" type="line" smooth="yes"/>
      <point x="100.0" y="51.099999999999994"/>
      <point x="162.3" y="-10.0"/>
      <point x="280.0" y="-10.0" type="curve" smooth="yes"/>
      <point x="386.1" y="-10.0"/>
      <point x="461.2" y="25.2"/>
      <point x="555.5999999999999" y="73.8" type="curve"/>
      <point x="562.8" y="14.0"/>
      <point x="600.2" y="-10.0"/>
      <point x="635.0" y="-10.0" type="curve" smooth="yes"/>
      <point x="642.4" y="-10.0"/>
      <point x="649.4" y="-7.6"/>
      <point x="657.4" y="-5.6" type="curve"/>
      <point x="669.0" y="9.5" type="line"/>
      <point x="606.2" y="-23.700000000000003"/>
      <point x="558.9" y="-79.80000000000001"/>
      <point x="558.9" y="-140.0" type="curve" smooth="yes"/>
      <point x="558.9" y="-202.2"/>
      <point x="603.9" y="-221.0"/>
    </contour>
  </outline>
</glyph>
<glyph name="longs" format="2">
  <advance width="313.29999999999995"/>
  <unicode hex="017F"/>
  <outline>
    <contour>
      <point x="170.8" y="495.1" type="line"/>
      <point x="170.8" y="675.0"/>
      <point x="236.5" y="731.0"/>
      <point x="354.9" y="731.0" type="curve" smooth="yes"/>
      <point x="411.29999999999995" y="731.0"/>
      <point x="462.79999999999995" y="720.2"/>
      <point x="526.8" y="703.3" type="curve"/>
      <point x="531.5" y="722.7" type="line"/>
      <point x="460.6" y="741.7"/>
      <point x="409.9" y="750.7"/>
      <point x="352.1" y="750.7" type="curve" smooth="yes"/>
      <point x="219.79999999999998" y="750.7"/>
      <point x="150.8" y="672.2"/>
      <point x="150.8" y="495.1" type="curve" smooth="yes"/>
      <point x="150.8" y="484.0" type="line"/>
      <point x="34.8" y="478.7" type="line"/>
      <point x="34.8" y="464.3" type="line"/>
      <point x="150.8" y="464.3" type="line"/>
      <point x="150.8" y="0.0" type="line"/>
      <point x="170.8" y="0.0" type="line"/>
    </contour>
  </outline>
</glyph>
<glyph name="uni018F" format="2">
  <advance width="861.4"/>
  <unicode hex="018F"/>
  <outline>
    <contour>
      <point x="79.3" y="648.4" type="line"/>
      <point x="150.7" y="666.1"/>
      <point x="292.1" y="692.0"/>
      <point x="439.4" y="692.0" type="curve" smooth="yes"/>
      <point x="628.7" y="692.0"/>
      <point x="768.5999999999999" y="586.5"/>
      <point x="768.5999999999999" y="364.3" type="curve" smooth="yes"/>
      <point x="768.5999999999999" y="348.0"/>
      <point x="767.1999999999999" y="332.4"/>
      <point x="765.8" y="317.5" type="curve"/>
      <point x="538.5" y="316.8"/>
      <point x="299.7" y="305.9"/>
      <point x="64.0" y="290.9" type="curve"/>
      <point x="64.0" y="284.6"/>
      <point x="63.699999999999996" y="278.6"/>
      <point x="63.699999999999996" y="269.9" type="curve" smooth="yes"/>
      <point x="63.699999999999996" y="80.8"/>
      <point x="173.2" y="-9.3"/>
      <point x="386.0" y="-9.3" type="curve" smooth="yes"/>
      <point x="639.3" y="-9.3"/>
      <point x="788.5999999999999" y="123.9"/>
      <point x="788.5999999999999" y="370.3" type="curve" smooth="yes"/>
      <point x="788.5999999999999" y="597.9"/>
      <point x="641.7" y="710.0"/>
      <point x="441.5" y="710.0" type="curve" smooth="yes"/>
      <point x="283.7" y="710.0"/>
      <point x="147.0" y="684.8"/>
      <point x="73.69999999999999" y="665.8" type="curve"/>
    </contour>
    <contour>
      <point x="763.6999999999999" y="298.2" type="curve"/>
      <point x="736.0" y="108.2"/>
      <point x="598.5999999999999" y="9.3"/>
      <point x="386.59999999999997" y="9.3" type="curve" smooth="yes"/>
      <point x="177.5" y="9.3"/>
      <point x="83.0" y="99.1"/>
      <point x="83.0" y="275.0" type="curve"/>
      <point x="244.2" y="288.0"/>
      <point x="555.4" y="297.9"/>
    </contour>
  </outline>
</glyph>
<glyph name="florin" format="2">
  <advance width="798.8"/>
  <unicode hex="0192"/>
  <outline>
    <contour>
      <point x="132.7" y="385.4" type="line"/>
      <point x="129.7" y="366.0" type="line"/>
      <point x="251.7" y="366.0" type="line"/>
      <point x="161.0" y="-210.0" type="line"/>
      <point x="178.29999999999998" y="-210.0" type="line"/>
      <point x="269.0" y="366.0" type="line"/>
      <point x="649.5999999999999" y="366.0" type="line"/>
      <point x="652.5999999999999" y="385.4" type="line"/>
      <point x="272.0" y="385.4" type="line"/>
      <point x="277.1" y="413.9" type="line" smooth="yes"/>
      <point x="306.0" y="594.2"/>
      <point x="415.29999999999995" y="692.0"/>
      <point x="567.0" y="692.0" type="curve" smooth="yes"/>
      <point x="616.3" y="692.0"/>
      <point x="675.4" y="684.4"/>
      <point x="728.7" y="671.3" type="curve"/>
      <point x="735.3" y="689.0" type="line"/>
      <point x="682.5999999999999" y="702.4"/>
      <point x="624.0" y="710.0"/>
      <point x="575.5999999999999" y="710.0" type="curve" smooth="yes"/>
      <point x="403.4" y="710.0"/>
      <point x="290.7" y="611.5"/>
      <point x="259.79999999999995" y="415.3" type="curve" smooth="yes"/>
      <point x="254.7" y="385.4" type="line"/>
    </contour>
  </outline>
</glyph>
<glyph name="uni0237" format="2">
  <advance width="221.1"/>
  <unicode hex="0237"/>
  <anchor x="111.8" y="530.0" name="top"/>
  <outline>
    <contour>
      <point x="121.8" y="14.0" type="curve" smooth="yes"/>
      <point x="121.8" y="530.0" type="line"/>
      <point x="101.8" y="530.0" type="line"/>
      <point x="101.8" y="14.0" type="line"/>
      <point x="101.8" y="-81.9"/>
      <point x="77.19999999999999" y="-142.4"/>
      <point x="29.9" y="-174.4" type="curve" smooth="yes"/>
      <point x="21.4" y="-180.1"/>
      <point x="12.899999999999999" y="-184.8"/>
      <point x="3.3999999999999986" y="-188.5" type="curve"/>
      <point x="13.099999999999998" y="-206.9" type="line"/>
      <point x="23.9" y="-202.6"/>
      <point x="34.4" y="-196.6"/>
      <point x="43.5" y="-190.6" type="curve" smooth="yes"/>
      <point x="94.8" y="-155.0"/>
      <point x="121.8" y="-90.0"/>
    </contour>
  </outline>
</glyph>
<glyph name="uni0259" format="2">
  <advance width="671.2"/>
  <unicode hex="0259"/>
  <outline>
    <contour>
      <point x="50.3" y="223.8" type="curve"/>
      <point x="49.3" y="217.2"/>
      <point x="49.3" y="211.5"/>
      <point x="49.3" y="205.0" type="curve" smooth="yes"/>
      <point x="49.3" y="56.3"/>
      <point x="136.3" y="-10.0"/>
      <point x="300.0" y="-10.0" type="curve" smooth="yes"/>
      <point x="466.9" y="-10.0"/>
      <point x="610.7" y="67.7"/>
      <point x="610.7" y="280.7" type="curve" smooth="yes"/>
      <point x="610.7" y="458.9"/>
      <point x="496.4" y="540.0"/>
      <point x="341.7" y="540.0" type="curve" smooth="yes"/>
      <point x="221.7" y="540.0"/>
      <point x="115.6" y="520.9"/>
      <point x="58.199999999999996" y="505.8" type="curve"/>
      <point x="62.5" y="486.4" type="line"/>
      <point x="117.5" y="500.2"/>
      <point x="226.5" y="520.3"/>
      <point x="341.4" y="520.3" type="curve" smooth="yes"/>
      <point x="483.4" y="520.3"/>
      <point x="590.7" y="447.0"/>
      <point x="590.7" y="276.2" type="curve" smooth="yes"/>
      <point x="590.7" y="265.0"/>
      <point x="590.0" y="254.2"/>
      <point x="589.3" y="243.7" type="curve"/>
      <point x="321.6" y="243.7"/>
      <point x="105.6" y="227.7"/>
    </contour>
    <contour>
      <point x="587.2" y="224.3" type="curve"/>
      <point x="562.7" y="56.5"/>
      <point x="418.09999999999997" y="9.4"/>
      <point x="300.0" y="9.4" type="curve" smooth="yes"/>
      <point x="143.7" y="9.4"/>
      <point x="70.0" y="72.6"/>
      <point x="70.0" y="206.4" type="curve"/>
      <point x="110.19999999999999" y="210.3"/>
      <point x="327.4" y="224.3"/>
    </contour>
  </outline>
</glyph>
<glyph name="gravecomb" format="2">
  <unicode hex="0300"/>
  <anchor x="-433.0" y="724.0" name="top"/>
  <anchor x="-357.7" y="530.0" name="_top"/>
  <outline>
    <contour>
      <point x="-355.5" y="596.0" type="line"/>
      <point x="-329.5" y="596.0" type="line"/>
      <point x="-508.59999999999997" y="790.0" type="line"/>
      <point x="-536.5" y="790.0" type="line"/>
    </contour>
  </outline>
</glyph>
<glyph name="acutecomb" format="2">
  <unicode hex="0301"/>
  <anchor x="-275.0" y="724.0" name="top"/>
  <anchor x="-357.7" y="530.0" name="_top"/>
  <outline>
    <contour>
      <point x="-378.5" y="596.0" type="line"/>
      <point x="-353.2" y="596.0" type="line"/>
      <point x="-171.5" y="790.0" type="line"/>
      <point x="-199.1" y="790.0" type="line"/>
    </contour>
  </outline>
</glyph>
<glyph name="uni0302" format="2">
  <unicode hex="0302"/>
  <anchor x="-357.5" y="723.0" name="top"/>
  <anchor x="-357.5" y="530.0" name="_top"/>
  <anchor x="-213.5" y="663.5" name="top_viet"/>
  <outline>
    <contour>
      <point x="-539.5" y="596.0" type="line"/>
      <point x="-515.5" y="596.0" type="line"/>
      <point x="-357.5" y="770.5" type="line"/>
      <point x="-201.0" y="596.0" type="line"/>
      <point x="-175.5" y="596.0" type="line"/>
      <point x="-344.0" y="790.0" type="line"/>
      <point x="-370.0" y="790.0" type="line"/>
    </contour>
  </outline>
</glyph>
<glyph name="tildecomb" format="2">
  <unicode hex="0303"/>
  <anchor x="-357.7" y="670.7" name="top"/>
  <anchor x="-357.7" y="530.0" name="_top"/>
  <outline>
    <contour>
      <point x="-536.4" y="609.6" type="curve"/>
      <point x="-516.7" y="609.6" type="line"/>
      <point x="-518.5999999999999" y="619.6"/>
      <point x="-519.5" y="632.4"/>
      <point x="-519.5" y="643.1" type="curve" smooth="yes"/>
      <point x="-519.5" y="687.0"/>
      <point x="-500.2" y="711.0"/>
      <point x="-468.4" y="711.0" type="curve" smooth="yes"/>
      <point x="-396.1" y="711.0"/>
      <point x="-338.7" y="609.6"/>
      <point x="-248.39999999999998" y="609.6" type="curve" smooth="yes"/>
      <point x="-201.6" y="609.6"/>
      <point x="-176.5" y="646.5"/>
      <point x="-176.5" y="697.0" type="curve" smooth="yes"/>
      <point x="-176.5" y="706.8"/>
      <point x="-177.1" y="719.0"/>
      <point x="-178.7" y="730.5" type="curve"/>
      <point x="-197.79999999999998" y="730.5" type="line"/>
      <point x="-196.2" y="719.6"/>
      <point x="-195.6" y="707.4"/>
      <point x="-195.6" y="697.6" type="curve" smooth="yes"/>
      <point x="-195.6" y="655.9"/>
      <point x="-215.2" y="628.3"/>
      <point x="-248.39999999999998" y="628.3" type="curve" smooth="yes"/>
      <point x="-333.7" y="628.3"/>
      <point x="-383.9" y="728.4"/>
      <point x="-468.4" y="728.4" type="curve" smooth="yes"/>
      <point x="-511.09999999999997" y="728.4"/>
      <point x="-538.5999999999999" y="699.8"/>
      <point x="-538.5999999999999" y="643.1" type="curve" smooth="yes"/>
      <point x="-538.5999999999999" y="633.3"/>
      <point x="-538.0" y="620.8"/>
    </contour>
  </outline>
</glyph>
<glyph name="uni0304" format="2">
  <unicode hex="0304"/>
  <anchor x="-357.7" y="705.0" name="top"/>
  <anchor x="-357.7" y="530.0" name="_top"/>
  <outline>
    <contour>
      <point x="-516.0999999999999" y="685.0" type="line"/>
      <point x="-199.29999999999998" y="685.0" type="line"/>
      <point x="-199.29999999999998" y="705.0" type="line"/>
      <point x="-516.0999999999999" y="705.0" type="line"/>
    </contour>
  </outline>
</glyph>
<glyph name="uni0306" format="2">
  <unicode hex="0306"/>
  <anchor x="-357.7" y="717.7" name="top"/>
  <anchor x="-357.7" y="530.0" name="_top"/>
  <outline>
    <contour>
      <point x="-357.7" y="613.1" type="curve" smooth="yes"/>
      <point x="-256.0" y="613.1"/>
      <point x="-198.39999999999998" y="639.9"/>
      <point x="-182.29999999999998" y="728.1" type="curve" smooth="yes"/>
      <point x="-180.2" y="737.7"/>
      <point x="-178.1" y="748.4"/>
      <point x="-177.39999999999998" y="759.4" type="curve"/>
      <point x="-196.79999999999998" y="761.4" type="line"/>
      <point x="-197.5" y="752.5"/>
      <point x="-198.89999999999998" y="744.0"/>
      <point x="-200.29999999999998" y="736.1" type="curve" smooth="yes"/>
      <point x="-212.2" y="655.8"/>
      <point x="-266.2" y="632.5"/>
      <point x="-357.7" y="632.5" type="curve" smooth="yes"/>
      <point x="-449.2" y="632.5"/>
      <point x="-502.5" y="655.8"/>
      <point x="-515.8" y="736.8" type="curve" smooth="yes"/>
      <point x="-517.2" y="744.0"/>
      <point x="-517.9" y="752.5"/>
      <point x="-518.5999999999999" y="761.4" type="curve"/>
      <point x="-538.0" y="759.4" type="line"/>
      <point x="-537.3" y="748.4"/>
      <point x="-535.9" y="738.4"/>
      <point x="-533.8" y="728.8" type="curve" smooth="yes"/>
      <point x="-517.7" y="639.9"/>
      <point x="-459.4" y="613.1"/>
    </contour>
  </outline>
</glyph>
<glyph name="uni0307" format="2">
  <unicode hex="0307"/>
  <anchor x="-357.7" y="653.0" name="top"/>
  <anchor x="-357.7" y="530.0" name="_top"/>
  <outline>
    <contour>
      <point x="-357.7" y="676.0" type="curve" smooth="yes"/>
      <point x="-344.29999999999995" y="676.0"/>
      <point x="-342.29999999999995" y="684.0"/>
      <point x="-342.29999999999995" y="694.0" type="curve" smooth="yes"/>
      <point x="-342.29999999999995" y="704.0"/>
      <point x="-344.29999999999995" y="712.0"/>
      <point x="-357.7" y="712.0" type="curve" smooth="yes"/>
      <point x="-369.79999999999995" y="712.0"/>
      <point x="-373.1" y="704.0"/>
      <point x="-373.1" y="694.0" type="curve" smooth="yes"/>
      <point x="-373.1" y="684.0"/>
      <point x="-369.79999999999995" y="676.0"/>
    </contour>
  </outline>
</glyph>
<glyph name="uni0308" format="2">
  <unicode hex="0308"/>
  <anchor x="-357.7" y="653.0" name="top"/>
  <anchor x="-357.7" y="530.0" name="_top"/>
  <outline>
    <contour>
      <point x="-232.2" y="676.0" type="curve" smooth="yes"/>
      <point x="-219.79999999999998" y="676.0"/>
      <point x="-218.5" y="684.0"/>
      <point x="-218.5" y="694.0" type="curve" smooth="yes"/>
      <point x="-218.5" y="704.0"/>
      <point x="-219.79999999999998" y="712.0"/>
      <point x="-232.2" y="712.0" type="curve" smooth="yes"/>
      <point x="-244.6" y="712.0"/>
      <point x="-247.29999999999998" y="704.0"/>
      <point x="-247.29999999999998" y="694.0" type="curve" smooth="yes"/>
      <point x="-247.29999999999998" y="684.0"/>
      <point x="-244.6" y="676.0"/>
    </contour>
    <contour>
      <point x="-482.5" y="676.0" type="curve" smooth="yes"/>
      <point x="-470.09999999999997" y="676.0"/>
      <point x="-468.79999999999995" y="684.0"/>
      <point x="-468.79999999999995" y="694.0" type="curve" smooth="yes"/>
      <point x="-468.79999999999995" y="704.0"/>
      <point x="-470.09999999999997" y="712.0"/>
      <point x="-482.5" y="712.0" type="curve" smooth="yes"/>
      <point x="-494.9" y="712.0"/>
      <point x="-497.59999999999997" y="704.0"/>
      <point x="-497.59999999999997" y="694.0" type="curve" smooth="yes"/>
      <point x="-497.59999999999997" y="684.0"/>
      <point x="-494.9" y="676.0"/>
    </contour>
  </outline>
</glyph>
<glyph name="hookabovecomb" format="2">
  <unicode hex="0309"/>
  <anchor x="-349.0" y="794.0" name="top"/>
  <anchor x="-357.7" y="530.0" name="_top"/>
  <outline>
    <contour>
      <point x="-354.5" y="602.5" type="line"/>
      <point x="-293.0" y="634.3"/>
      <point x="-264.79999999999995" y="669.8"/>
      <point x="-264.79999999999995" y="718.8" type="curve" smooth="yes"/>
      <point x="-264.79999999999995" y="770.4"/>
      <point x="-301.6" y="794.0"/>
      <point x="-349.9" y="794.0" type="curve" smooth="yes"/>
      <point x="-388.1" y="794.0"/>
      <point x="-420.5" y="781.4"/>
      <point x="-449.59999999999997" y="751.3" type="curve"/>
      <point x="-437.59999999999997" y="738.2" type="line"/>
      <point x="-414.3" y="763.6"/>
      <point x="-385.6" y="777.0"/>
      <point x="-349.5" y="777.0" type="curve" smooth="yes"/>
      <point x="-314.1" y="777.0"/>
      <point x="-284.5" y="757.9"/>
      <point x="-284.5" y="718.5" type="curve" smooth="yes"/>
      <point x="-284.5" y="677.0"/>
      <point x="-305.0" y="647.9"/>
      <point x="-363.0" y="617.0" type="curve"/>
    </contour>
  </outline>
</glyph>
<glyph name="uni030A" format="2">
  <unicode hex="030A"/>
  <anchor x="-357.7" y="743.2" name="top"/>
  <anchor x="-357.7" y="530.0" name="_top"/>
  <outline>
    <contour>
      <point x="-357.7" y="617.0" type="curve" smooth="yes"/>
      <point x="-297.2" y="617.0"/>
      <point x="-266.7" y="643.6"/>
      <point x="-266.7" y="695.0" type="curve" smooth="yes"/>
      <point x="-266.7" y="746.4"/>
      <point x="-297.2" y="773.0"/>
      <point x="-357.7" y="773.0" type="curve" smooth="yes"/>
      <point x="-418.2" y="773.0"/>
      <point x="-448.7" y="746.4"/>
      <point x="-448.7" y="695.0" type="curve" smooth="yes"/>
      <point x="-448.7" y="643.6"/>
      <point x="-418.2" y="617.0"/>
    </contour>
    <contour>
      <point x="-357.7" y="634.7" type="curve" smooth="yes"/>
      <point x="-405.5" y="634.7"/>
      <point x="-429.7" y="655.7"/>
      <point x="-429.7" y="695.0" type="curve" smooth="yes"/>
      <point x="-429.7" y="734.6"/>
      <point x="-405.5" y="755.3"/>
      <point x="-357.7" y="755.3" type="curve" smooth="yes"/>
      <point x="-309.9" y="755.3"/>
      <point x="-285.7" y="734.6"/>
      <point x="-285.7" y="695.0" type="curve" smooth="yes"/>
      <point x="-285.7" y="655.7"/>
      <point x="-309.9" y="634.7"/>
    </contour>
  </outline>
</glyph>
<glyph name="uni030B" format="2">
  <unicode hex="030B"/>
  <anchor x="-270.29999999999995" y="790.0" name="top"/>
  <anchor x="-357.7" y="530.0" name="_top"/>
  <outline>
    <contour>
      <point x="-286.79999999999995" y="596.0" type="line"/>
      <point x="-261.5" y="596.0" type="line"/>
      <point x="-80.1" y="790.0" type="line"/>
      <point x="-107.69999999999999" y="790.0" type="line"/>
    </contour>
    <contour>
      <point x="-461.2" y="596.0" type="line"/>
      <point x="-435.9" y="596.0" type="line"/>
      <point x="-254.5" y="790.0" type="line"/>
      <point x="-282.1" y="790.0" type="line"/>
    </contour>
  </outline>
</glyph>
<glyph name="uni030F" format="2">
  <unicode hex="030F"/>
  <anchor x="-420.3" y="790.0" name="top"/>
  <anchor x="-357.7" y="530.0" name="_top"/>
  <outline>
    <contour>
      <point x="-429.8" y="596.0" type="line"/>
      <point x="-403.79999999999995" y="596.0" type="line"/>
      <point x="-582.9" y="790.0" type="line"/>
      <point x="-610.5" y="790.0" type="line"/>
    </contour>
    <contour>
      <point x="-255.39999999999998" y="596.0" type="line"/>
      <point x="-229.39999999999998" y="596.0" type="line"/>
      <point x="-408.5" y="790.0" type="line"/>
      <point x="-436.09999999999997" y="790.0" type="line"/>
    </contour>
  </outline>
</glyph>
<glyph name="uni0312" format="2">
  <unicode hex="0312"/>
  <anchor x="-357.7" y="530.0" name="_top"/>
  <outline>
    <contour>
      <point x="-347.0" y="595.0" type="line"/>
      <point x="-366.6" y="611.0"/>
      <point x="-377.6" y="642.0"/>
      <point x="-377.6" y="675.0" type="curve" smooth="yes"/>
      <point x="-377.6" y="710.0"/>
      <point x="-365.9" y="746.0"/>
      <point x="-317.79999999999995" y="790.0" type="curve"/>
      <point x="-345.7" y="790.0" type="line"/>
      <point x="-381.79999999999995" y="753.0"/>
      <point x="-397.6" y="720.0"/>
      <point x="-397.6" y="675.0" type="curve" smooth="yes"/>
      <point x="-397.6" y="637.0"/>
      <point x="-384.9" y="608.0"/>
      <point x="-370.79999999999995" y="595.0" type="curve"/>
    </contour>
  </outline>
</glyph>
<glyph name="uni031B" format="2">
  <unicode hex="031B"/>
  <anchor x="-243.5" y="530.0" name="_topright"/>
  <anchor x="-69.0" y="690.6" name="topright"/>
  <outline>
    <contour>
      <point x="-253.5" y="513.0" type="line"/>
      <point x="-244.7" y="513.0" type="line" smooth="yes"/>
      <point x="-89.1" y="513.0"/>
      <point x="-54.599999999999994" y="612.1"/>
      <point x="-117.39999999999999" y="690.3" type="curve"/>
      <point x="-134.0" y="680.2" type="line"/>
      <point x="-75.6" y="605.4"/>
      <point x="-117.0" y="530.0"/>
      <point x="-245.6" y="530.0" type="curve" smooth="yes"/>
      <point x="-253.5" y="530.0" type="line"/>
    </contour>
  </outline>
</glyph>
<glyph name="uni0326" format="2">
  <unicode hex="0326"/>
  <anchor x="-357.7" y="0.0" name="_bottom"/>
  <outline>
    <contour>
      <point x="-391.7" y="-220.0" type="curve"/>
      <point x="-370.0" y="-220.0" type="line"/>
      <point x="-347.4" y="-185.8"/>
      <point x="-336.2" y="-151.4"/>
      <point x="-336.2" y="-116.9" type="curve" smooth="yes"/>
      <point x="-336.2" y="-100.0"/>
      <point x="-340.0" y="-85.5"/>
      <point x="-345.9" y="-73.0" type="curve"/>
      <point x="-369.5" y="-73.0" type="line"/>
      <point x="-360.79999999999995" y="-84.4"/>
      <point x="-355.6" y="-98.9"/>
      <point x="-355.6" y="-116.9" type="curve" smooth="yes"/>
      <point x="-355.6" y="-149.1"/>
      <point x="-368.2" y="-184.4"/>
    </contour>
  </outline>
</glyph>
<glyph name="uni0327" format="2">
  <unicode hex="0327"/>
  <anchor x="-357.7" y="0.0" name="_bottom"/>
  <anchor x="-348.5" y="-220.0" name="bottom"/>
  <outline>
    <contour>
      <point x="-468.09999999999997" y="-172.6" type="curve"/>
      <point x="-475.79999999999995" y="-189.7" type="line"/>
      <point x="-426.4" y="-211.0"/>
      <point x="-383.0" y="-220.0"/>
      <point x="-348.5" y="-220.0" type="curve" smooth="yes"/>
      <point x="-276.7" y="-220.0"/>
      <point x="-241.29999999999998" y="-181.9"/>
      <point x="-241.29999999999998" y="-125.0" type="curve" smooth="yes"/>
      <point x="-241.29999999999998" y="-75.3"/>
      <point x="-281.7" y="-31.3"/>
      <point x="-347.2" y="0.0" type="curve"/>
      <point x="-373.0" y="0.0" type="line"/>
      <point x="-312.2" y="-38.400000000000006"/>
      <point x="-260.7" y="-76.1"/>
      <point x="-260.7" y="-125.0" type="curve" smooth="yes"/>
      <point x="-260.7" y="-172.9"/>
      <point x="-291.6" y="-200.9"/>
      <point x="-349.7" y="-200.9" type="curve" smooth="yes"/>
      <point x="-382.5" y="-200.9"/>
      <point x="-422.3" y="-191.6"/>
    </contour>
  </outline>
</glyph>
<glyph name="uni0328" format="2">
  <unicode hex="0328"/>
  <anchor x="-300.0" y="0.0" name="_ogonek"/>
  <outline>
    <contour>
      <point x="-334.4" y="-220.0" type="curve" smooth="yes"/>
      <point x="-318.1" y="-220.0"/>
      <point x="-305.9" y="-217.7"/>
      <point x="-295.1" y="-213.4" type="curve"/>
      <point x="-296.9" y="-196.6" type="line"/>
      <point x="-307.1" y="-199.9"/>
      <point x="-317.7" y="-201.6"/>
      <point x="-331.4" y="-201.6" type="curve" smooth="yes"/>
      <point x="-365.0" y="-201.6"/>
      <point x="-398.7" y="-187.7"/>
      <point x="-398.7" y="-137.3" type="curve" smooth="yes"/>
      <point x="-398.7" y="-75.7"/>
      <point x="-349.29999999999995" y="-28.500000000000004"/>
      <point x="-300.0" y="0.0" type="curve"/>
      <point x="-309.4" y="10.5" type="line"/>
      <point x="-372.2" y="-22.700000000000003"/>
      <point x="-419.5" y="-78.80000000000001"/>
      <point x="-419.5" y="-139.0" type="curve" smooth="yes"/>
      <point x="-419.5" y="-201.2"/>
      <point x="-374.5" y="-220.0"/>
    </contour>
  </outline>
</glyph>
<glyph name="uni0335" format="2">
  <unicode hex="0335"/>
  <anchor x="-121.6" y="350.0" name="_center"/>
  <outline>
    <contour>
      <point x="-262.5" y="340.0" type="line"/>
      <point x="18.6" y="340.0" type="line"/>
      <point x="18.6" y="360.0" type="line"/>
      <point x="-262.5" y="360.0" type="line"/>
    </contour>
  </outline>
</glyph>
